InterAlia-ExtraBold.ufo
<glyph name="exclam" format="2">
  <advance height="2479.0" width="695.6"/>
  <unicode hex="0021"/>
  <outline>
    <contour>
      <point x="530.4" y="1489.0" type="line"/>
      <point x="165.2" y="1489.0" type="line"/>
      <point x="198.6" y="455.8" type="line"/>
      <point x="497.0" y="455.8" type="line"/>
    </contour>
    <component base="period" xOffset="35.800000000000004"/>
  </outline>
</glyph>
<glyph name="numbersign" format="2">
  <advance height="2479.0" width="1343.2"/>
  <unicode hex="0023"/>
  <outline>
    <contour>
      <point x="680.2" y="0.0" type="line"/>
      <point x="942.0" y="0.0" type="line"/>
      <point x="1186.2" y="1489.0" type="line"/>
      <point x="924.2" y="1489.0" type="line"/>
    </contour>
    <contour>
      <point x="16.599999999999998" y="354.6" type="line"/>
      <point x="1197.2" y="354.6" type="line"/>
      <point x="1241.8" y="616.6" type="line"/>
      <point x="60.4" y="616.6" type="line"/>
    </contour>
    <contour>
      <point x="156.2" y="0.0" type="line"/>
      <point x="418.2" y="0.0" type="line"/>
      <point x="663.0" y="1489.0" type="line"/>
      <point x="401.0" y="1489.0" type="line"/>
    </contour>
    <contour>
      <point x="101.2" y="872.6" type="line"/>
      <point x="1282.6" y="872.6" type="line"/>
      <point x="1326.6" y="1134.4" type="line"/>
      <point x="145.0" y="1134.4" type="line"/>
    </contour>
  </outline>
</glyph>
<glyph name="dollar" format="2">
  <advance height="2479.0" width="1352.4"/>
  <unicode hex="0024"/>
  <anchor x="682.2" y="-5.199999999999999" name="bottom"/>
  <anchor x="680.6" y="0.0" name="cedilla"/>
  <anchor x="677.6" y="1676.0" name="top"/>
  <outline>
    <contour>
      <point x="630.6" y="-186.0" type="line"/>
      <point x="749.8" y="-186.0" type="line"/>
      <point x="749.8" y="1676.0" type="line"/>
      <point x="630.6" y="1676.0" type="line"/>
    </contour>
    <component base="S"/>
  </outline>
</glyph>
<glyph name="percent" format="2">
  <advance height="2479.0" width="1792.0"/>
  <unicode hex="0025"/>
  <anchor x="1143.2" y="791.0" name="dnom"/>
  <anchor x="642.8" y="698.0" name="numr"/>
  <outline>
    <contour>
      <point x="943.4" y="279.0" type="line" smooth="yes"/>
      <point x="943.4" y="95.2"/>
      <point x="1063.0" y="-62.400000000000006"/>
      <point x="1283.2" y="-62.400000000000006" type="curve" smooth="yes"/>
      <point x="1503.8" y="-62.400000000000006"/>
      <point x="1624.8" y="95.2"/>
      <point x="1624.8" y="279.0" type="curve" smooth="yes"/>
      <point x="1624.8" y="358.0" type="line" smooth="yes"/>
      <point x="1624.8" y="544.2"/>
      <point x="1506.6" y="699.4"/>
      <point x="1283.2" y="699.4" type="curve" smooth="yes"/>
      <point x="1066.0" y="699.4"/>
      <point x="943.4" y="541.8"/>
      <point x="943.4" y="358.0" type="curve" smooth="yes"/>
    </contour>
    <contour>
      <point x="1175.6" y="358.0" type="line" smooth="yes"/>
      <point x="1175.6" y="422.4"/>
      <point x="1201.4" y="492.8"/>
      <point x="1283.2" y="492.8" type="curve" smooth="yes"/>
      <point x="1370.6" y="492.8"/>
      <point x="1390.4" y="422.4"/>
      <point x="1390.4" y="358.0" type="curve" smooth="yes"/>
      <point x="1390.4" y="279.0" type="line" smooth="yes"/>
      <point x="1390.4" y="214.6"/>
      <point x="1367.6" y="146.6"/>
      <point x="1283.2" y="146.6" type="curve" smooth="yes"/>
      <point x="1200.8" y="146.6"/>
      <point x="1175.6" y="217.0"/>
      <point x="1175.6" y="279.0" type="curve" smooth="yes"/>
    </contour>
    <contour>
      <point x="172.0" y="1132.0" type="line" smooth="yes"/>
      <point x="172.0" y="948.2"/>
      <point x="290.6" y="792.8"/>
      <point x="511.8" y="792.8" type="curve" smooth="yes"/>
      <point x="731.4" y="792.8"/>
      <point x="853.4" y="945.8"/>
      <point x="853.4" y="1132.0" type="curve" smooth="yes"/>
      <point x="853.4" y="1210.0" type="line" smooth="yes"/>
      <point x="853.4" y="1396.2"/>
      <point x="734.4" y="1551.6"/>
      <point x="511.8" y="1551.6" type="curve" smooth="yes"/>
      <point x="296.0" y="1551.6"/>
      <point x="172.0" y="1396.2"/>
      <point x="172.0" y="1210.0" type="curve" smooth="yes"/>
    </contour>
    <contour>
      <point x="406.4" y="1210.0" type="line" smooth="yes"/>
      <point x="406.4" y="1272.0"/>
      <point x="429.8" y="1345.0"/>
      <point x="511.8" y="1345.0" type="curve" smooth="yes"/>
      <point x="599.0" y="1345.0"/>
      <point x="618.8" y="1274.4"/>
      <point x="618.8" y="1210.0" type="curve" smooth="yes"/>
      <point x="618.8" y="1132.0" type="line" smooth="yes"/>
      <point x="618.8" y="1066.6"/>
      <point x="596.0" y="998.6"/>
      <point x="511.8" y="998.6" type="curve" smooth="yes"/>
      <point x="430.8" y="998.6"/>
      <point x="406.4" y="1066.6"/>
      <point x="406.4" y="1132.0" type="curve" smooth="yes"/>
    </contour>
    <component base="fraction" xOffset="614.6"/>
  </outline>
</glyph>
<glyph name="ampersand" format="2">
  <advance height="2479.0" width="1404.2"/>
  <unicode hex="0026"/>
  <outline>
    <contour>
      <point x="581.4" y="-22.4" type="curve"/>
      <point x="709.8" y="-22.4"/>
      <point x="849.0" y="10.399999999999999"/>
      <point x="963.4" y="92.8" type="curve"/>
      <point x="998.6" y="112.4"/>
      <point x="1030.8" y="129.0"/>
      <point x="1065.0" y="148.6" type="curve"/>
      <point x="1231.6" y="267.8"/>
      <point x="1318.0" y="485.4"/>
      <point x="1318.0" y="752.0" type="curve"/>
      <point x="1031.2" y="752.0" type="line"/>
      <point x="1031.2" y="462.4"/>
      <point x="806.6" y="259.0"/>
      <point x="603.4" y="259.0" type="curve" smooth="yes"/>
      <point x="489.6" y="259.0"/>
      <point x="416.6" y="323.2"/>
      <point x="416.6" y="419.2" type="curve"/>
      <point x="416.6" y="480.8"/>
      <point x="456.20000000000005" y="533.0"/>
      <point x="520.6" y="579.2" type="curve" smooth="yes"/>
      <point x="827.2" y="798.6" type="line" smooth="yes"/>
      <point x="953.2" y="888.6"/>
      <point x="1024.2" y="1006.8"/>
      <point x="1024.2" y="1146.6" type="curve"/>
      <point x="1024.2" y="1344.6"/>
      <point x="873.8" y="1511.2"/>
      <point x="629.0" y="1511.2" type="curve" smooth="yes"/>
      <point x="375.8" y="1511.2"/>
      <point x="208.0" y="1335.0"/>
      <point x="208.0" y="1113.4" type="curve" smooth="yes"/>
      <point x="208.0" y="915.2"/>
      <point x="345.0" y="762.0"/>
      <point x="447.6" y="648.2" type="curve" smooth="yes"/>
      <point x="1045.4" y="0.0" type="line"/>
      <point x="1407.4" y="0.0" type="line"/>
      <point x="693.8" y="802.2" type="line" smooth="yes"/>
      <point x="588.2" y="927.8"/>
      <point x="503.0" y="1017.4"/>
      <point x="503.0" y="1108.0" type="curve" smooth="yes"/>
      <point x="503.0" y="1176.2"/>
      <point x="553.0" y="1227.2"/>
      <point x="630.2" y="1228.0" type="curve" smooth="yes"/>
      <point x="710.0" y="1228.0"/>
      <point x="752.6" y="1176.0"/>
      <point x="752.6" y="1122.6" type="curve"/>
      <point x="752.6" y="1073.4"/>
      <point x="725.6" y="1023.2"/>
      <point x="654.2" y="977.6" type="curve"/>
      <point x="341.6" y="778.4" type="line"/>
      <point x="181.8" y="669.4"/>
      <point x="74.6" y="566.8"/>
      <point x="74.6" y="396.0" type="curve"/>
      <point x="74.6" y="162.8"/>
      <point x="265.8" y="-22.4"/>
    </contour>
  </outline>
</glyph>
<glyph name="quotesingle" format="2">
  <advance height="2479.0" width="544.2"/>
  <unicode hex="0027"/>
  <outline>
    <contour>
      <point x="426.8" y="1489.0" type="line"/>
      <point x="117.4" y="1489.0" type="line"/>
      <point x="152.4" y="905.0" type="line"/>
      <point x="391.8" y="905.0" type="line"/>
    </contour>
  </outline>
</glyph>
<glyph name="parenleft" format="2">
  <advance height="2479.0" width="870.0"/>
  <unicode hex="0028"/>
  <outline>
    <contour>
      <point x="183.6" y="586.4" type="curve" smooth="yes"/>
      <point x="183.6" y="226.8"/>
      <point x="277.8" y="-72.0"/>
      <point x="483.0" y="-330.2" type="curve"/>
      <point x="827.6" y="-330.2" type="line"/>
      <point x="671.6" y="-138.2"/>
      <point x="553.6" y="242.8"/>
      <point x="553.6" y="586.4" type="curve" smooth="yes"/>
      <point x="553.6" y="930.2"/>
      <point x="671.6" y="1311.0"/>
      <point x="827.6" y="1503.0" type="curve"/>
      <point x="483.0" y="1503.0" type="line"/>
      <point x="277.8" y="1244.8"/>
      <point x="183.6" y="946.2"/>
    </contour>
  </outline>
</glyph>
<glyph name="asterisk" format="2">
  <advance height="2479.0" width="1200.8"/>
  <unicode hex="002A"/>
  <outline>
    <contour>
      <point x="493.2" y="652.0" type="line"/>
      <point x="707.6" y="652.0" type="line"/>
      <point x="686.8" y="920.8" type="line"/>
      <point x="910.6" y="767.2" type="line"/>
      <point x="1017.4" y="954.8" type="line"/>
      <point x="774.6" y="1071.0" type="line"/>
      <point x="1017.4" y="1186.2" type="line"/>
      <point x="910.6" y="1373.8" type="line"/>
      <point x="686.8" y="1220.2" type="line"/>
      <point x="707.6" y="1489.0" type="line"/>
      <point x="493.2" y="1489.0" type="line"/>
      <point x="514.0" y="1220.2" type="line"/>
      <point x="290.2" y="1373.8" type="line"/>
      <point x="183.4" y="1186.2" type="line"/>
      <point x="426.2" y="1071.0" type="line"/>
      <point x="183.4" y="954.8" type="line"/>
      <point x="290.2" y="767.2" type="line"/>
      <point x="514.0" y="920.8" type="line"/>
    </contour>
  </outline>
</glyph>
<glyph name="plus" format="2">
  <advance height="2479.0" width="1406.0"/>
  <unicode hex="002B"/>
  <outline>
    <contour>
      <point x="556.2" y="74.0" type="line"/>
      <point x="849.6" y="74.0" type="line"/>
      <point x="849.6" y="1126.8" type="line"/>
      <point x="556.2" y="1126.8" type="line"/>
    </contour>
    <contour>
      <point x="176.6" y="453.6" type="line"/>
      <point x="1229.4" y="453.6" type="line"/>
      <point x="1229.4" y="747.0" type="line"/>
      <point x="176.6" y="747.0" type="line"/>
    </contour>
  </outline>
</glyph>
<glyph name="comma" format="2">
  <advance height="2479.0" width="636.2"/>
  <unicode hex="002C"/>
  <outline>
    <contour>
      <point x="476.2" y="204.0" type="line"/>
      <point x="196.6" y="204.0" type="line"/>
      <point x="194.8" y="122.0" type="line" smooth="yes"/>
      <point x="190.6" y="-75.8"/>
      <point x="128.8" y="-280.6"/>
      <point x="106.6" y="-364.0" type="curve"/>
      <point x="330.4" y="-364.0" type="line"/>
      <point x="365.4" y="-279.4"/>
      <point x="452.2" y="-78.6"/>
      <point x="469.0" y="122.6" type="curve" smooth="yes"/>
    </contour>
  </outline>
</glyph>
<glyph name="hyphen" format="2">
  <advance height="2479.0" width="966.2"/>
  <unicode hex="002D"/>
  <outline>
    <contour>
      <point x="827.4" y="739.8" type="line"/>
      <point x="138.6" y="739.8" type="line"/>
      <point x="138.6" y="465.4" type="line"/>
      <point x="827.4" y="465.4" type="line"/>
    </contour>
  </outline>
</glyph>
<glyph name="period" format="2">
  <advance height="2479.0" width="624.8"/>
  <unicode hex="002E"/>
  <outline>
    <contour>
      <point x="312.4" y="-20.8" type="curve" smooth="yes"/>
      <point x="412.4" y="-20.8"/>
      <point x="500.2" y="63.0"/>
      <point x="501.8" y="167.8" type="curve" smooth="yes"/>
      <point x="500.2" y="271.0"/>
      <point x="412.4" y="354.8"/>
      <point x="312.4" y="354.8" type="curve" smooth="yes"/>
      <point x="207.6" y="354.8"/>
      <point x="122.2" y="271.0"/>
      <point x="123.0" y="167.8" type="curve" smooth="yes"/>
      <point x="122.2" y="63.0"/>
      <point x="207.6" y="-20.8"/>
    </contour>
  </outline>
</glyph>
<glyph name="slash" format="2">
  <advance height="2479.0" width="821.2"/>
  <unicode hex="002F"/>
  <outline>
    <contour>
      <point x="802.4" y="1559.0" type="line"/>
      <point x="499.0" y="1559.0" type="line"/>
      <point x="19.0" y="-224.0" type="line"/>
      <point x="322.4" y="-224.0" type="line"/>
    </contour>
  </outline>
</glyph>
<glyph name="zero" format="2">
  <advance height="2479.0" width="1452.0"/>
  <unicode hex="0030"/>
  <outline>
    <contour>
      <point x="726.4" y="-36.8" type="curve" smooth="yes"/>
      <point x="1116.2" y="-36.8"/>
      <point x="1354.8" y="250.8"/>
      <point x="1355.6" y="742.6" type="curve" smooth="yes"/>
      <point x="1356.4" y="1231.2"/>
      <point x="1115.6" y="1510.0"/>
      <point x="726.4" y="1510.0" type="curve" smooth="yes"/>
      <point x="336.4" y="1510.0"/>
      <point x="98.0" y="1232.0"/>
      <point x="96.4" y="742.6" type="curve" smooth="yes"/>
      <point x="95.6" y="252.4"/>
      <point x="335.8" y="-36.0"/>
    </contour>
    <contour>
      <point x="726.4" y="258.4" type="curve" smooth="yes"/>
      <point x="571.0" y="258.4"/>
      <point x="465.8" y="413.8"/>
      <point x="466.6" y="742.6" type="curve" smooth="yes"/>
      <point x="468.20000000000005" y="1064.8"/>
      <point x="571.4" y="1217.8"/>
      <point x="726.4" y="1217.8" type="curve" smooth="yes"/>
      <point x="880.6" y="1217.8"/>
      <point x="984.6" y="1064.8"/>
      <point x="985.4" y="742.6" type="curve" smooth="yes"/>
      <point x="986.2" y="413.8"/>
      <point x="881.0" y="258.4"/>
    </contour>
  </outline>
</glyph>
<glyph name="one" format="2">
  <advance height="2479.0" width="1019.0"/>
  <unicode hex="0031"/>
  <outline>
    <contour>
      <point x="798.8" y="1489.0" type="line"/>
      <point x="465.0" y="1489.0" type="line"/>
      <point x="97.0" y="1260.4" type="line"/>
      <point x="97.0" y="949.4" type="line"/>
      <point x="430.6" y="1153.6" type="line"/>
      <point x="439.4" y="1153.6" type="line"/>
      <point x="439.4" y="0.0" type="line"/>
      <point x="798.8" y="0.0" type="line"/>
    </contour>
  </outline>
</glyph>
<glyph name="two" format="2">
  <advance height="2479.0" width="1307.0"/>
  <unicode hex="0032"/>
  <anchor x="884.6" y="807.2" name="cross"/>
  <outline>
    <contour>
      <point x="110.0" y="0.0" type="line"/>
      <point x="1212.4" y="0.0" type="line"/>
      <point x="1212.4" y="290.4" type="line"/>
      <point x="608.2" y="290.4" type="line"/>
      <point x="608.2" y="300.0" type="line"/>
      <point x="787.2" y="464.2" type="line" smooth="yes"/>
      <point x="1110.4" y="745.6"/>
      <point x="1194.4" y="888.8"/>
      <point x="1194.4" y="1059.4" type="curve" smooth="yes"/>
      <point x="1194.4" y="1327.8"/>
      <point x="975.4" y="1510.0"/>
      <point x="636.8" y="1510.0" type="curve" smooth="yes"/>
      <point x="307.8" y="1510.0"/>
      <point x="87.2" y="1320.0"/>
      <point x="88.0" y="1017.4" type="curve"/>
      <point x="429.6" y="1017.4" type="line"/>
      <point x="428.8" y="1151.2"/>
      <point x="511.4" y="1229.8"/>
      <point x="635.6" y="1229.8" type="curve" smooth="yes"/>
      <point x="757.4" y="1229.8"/>
      <point x="845.4" y="1154.0"/>
      <point x="845.4" y="1031.4" type="curve" smooth="yes"/>
      <point x="845.4" y="919.8"/>
      <point x="774.8" y="844.2"/>
      <point x="653.2" y="734.6" type="curve" smooth="yes"/>
      <point x="110.0" y="259.0" type="line"/>
    </contour>
  </outline>
</glyph>
<glyph name="three" format="2">
  <advance height="2479.0" width="1366.2"/>
  <unicode hex="0033"/>
  <outline>
    <contour>
      <point x="676.2" y="-20.0" type="curve" smooth="yes"/>
      <point x="1025.2" y="-20.0"/>
      <point x="1273.8" y="164.2"/>
      <point x="1272.2" y="423.2" type="curve" smooth="yes"/>
      <point x="1273.8" y="606.6"/>
      <point x="1153.8" y="737.4"/>
      <point x="924.2" y="764.4" type="curve"/>
      <point x="924.2" y="776.4" type="line"/>
      <point x="1096.0" y="800.8"/>
      <point x="1218.6" y="916.6"/>
      <point x="1217.0" y="1083.0" type="curve" smooth="yes"/>
      <point x="1218.6" y="1326.0"/>
      <point x="999.0" y="1510.0"/>
      <point x="679.8" y="1510.0" type="curve" smooth="yes"/>
      <point x="358.0" y="1510.0"/>
      <point x="123.2" y="1323.8"/>
      <point x="120.6" y="1058.6" type="curve"/>
      <point x="465.2" y="1058.6" type="line"/>
      <point x="467.2" y="1161.0"/>
      <point x="558.6" y="1229.8"/>
      <point x="679.2" y="1229.8" type="curve" smooth="yes"/>
      <point x="793.0" y="1229.8"/>
      <point x="871.8" y="1160.2"/>
      <point x="870.2" y="1060.6" type="curve" smooth="yes"/>
      <point x="871.8" y="957.0"/>
      <point x="779.2" y="885.6"/>
      <point x="647.8" y="885.6" type="curve" smooth="yes"/>
      <point x="502.4" y="885.6" type="line"/>
      <point x="502.4" y="630.4" type="line"/>
      <point x="647.8" y="630.4" type="line" smooth="yes"/>
      <point x="797.8" y="630.4"/>
      <point x="895.8" y="556.2"/>
      <point x="895.0" y="451.2" type="curve" smooth="yes"/>
      <point x="895.8" y="345.4"/>
      <point x="806.0" y="272.0"/>
      <point x="678.2" y="272.0" type="curve" smooth="yes"/>
      <point x="550.0" y="272.0"/>
      <point x="456.2" y="339.2"/>
      <point x="453.4" y="437.6" type="curve"/>
      <point x="91.0" y="437.6" type="line"/>
      <point x="94.0" y="168.4"/>
      <point x="336.2" y="-20.0"/>
    </contour>
  </outline>
</glyph>
<glyph name="four" format="2">
  <advance height="2479.0" width="1412.6"/>
  <unicode hex="0034"/>
  <outline>
    <contour>
      <point x="91.0" y="247.4" type="line"/>
      <point x="1332.8" y="247.4" type="line"/>
      <point x="1332.8" y="530.6" type="line"/>
      <point x="449.20000000000005" y="530.6" type="line"/>
      <point x="449.20000000000005" y="542.6" type="line"/>
      <point x="806.6" y="1108.8" type="line"/>
      <point x="951.4" y="1108.8" type="line"/>
      <point x="951.4" y="1489.0" type="line"/>
      <point x="702.0" y="1489.0" type="line"/>
      <point x="91.0" y="528.4" type="line"/>
    </contour>
    <contour>
      <point x="811.2" y="0.0" type="line"/>
      <point x="1155.2" y="0.0" type="line"/>
      <point x="1155.2" y="1489.0" type="line"/>
      <point x="817.6" y="1489.0" type="line"/>
      <point x="817.6" y="456.0" type="line"/>
      <point x="811.2" y="333.4" type="line"/>
    </contour>
  </outline>
</glyph>
<glyph name="five" format="2">
  <advance height="2479.0" width="1345.0"/>
  <unicode hex="0035"/>
  <outline>
    <contour>
      <point x="680.0" y="-20.0" type="curve" smooth="yes"/>
      <point x="1027.0" y="-20.0"/>
      <point x="1258.2" y="197.8"/>
      <point x="1258.2" y="504.4" type="curve" smooth="yes"/>
      <point x="1258.2" y="788.6"/>
      <point x="1059.8" y="991.0"/>
      <point x="793.0" y="991.0" type="curve" smooth="yes"/>
      <point x="652.2" y="991.0"/>
      <point x="535.0" y="930.2"/>
      <point x="485.2" y="848.4" type="curve"/>
      <point x="476.2" y="848.4" type="line"/>
      <point x="510.0" y="1199.4" type="line"/>
      <point x="1169.6" y="1199.4" type="line"/>
      <point x="1169.6" y="1489.0" type="line"/>
      <point x="215.0" y="1489.0" type="line"/>
      <point x="150.4" y="686.4" type="line"/>
      <point x="467.4" y="626.4" type="line"/>
      <point x="507.8" y="693.6"/>
      <point x="590.4" y="735.2"/>
      <point x="677.6" y="735.2" type="curve" smooth="yes"/>
      <point x="814.8" y="734.8"/>
      <point x="911.4" y="638.0"/>
      <point x="911.4" y="494.2" type="curve" smooth="yes"/>
      <point x="911.4" y="352.0"/>
      <point x="815.8" y="256.0"/>
      <point x="680.0" y="256.0" type="curve" smooth="yes"/>
      <point x="563.8" y="256.0"/>
      <point x="469.0" y="328.4"/>
      <point x="464.0" y="437.6" type="curve"/>
      <point x="115.4" y="437.6" type="line"/>
      <point x="119.19999999999999" y="169.8"/>
      <point x="354.4" y="-20.0"/>
    </contour>
  </outline>
</glyph>
<glyph name="six" format="2">
  <advance height="2479.0" width="1377.0"/>
  <unicode hex="0036"/>
  <outline>
    <contour>
      <point x="706.6" y="-20.0" type="curve" smooth="yes"/>
      <point x="1048.4" y="-20.8"/>
      <point x="1284.4" y="193.4"/>
      <point x="1283.6" y="505.6" type="curve" smooth="yes"/>
      <point x="1284.4" y="781.6"/>
      <point x="1096.2" y="981.4"/>
      <point x="829.2" y="981.4" type="curve" smooth="yes"/>
      <point x="662.4" y="981.4"/>
      <point x="513.0" y="901.6"/>
      <point x="451.0" y="767.4" type="curve"/>
      <point x="441.6" y="767.4" type="line"/>
      <point x="443.20000000000005" y="1032.8"/>
      <point x="531.4" y="1203.6"/>
      <point x="713.6" y="1203.6" type="curve" smooth="yes"/>
      <point x="813.0" y="1203.6"/>
      <point x="892.0" y="1153.4"/>
      <point x="913.0" y="1058.6" type="curve"/>
      <point x="1267.0" y="1058.6" type="line"/>
      <point x="1239.6" y="1308.8"/>
      <point x="1026.8" y="1510.0"/>
      <point x="713.6" y="1510.0" type="curve" smooth="yes"/>
      <point x="334.6" y="1510.0"/>
      <point x="87.8" y="1210.6"/>
      <point x="87.0" y="719.0" type="curve" smooth="yes"/>
      <point x="85.4" y="176.0"/>
      <point x="380.0" y="-19.4"/>
    </contour>
    <contour>
      <point x="705.0" y="256.0" type="curve" smooth="yes"/>
      <point x="573.2" y="256.0"/>
      <point x="475.4" y="359.8"/>
      <point x="474.8" y="493.0" type="curve" smooth="yes"/>
      <point x="475.8" y="627.0"/>
      <point x="574.8" y="731.0"/>
      <point x="706.2" y="731.0" type="curve" smooth="yes"/>
      <point x="838.6" y="731.0"/>
      <point x="936.0" y="629.0"/>
      <point x="934.4" y="493.6" type="curve" smooth="yes"/>
      <point x="936.0" y="358.2"/>
      <point x="837.4" y="256.0"/>
    </contour>
  </outline>
</glyph>
<glyph name="seven" format="2">
  <advance height="2479.0" width="1234.6"/>
  <unicode hex="0037"/>
  <outline>
    <contour>
      <point x="173.0" y="0.0" type="line"/>
      <point x="543.6" y="0.0" type="line"/>
      <point x="1145.8" y="1197.8" type="line"/>
      <point x="1145.8" y="1489.0" type="line"/>
      <point x="71.0" y="1489.0" type="line"/>
      <point x="71.0" y="1199.4" type="line"/>
      <point x="774.2" y="1199.4" type="line"/>
      <point x="774.2" y="1190.0" type="line"/>
    </contour>
  </outline>
</glyph>
<glyph name="eight" format="2">
  <advance height="2479.0" width="1383.8"/>
  <unicode hex="0038"/>
  <outline>
    <contour>
      <point x="691.8" y="-20.0" type="curve" smooth="yes"/>
      <point x="1040.2" y="-20.0"/>
      <point x="1292.8" y="161.0"/>
      <point x="1293.0" y="402.4" type="curve" smooth="yes"/>
      <point x="1292.8" y="587.2"/>
      <point x="1143.6" y="737.6"/>
      <point x="958.6" y="766.8" type="curve"/>
      <point x="958.6" y="778.2" type="line"/>
      <point x="1120.2" y="808.6"/>
      <point x="1237.8" y="942.4"/>
      <point x="1238.0" y="1106.8" type="curve" smooth="yes"/>
      <point x="1237.8" y="1338.6"/>
      <point x="1006.8" y="1510.0"/>
      <point x="691.8" y="1510.0" type="curve" smooth="yes"/>
      <point x="376.2" y="1510.0"/>
      <point x="145.4" y="1339.4"/>
      <point x="145.6" y="1106.8" type="curve" smooth="yes"/>
      <point x="145.4" y="943.2"/>
      <point x="260.6" y="808.6"/>
      <point x="425.0" y="778.2" type="curve"/>
      <point x="425.0" y="766.8" type="line"/>
      <point x="236.2" y="737.6"/>
      <point x="89.6" y="587.2"/>
      <point x="89.8" y="402.4" type="curve" smooth="yes"/>
      <point x="89.6" y="161.0"/>
      <point x="343.0" y="-20.0"/>
    </contour>
    <contour>
      <point x="691.8" y="235.2" type="curve" smooth="yes"/>
      <point x="559.8" y="235.2"/>
      <point x="467.4" y="317.6"/>
      <point x="467.8" y="432.0" type="curve" smooth="yes"/>
      <point x="467.4" y="548.8"/>
      <point x="562.4" y="632.0"/>
      <point x="691.8" y="632.0" type="curve" smooth="yes"/>
      <point x="820.8" y="632.0"/>
      <point x="915.8" y="548.0"/>
      <point x="916.0" y="432.0" type="curve" smooth="yes"/>
      <point x="915.8" y="316.8"/>
      <point x="823.4" y="235.2"/>
    </contour>
    <contour>
      <point x="691.8" y="886.2" type="curve" smooth="yes"/>
      <point x="578.4" y="886.2"/>
      <point x="496.20000000000005" y="962.4"/>
      <point x="496.6" y="1067.8" type="curve" smooth="yes"/>
      <point x="496.20000000000005" y="1172.4"/>
      <point x="577.6" y="1245.8"/>
      <point x="691.8" y="1245.8" type="curve" smooth="yes"/>
      <point x="805.6" y="1245.8"/>
      <point x="886.0" y="1171.6"/>
      <point x="886.4" y="1067.8" type="curve" smooth="yes"/>
      <point x="886.0" y="961.6"/>
      <point x="804.6" y="886.2"/>
    </contour>
  </outline>
</glyph>
<glyph name="nine" format="2">
  <advance height="2479.0" width="1377.0"/>
  <unicode hex="0039"/>
  <outline>
    <contour>
      <point x="670.4" y="1510.0" type="curve" smooth="yes"/>
      <point x="326.8" y="1510.6"/>
      <point x="92.6" y="1294.8"/>
      <point x="93.4" y="986.4" type="curve" smooth="yes"/>
      <point x="95.0" y="712.8"/>
      <point x="281.4" y="513.2"/>
      <point x="547.8" y="513.2" type="curve" smooth="yes"/>
      <point x="714.6" y="513.2"/>
      <point x="864.8" y="593.0"/>
      <point x="926.0" y="727.2" type="curve"/>
      <point x="935.4" y="727.2" type="line"/>
      <point x="934.6" y="456.2"/>
      <point x="845.4" y="286.4"/>
      <point x="663.4" y="286.4" type="curve" smooth="yes"/>
      <point x="563.2" y="286.4"/>
      <point x="485.6" y="336.6"/>
      <point x="464.0" y="435.8" type="curve"/>
      <point x="110.19999999999999" y="435.8" type="line"/>
      <point x="137.0" y="179.2"/>
      <point x="349.4" y="-20.0"/>
      <point x="663.4" y="-20.0" type="curve" smooth="yes"/>
      <point x="1043.2" y="-20.0"/>
      <point x="1291.6" y="278.4"/>
      <point x="1290.8" y="775.6" type="curve" smooth="yes"/>
      <point x="1289.2" y="1313.0"/>
      <point x="997.0" y="1509.4"/>
    </contour>
    <contour>
      <point x="672.8" y="1233.2" type="curve" smooth="yes"/>
      <point x="803.8" y="1233.2"/>
      <point x="901.4" y="1129.2"/>
      <point x="902.2" y="999.0" type="curve" smooth="yes"/>
      <point x="903.8" y="868.4"/>
      <point x="802.0" y="763.6"/>
      <point x="671.8" y="763.6" type="curve" smooth="yes"/>
      <point x="538.2" y="763.6"/>
      <point x="444.20000000000005" y="866.0"/>
      <point x="442.6" y="998.4" type="curve" smooth="yes"/>
      <point x="441.8" y="1131.0"/>
      <point x="539.4" y="1233.2"/>
    </contour>
  </outline>
</glyph>
<glyph name="less" format="2">
  <advance height="2479.0" width="1406.0"/>
  <unicode hex="003C"/>
  <outline>
    <contour>
      <point x="176.6" y="449.6" type="line"/>
      <point x="1229.4" y="7.0" type="line"/>
      <point x="1229.4" y="337.8" type="line"/>
      <point x="533.8" y="597.4" type="line"/>
      <point x="544.6" y="581.4" type="line"/>
      <point x="544.6" y="619.2" type="line"/>
      <point x="533.8" y="603.4" type="line"/>
      <point x="1229.4" y="863.8" type="line"/>
      <point x="1229.4" y="1193.8" type="line"/>
      <point x="176.6" y="752.0" type="line"/>
    </contour>
  </outline>
</glyph>
<glyph name="equal" format="2">
  <advance height="2479.0" width="1406.0"/>
  <unicode hex="003D"/>
  <outline>
    <contour>
      <point x="183.0" y="704.6" type="line"/>
      <point x="1223.0" y="704.6" type="line"/>
      <point x="1223.0" y="996.8" type="line"/>
      <point x="183.0" y="996.8" type="line"/>
    </contour>
    <contour>
      <point x="183.0" y="204.0" type="line"/>
      <point x="1223.0" y="204.0" type="line"/>
      <point x="1223.0" y="496.2" type="line"/>
      <point x="183.0" y="496.2" type="line"/>
    </contour>
  </outline>
</glyph>
<glyph name="greater" format="2">
  <advance height="2479.0" width="1406.0"/>
  <unicode hex="003E"/>
  <outline>
    <contour>
      <point x="1229.4" y="449.6" type="line"/>
      <point x="1229.4" y="752.0" type="line"/>
      <point x="176.6" y="1193.8" type="line"/>
      <point x="176.6" y="863.8" type="line"/>
      <point x="871.4" y="603.4" type="line"/>
      <point x="861.4" y="619.2" type="line"/>
      <point x="861.4" y="581.4" type="line"/>
      <point x="871.4" y="597.4" type="line"/>
      <point x="176.6" y="337.8" type="line"/>
      <point x="176.6" y="7.0" type="line"/>
    </contour>
  </outline>
</glyph>
<glyph name="question" format="2">
  <advance height="2479.0" width="1190.2"/>
  <unicode hex="003F"/>
  <outline>
    <contour>
      <point x="393.0" y="455.8" type="line"/>
      <point x="702.4" y="455.8" type="line"/>
      <point x="702.4" y="485.6" type="line" smooth="yes"/>
      <point x="703.0" y="614.4"/>
      <point x="755.4" y="676.6"/>
      <point x="865.8" y="742.2" type="curve" smooth="yes"/>
      <point x="1005.0" y="824.0"/>
      <point x="1097.0" y="929.6"/>
      <point x="1097.0" y="1103.4" type="curve" smooth="yes"/>
      <point x="1097.0" y="1367.2"/>
      <point x="879.8" y="1510.0"/>
      <point x="579.8" y="1510.0" type="curve" smooth="yes"/>
      <point x="306.2" y="1510.0"/>
      <point x="81.6" y="1373.6"/>
      <point x="77.0" y="1068.2" type="curve"/>
      <point x="411.4" y="1068.2" type="line"/>
      <point x="413.6" y="1169.8"/>
      <point x="491.2" y="1231.0"/>
      <point x="577.4" y="1231.0" type="curve" smooth="yes"/>
      <point x="663.2" y="1231.0"/>
      <point x="731.6" y="1172.8"/>
      <point x="731.6" y="1086.0" type="curve" smooth="yes"/>
      <point x="731.6" y="998.0"/>
      <point x="662.4" y="941.4"/>
      <point x="571.0" y="882.4" type="curve" smooth="yes"/>
      <point x="456.0" y="809.0"/>
      <point x="393.4" y="733.0"/>
      <point x="393.0" y="485.6" type="curve" smooth="yes"/>
    </contour>
    <component base="period" xOffset="240.8"/>
  </outline>
</glyph>
<glyph name="at" format="2">
  <advance height="2479.0" width="2175.4"/>
  <unicode hex="0040"/>
  <outline>
    <contour>
      <point x="1127.0" y="-441.8" type="curve" smooth="yes"/>
      <point x="1353.6" y="-441.8"/>
      <point x="1561.0" y="-390.6"/>
      <point x="1652.6" y="-334.2" type="curve"/>
      <point x="1570.0" y="-98.6" type="line"/>
      <point x="1483.6" y="-134.2"/>
      <point x="1317.0" y="-171.39999999999998"/>
      <point x="1146.6" y="-171.39999999999998" type="curve" smooth="yes"/>
      <point x="680.8" y="-171.39999999999998"/>
      <point x="425.4" y="70.0"/>
      <point x="423.8" y="518.6" type="curve" smooth="yes"/>
      <point x="425.4" y="911.0"/>
      <point x="651.4" y="1232.2"/>
      <point x="1144.4" y="1232.2" type="curve" smooth="yes"/>
      <point x="1457.0" y="1232.2"/>
      <point x="1817.4" y="1118.4"/>
      <point x="1815.8" y="618.0" type="curve" smooth="yes"/>
      <point x="1817.4" y="349.2"/>
      <point x="1759.2" y="226.0"/>
      <point x="1674.4" y="226.0" type="curve" smooth="yes"/>
      <point x="1636.8" y="226.0"/>
      <point x="1611.6" y="252.6"/>
      <point x="1610.8" y="315.2" type="curve" smooth="yes"/>
      <point x="1610.8" y="1042.6" type="line"/>
      <point x="1358.4" y="1042.6" type="line"/>
      <point x="1358.4" y="960.8" type="line"/>
      <point x="1347.8" y="960.8" type="line"/>
      <point x="1321.4" y="1024.8"/>
      <point x="1154.6" y="1087.0"/>
      <point x="984.8" y="1058.6" type="curve" smooth="yes"/>
      <point x="797.8" y="1028.2"/>
      <point x="573.6" y="876.2"/>
      <point x="572.8" y="514.2" type="curve" smooth="yes"/>
      <point x="573.6" y="149.39999999999998"/>
      <point x="791.0" y="-13.800000000000004"/>
      <point x="1012.8" y="-27.60000000000001" type="curve" smooth="yes"/>
      <point x="1177.0" y="-37.60000000000001"/>
      <point x="1345.8" y="27.39999999999999"/>
      <point x="1379.2" y="116.39999999999999" type="curve"/>
      <point x="1388.0" y="116.39999999999999" type="line"/>
      <point x="1404.4" y="24.199999999999996"/>
      <point x="1440.6" y="-52.60000000000001"/>
      <point x="1632.2" y="-35.8" type="curve" smooth="yes"/>
      <point x="1948.2" y="-12.600000000000001"/>
      <point x="2098.8" y="213.79999999999998"/>
      <point x="2097.2" y="596.6" type="curve" smooth="yes"/>
      <point x="2098.8" y="1153.0"/>
      <point x="1735.8" y="1499.6"/>
      <point x="1146.2" y="1499.6" type="curve" smooth="yes"/>
      <point x="499.4" y="1499.6"/>
      <point x="132.6" y="1096.4"/>
      <point x="131.8" y="505.4" type="curve" smooth="yes"/>
      <point x="132.6" y="-91.4"/>
      <point x="499.6" y="-441.8"/>
    </contour>
    <contour>
      <point x="1110.2" y="242.0" type="curve" smooth="yes"/>
      <point x="919.6" y="242.0"/>
      <point x="857.4" y="378.8"/>
      <point x="856.6" y="523.2" type="curve" smooth="yes"/>
      <point x="857.4" y="687.4"/>
      <point x="947.0" y="783.6"/>
      <point x="1106.6" y="783.6" type="curve" smooth="yes"/>
      <point x="1294.2" y="783.6"/>
      <point x="1336.0" y="676.8"/>
      <point x="1336.8" y="525.6" type="curve" smooth="yes"/>
      <point x="1340.8" y="342.2"/>
      <point x="1282.8" y="242.0"/>
    </contour>
  </outline>
</glyph>
<glyph name="A" format="2">
  <advance height="2479.0" width="1580.2"/>
  <unicode hex="0041"/>
  <anchor x="790.4" y="0.0" name="bottom"/>
  <anchor x="1532.8" y="0.0" name="ogonek"/>
  <anchor x="467.0" y="1489.0" name="tonos"/>
  <anchor x="790.4" y="1676.0" name="top"/>
  <outline>
    <contour>
      <point x="434.6" y="0.0" type="line"/>
      <point x="784.6" y="1114.0" type="line"/>
      <point x="795.6" y="1114.0" type="line"/>
      <point x="1145.4" y="0.0" type="line"/>
      <point x="1532.8" y="0.0" type="line"/>
      <point x="1029.8" y="1489.0" type="line"/>
      <point x="550.2" y="1489.0" type="line"/>
      <point x="48.0" y="0.0" type="line"/>
    </contour>
    <contour>
      <point x="383.0" y="586.8" type="line"/>
      <point x="383.0" y="312.4" type="line"/>
      <point x="1192.2" y="312.4" type="line"/>
      <point x="1192.2" y="586.8" type="line"/>
    </contour>
  </outline>
</glyph>
<glyph name="B" format="2">
  <advance height="2479.0" width="1360.0"/>
  <unicode hex="0042"/>
  <anchor x="659.6" y="0.0" name="bottom"/>
  <anchor x="660.2" y="1676.0" name="top"/>
  <outline>
    <contour>
      <point x="112.8" y="0.0" type="line"/>
      <point x="781.4" y="0.0" type="line" smooth="yes"/>
      <point x="1111.0" y="0.0"/>
      <point x="1300.0" y="176.0"/>
      <point x="1300.0" y="416.8" type="curve" smooth="yes"/>
      <point x="1300.0" y="631.8"/>
      <point x="1143.4" y="767.0"/>
      <point x="963.2" y="775.2" type="curve"/>
      <point x="963.2" y="789.4" type="line"/>
      <point x="1126.4" y="823.4"/>
      <point x="1242.0" y="942.8"/>
      <point x="1242.0" y="1112.4" type="curve" smooth="yes"/>
      <point x="1242.0" y="1337.6"/>
      <point x="1068.0" y="1489.0"/>
      <point x="733.8" y="1489.0" type="curve" smooth="yes"/>
      <point x="112.8" y="1489.0" type="line"/>
    </contour>
    <contour>
      <point x="472.2" y="290.4" type="line"/>
      <point x="472.2" y="645.2" type="line"/>
      <point x="701.4" y="645.2" type="line" smooth="yes"/>
      <point x="838.8" y="645.2"/>
      <point x="923.2" y="572.6"/>
      <point x="923.2" y="458.4" type="curve" smooth="yes"/>
      <point x="923.2" y="353.0"/>
      <point x="850.8" y="290.4"/>
      <point x="695.0" y="290.4" type="curve" smooth="yes"/>
    </contour>
    <contour>
      <point x="472.2" y="876.6" type="line"/>
      <point x="472.2" y="1203.4" type="line"/>
      <point x="677.8" y="1203.4" type="line" smooth="yes"/>
      <point x="797.4" y="1203.4"/>
      <point x="874.8" y="1141.8"/>
      <point x="874.8" y="1042.8" type="curve" smooth="yes"/>
      <point x="874.8" y="937.8"/>
      <point x="789.2" y="876.6"/>
      <point x="671.8" y="876.6" type="curve" smooth="yes"/>
    </contour>
  </outline>
</glyph>
<glyph name="C" format="2">
  <advance height="2479.0" width="1557.0"/>
  <unicode hex="0043"/>
  <anchor x="796.0" y="2.4000000000000004" name="cedilla"/>
  <anchor x="803.2" y="1676.0" name="top"/>
  <outline>
    <contour>
      <point x="1465.4" y="949.6" type="line"/>
      <point x="1428.8" y="1305.8"/>
      <point x="1163.0" y="1510.0"/>
      <point x="803.2" y="1510.0" type="curve" smooth="yes"/>
      <point x="405.4" y="1510.0"/>
      <point x="96.4" y="1236.8"/>
      <point x="96.4" y="745.0" type="curve"/>
      <point x="96.4" y="253.8"/>
      <point x="399.0" y="-20.0"/>
      <point x="803.2" y="-20.0" type="curve" smooth="yes"/>
      <point x="1211.8" y="-20.0"/>
      <point x="1437.6" y="257.6"/>
      <point x="1465.4" y="521.0" type="curve"/>
      <point x="1100.6" y="523.4" type="line"/>
      <point x="1075.8" y="380.6"/>
      <point x="968.2" y="295.20000000000005"/>
      <point x="809.6" y="295.20000000000005" type="curve" smooth="yes"/>
      <point x="597.8" y="295.20000000000005"/>
      <point x="464.20000000000005" y="448.4"/>
      <point x="464.20000000000005" y="745.0" type="curve"/>
      <point x="464.20000000000005" y="1029.6"/>
      <point x="595.4" y="1194.6"/>
      <point x="812.0" y="1194.6" type="curve" smooth="yes"/>
      <point x="976.2" y="1194.6"/>
      <point x="1083.0" y="1099.0"/>
      <point x="1100.6" y="949.6" type="curve"/>
    </contour>
  </outline>
</glyph>
<glyph name="D" format="2">
  <advance height="2479.0" width="1495.2"/>
  <unicode hex="0044"/>
  <anchor x="664.6" y="0.0" name="bottom"/>
  <anchor x="291.8" y="784.0" name="cross"/>
  <anchor x="597.8" y="1676.0" name="top"/>
  <outline>
    <contour>
      <point x="663.2" y="0.0" type="line" smooth="yes"/>
      <point x="1117.2" y="0.0"/>
      <point x="1398.8" y="279.6"/>
      <point x="1398.8" y="745.6" type="curve" smooth="yes"/>
      <point x="1398.8" y="1210.0"/>
      <point x="1117.2" y="1489.0"/>
      <point x="662.4" y="1489.0" type="curve" smooth="yes"/>
      <point x="259.4" y="1489.0" type="line"/>
      <point x="259.4" y="1182.6" type="line"/>
      <point x="644.2" y="1182.6" type="line" smooth="yes"/>
      <point x="900.4" y="1182.6"/>
      <point x="1038.2" y="1066.4"/>
      <point x="1038.2" y="745.6" type="curve" smooth="yes"/>
      <point x="1038.2" y="423.2"/>
      <point x="900.4" y="306.4"/>
      <point x="649.6" y="306.4" type="curve" smooth="yes"/>
      <point x="266.0" y="306.4" type="line"/>
      <point x="266.0" y="0.0" type="line"/>
    </contour>
    <contour>
      <point x="472.2" y="1489.0" type="line"/>
      <point x="112.8" y="1489.0" type="line"/>
      <point x="112.8" y="0.0" type="line"/>
      <point x="472.2" y="0.0" type="line"/>
    </contour>
  </outline>
</glyph>
<glyph name="E" format="2">
  <advance height="2479.0" width="1264.2"/>
  <unicode hex="0045"/>
  <anchor x="632.4" y="0.0" name="bottom"/>
  <anchor x="635.4" y="0.0" name="cedilla"/>
  <anchor x="1151.8" y="0.0" name="ogonek"/>
  <anchor x="70.8" y="1489.0" name="tonos"/>
  <anchor x="635.2" y="1676.0" name="top"/>
  <outline>
    <contour>
      <point x="112.8" y="0.0" type="line"/>
      <point x="1151.8" y="0.0" type="line"/>
      <point x="1151.8" y="292.8" type="line"/>
      <point x="472.2" y="292.8" type="line"/>
      <point x="472.2" y="598.8" type="line"/>
      <point x="1097.8" y="598.8" type="line"/>
      <point x="1097.8" y="891.6" type="line"/>
      <point x="472.2" y="891.6" type="line"/>
      <point x="472.2" y="1197.0" type="line"/>
      <point x="1151.0" y="1197.0" type="line"/>
      <point x="1151.0" y="1489.0" type="line"/>
      <point x="112.8" y="1489.0" type="line"/>
    </contour>
  </outline>
</glyph>
<glyph name="F" format="2">
  <advance height="2479.0" width="1197.0"/>
  <unicode hex="0046"/>
  <anchor x="626.2" y="12.0" name="bottom"/>
  <anchor x="291.8" y="269.8" name="cross"/>
  <anchor x="627.6" y="1676.0" name="top"/>
  <outline>
    <contour>
      <point x="112.8" y="0.0" type="line"/>
      <point x="472.2" y="0.0" type="line"/>
      <point x="472.2" y="598.8" type="line"/>
      <point x="1064.6" y="598.8" type="line"/>
      <point x="1064.6" y="891.6" type="line"/>
      <point x="472.2" y="891.6" type="line"/>
      <point x="472.2" y="1197.0" type="line"/>
      <point x="1129.0" y="1197.0" type="line"/>
      <point x="1129.0" y="1489.0" type="line"/>
      <point x="112.8" y="1489.0" type="line"/>
    </contour>
  </outline>
</glyph>
<glyph name="G" format="2">
  <advance height="2479.0" width="1570.6"/>
  <unicode hex="0047"/>
  <anchor x="796.6" y="4.800000000000001" name="bottom"/>
  <anchor x="799.6" y="1676.0" name="top"/>
  <outline>
    <contour>
      <point x="1090.2" y="1003.2" type="curve"/>
      <point x="1454.6" y="1003.2" type="line"/>
      <point x="1418.6" y="1300.0"/>
      <point x="1152.8" y="1510.0"/>
      <point x="808.4" y="1510.0" type="curve" smooth="yes"/>
      <point x="411.2" y="1510.0"/>
      <point x="96.4" y="1229.6"/>
      <point x="96.4" y="742.6" type="curve" smooth="yes"/>
      <point x="96.4" y="271.4"/>
      <point x="386.0" y="-20.0"/>
      <point x="813.0" y="-20.0" type="curve" smooth="yes"/>
      <point x="1196.0" y="-20.0"/>
      <point x="1469.8" y="217.6"/>
      <point x="1469.8" y="617.0" type="curve" smooth="yes"/>
      <point x="1469.8" y="814.6" type="line"/>
      <point x="828.4" y="814.6" type="line"/>
      <point x="828.4" y="552.2" type="line"/>
      <point x="1190.0" y="552.2" type="line"/>
      <point x="1123.8" y="560.0" type="line"/>
      <point x="1123.8" y="398.0"/>
      <point x="1014.6" y="295.20000000000005"/>
      <point x="815.4" y="295.20000000000005" type="curve" smooth="yes"/>
      <point x="593.0" y="295.20000000000005"/>
      <point x="464.20000000000005" y="460.4"/>
      <point x="464.20000000000005" y="747.4" type="curve" smooth="yes"/>
      <point x="464.20000000000005" y="1031.2"/>
      <point x="600.2" y="1194.6"/>
      <point x="815.6" y="1194.6" type="curve" smooth="yes"/>
      <point x="960.2" y="1194.6"/>
      <point x="1058.2" y="1124.0"/>
    </contour>
  </outline>
</glyph>
<glyph name="H" format="2">
  <advance height="2479.0" width="1532.0"/>
  <unicode hex="0048"/>
  <anchor x="765.6" y="0.0" name="bottom"/>
  <anchor x="289.2" y="-0.5999999999999996" name="cedilla"/>
  <anchor x="1586.0" y="143.2" name="cyrtic"/>
  <anchor x="1419.0" y="0.0" name="right"/>
  <anchor x="77.8" y="1489.0" name="tonos"/>
  <anchor x="767.4" y="1676.6" name="top"/>
  <outline>
    <contour>
      <point x="112.8" y="0.0" type="line"/>
      <point x="472.2" y="0.0" type="line"/>
      <point x="472.2" y="598.8" type="line"/>
      <point x="1059.8" y="598.8" type="line"/>
      <point x="1059.8" y="0.0" type="line"/>
      <point x="1419.0" y="0.0" type="line"/>
      <point x="1419.0" y="1489.0" type="line"/>
      <point x="1059.8" y="1489.0" type="line"/>
      <point x="1059.8" y="891.6" type="line"/>
      <point x="472.2" y="891.6" type="line"/>
      <point x="472.2" y="1489.0" type="line"/>
      <point x="112.8" y="1489.0" type="line"/>
    </contour>
  </outline>
</glyph>
<glyph name="J" format="2">
  <advance height="2479.0" width="1185.6"/>
  <unicode hex="004A"/>
  <anchor x="892.2" y="884.0" name="cross"/>
  <anchor x="894.6" y="1676.0" name="top"/>
  <outline>
    <contour>
      <point x="718.2" y="1489.0" type="line"/>
      <point x="718.2" y="459.4" type="line"/>
      <point x="716.6" y="330.2"/>
      <point x="660.4" y="263.2"/>
      <point x="557.2" y="263.2" type="curve" smooth="yes"/>
      <point x="457.6" y="263.2"/>
      <point x="398.0" y="327.0"/>
      <point x="394.8" y="441.8" type="curve"/>
      <point x="35.199999999999996" y="441.8" type="line"/>
      <point x="34.4" y="121.6"/>
      <point x="258.0" y="-20.0"/>
      <point x="536.4" y="-20.0" type="curve" smooth="yes"/>
      <point x="852.2" y="-20.0"/>
      <point x="1071.8" y="169.4"/>
      <point x="1072.6" y="459.4" type="curve"/>
      <point x="1072.6" y="1489.0" type="line"/>
    </contour>
  </outline>
</glyph>
<glyph name="K" format="2">
  <advance height="2479.0" width="1437.4"/>
  <unicode hex="004B"/>
  <anchor x="710.6" y="2.4000000000000004" name="bottom"/>
  <anchor x="714.2" y="1676.0" name="top"/>
  <outline>
    <contour>
      <point x="112.8" y="0.0" type="line"/>
      <point x="472.2" y="0.0" type="line"/>
      <point x="472.2" y="403.8" type="line"/>
      <point x="616.6" y="585.6" type="line"/>
      <point x="988.2" y="0.0" type="line"/>
      <point x="1418.2" y="0.0" type="line"/>
      <point x="881.0" y="824.2" type="line"/>
      <point x="1408.6" y="1489.0" type="line"/>
      <point x="984.6" y="1489.0" type="line"/>
      <point x="492.4" y="859.8" type="line"/>
      <point x="472.2" y="859.8" type="line"/>
      <point x="472.2" y="1489.0" type="line"/>
      <point x="112.8" y="1489.0" type="line"/>
    </contour>
  </outline>
</glyph>
<glyph name="L" format="2">
  <advance height="2479.0" width="1165.6"/>
  <unicode hex="004C"/>
  <anchor x="602.6" y="0.0" name="bottom"/>
  <anchor x="291.8" y="784.0" name="cross"/>
  <anchor x="605.0" y="857.2" name="dot"/>
  <anchor x="686.0" y="1489.0" name="raccent"/>
  <anchor x="289.4" y="1676.0" name="top"/>
  <outline>
    <contour>
      <point x="112.8" y="0.0" type="line"/>
      <point x="1093.0" y="0.0" type="line"/>
      <point x="1093.0" y="292.8" type="line"/>
      <point x="472.2" y="292.8" type="line"/>
      <point x="472.2" y="1489.0" type="line"/>
      <point x="112.8" y="1489.0" type="line"/>
    </contour>
  </outline>
</glyph>
<glyph name="M" format="2">
  <advance height="2479.0" width="1890.8"/>
  <unicode hex="004D"/>
  <anchor x="945.4" y="0.0" name="bottom"/>
  <anchor x="1777.8" y="0.0" name="right"/>
  <anchor x="945.4" y="1676.0" name="top"/>
  <outline>
    <contour>
      <point x="112.8" y="1489.0" type="line"/>
      <point x="112.8" y="0.0" type="line"/>
      <point x="463.4" y="0.0" type="line"/>
      <point x="463.4" y="920.0" type="line"/>
      <point x="475.2" y="920.0" type="line"/>
      <point x="833.8" y="0.0" type="line"/>
      <point x="1056.8" y="0.0" type="line"/>
      <point x="1415.4" y="915.2" type="line"/>
      <point x="1428.0" y="915.2" type="line"/>
      <point x="1428.0" y="0.0" type="line"/>
      <point x="1777.8" y="0.0" type="line"/>
      <point x="1777.8" y="1489.0" type="line"/>
      <point x="1332.2" y="1489.0" type="line"/>
      <point x="954.2" y="567.4000000000001" type="line"/>
      <point x="936.4" y="567.4000000000001" type="line"/>
      <point x="558.4" y="1489.0" type="line"/>
    </contour>
  </outline>
</glyph>
<glyph name="N" format="2">
  <advance height="2479.0" width="1493.2"/>
  <unicode hex="004E"/>
  <anchor x="747.8" y="0.0" name="bottom"/>
  <anchor x="1435.8" y="0.0" name="right"/>
  <anchor x="747.8" y="1676.0" name="top"/>
  <outline>
    <contour>
      <point x="1380.2" y="1489.0" type="line"/>
      <point x="1020.8" y="1489.0" type="line"/>
      <point x="1020.8" y="631.4000000000001" type="line"/>
      <point x="1009.0" y="631.4000000000001" type="line"/>
      <point x="422.2" y="1489.0" type="line"/>
      <point x="112.8" y="1489.0" type="line"/>
      <point x="112.8" y="0.0" type="line"/>
      <point x="472.2" y="0.0" type="line"/>
      <point x="472.2" y="860.2" type="line"/>
      <point x="482.2" y="860.2" type="line"/>
      <point x="1075.0" y="0.0" type="line"/>
      <point x="1380.2" y="0.0" type="line"/>
    </contour>
  </outline>
</glyph>
<glyph name="O" format="2">
  <advance height="2479.0" width="1615.0"/>
  <unicode hex="004F"/>
  <anchor x="808.0" y="0.0" name="bottom"/>
  <anchor x="1001.2" y="3.6000000000000014" name="ogonek"/>
  <anchor x="177.2" y="1489.0" name="tonos"/>
  <anchor x="808.0" y="1676.0" name="top"/>
  <outline>
    <contour>
      <point x="1518.6" y="745.0" type="curve"/>
      <point x="1518.6" y="1236.8"/>
      <point x="1207.4" y="1510.0"/>
      <point x="808.0" y="1510.0" type="curve" smooth="yes"/>
      <point x="405.4" y="1510.0"/>
      <point x="96.4" y="1236.8"/>
      <point x="96.4" y="745.0" type="curve"/>
      <point x="96.4" y="254.6"/>
      <point x="405.4" y="-20.0"/>
      <point x="808.0" y="-20.0" type="curve" smooth="yes"/>
      <point x="1207.4" y="-20.0"/>
      <point x="1518.6" y="252.2"/>
    </contour>
    <contour>
      <point x="1151.0" y="745.0" type="curve"/>
      <point x="1151.0" y="453.2"/>
      <point x="1022.0" y="295.20000000000005"/>
      <point x="808.0" y="295.20000000000005" type="curve" smooth="yes"/>
      <point x="593.0" y="295.20000000000005"/>
      <point x="464.20000000000005" y="453.2"/>
      <point x="464.20000000000005" y="745.0" type="curve"/>
      <point x="464.20000000000005" y="1036.0"/>
      <point x="593.0" y="1194.6"/>
      <point x="808.0" y="1194.6" type="curve" smooth="yes"/>
      <point x="1022.0" y="1194.6"/>
      <point x="1151.0" y="1036.0"/>
    </contour>
  </outline>
</glyph>
<glyph name="P" format="2">
  <advance height="2479.0" width="1335.2"/>
  <unicode hex="0050"/>
  <anchor x="89.8" y="1489.0" name="tonos"/>
  <anchor x="655.4" y="1676.0" name="top"/>
  <outline>
    <contour>
      <point x="112.8" y="0.0" type="line"/>
      <point x="472.2" y="0.0" type="line"/>
      <point x="472.2" y="1199.4" type="line"/>
      <point x="650.0" y="1199.4" type="line" smooth="yes"/>
      <point x="812.0" y="1199.4"/>
      <point x="898.4" y="1112.2"/>
      <point x="898.4" y="974.0" type="curve" smooth="yes"/>
      <point x="898.4" y="836.6"/>
      <point x="812.0" y="745.6"/>
      <point x="650.6" y="745.6" type="curve" smooth="yes"/>
      <point x="337.2" y="745.6" type="line"/>
      <point x="337.2" y="462.4" type="line"/>
      <point x="716.6" y="462.4" type="line" smooth="yes"/>
      <point x="1057.8" y="462.4"/>
      <point x="1271.6" y="664.6"/>
      <point x="1271.6" y="974.0" type="curve" smooth="yes"/>
      <point x="1271.6" y="1280.2"/>
      <point x="1062.6" y="1489.0"/>
      <point x="728.0" y="1489.0" type="curve" smooth="yes"/>
      <point x="112.8" y="1489.0" type="line"/>
    </contour>
  </outline>
</glyph>
<glyph name="Q" format="2">
  <advance height="2479.0" width="1617.4"/>
  <unicode hex="0051"/>
  <anchor x="808.0" y="0.0" name="bottom"/>
  <anchor x="1001.2" y="3.6000000000000014" name="ogonek"/>
  <anchor x="177.2" y="1489.0" name="tonos"/>
  <anchor x="808.0" y="1676.0" name="top"/>
  <outline>
    <contour>
      <point x="681.8" y="535.4" type="line"/>
      <point x="904.6" y="241.2" type="line"/>
      <point x="1008.6" y="92.6" type="line"/>
      <point x="1182.8" y="-116.8" type="line"/>
      <point x="1508.8" y="-116.8" type="line"/>
      <point x="1259.4" y="191.4" type="line"/>
      <point x="1097.0" y="377.4" type="line"/>
      <point x="972.6" y="535.4" type="line"/>
    </contour>
    <component base="O"/>
  </outline>
</glyph>
<glyph name="R" format="2">
  <advance height="2479.0" width="1355.4"/>
  <unicode hex="0052"/>
  <anchor x="692.8" y="0.0" name="bottom"/>
  <anchor x="669.2" y="1676.0" name="top"/>
  <outline>
    <contour>
      <point x="112.8" y="0.0" type="line"/>
      <point x="472.2" y="0.0" type="line"/>
      <point x="472.2" y="1199.4" type="line"/>
      <point x="650.0" y="1199.4" type="line" smooth="yes"/>
      <point x="811.8" y="1199.4"/>
      <point x="898.4" y="1131.2"/>
      <point x="898.4" y="993.0" type="curve" smooth="yes"/>
      <point x="898.4" y="855.6"/>
      <point x="811.8" y="793.8"/>
      <point x="650.6" y="793.8" type="curve" smooth="yes"/>
      <point x="327.8" y="793.8" type="line"/>
      <point x="327.8" y="510.0" type="line"/>
      <point x="716.6" y="510.0" type="line" smooth="yes"/>
      <point x="1057.8" y="510.0"/>
      <point x="1271.6" y="684.2"/>
      <point x="1271.6" y="993.0" type="curve" smooth="yes"/>
      <point x="1271.6" y="1299.2"/>
      <point x="1062.6" y="1489.0"/>
      <point x="728.0" y="1489.0" type="curve" smooth="yes"/>
      <point x="112.8" y="1489.0" type="line"/>
    </contour>
    <contour>
      <point x="951.4" y="681.0" type="line"/>
      <point x="566.0" y="681.0" type="line"/>
      <point x="929.4" y="0.0" type="line"/>
      <point x="1322.4" y="0.0" type="line"/>
    </contour>
  </outline>
</glyph>
<glyph name="S" format="2">
  <advance height="2479.0" width="1352.4"/>
  <unicode hex="0053"/>
  <anchor x="682.2" y="-5.199999999999999" name="bottom"/>
  <anchor x="680.6" y="0.0" name="cedilla"/>
  <anchor x="677.6" y="1676.0" name="top"/>
  <outline>
    <contour>
      <point x="918.2" y="1042.6" type="curve"/>
      <point x="1262.6" y="1042.6" type="line"/>
      <point x="1259.4" y="1321.2"/>
      <point x="1038.0" y="1510.0"/>
      <point x="691.6" y="1510.0" type="curve" smooth="yes"/>
      <point x="351.4" y="1510.0"/>
      <point x="106.6" y="1324.0"/>
      <point x="108.19999999999999" y="1047.6" type="curve" smooth="yes"/>
      <point x="107.4" y="821.0"/>
      <point x="266.2" y="693.2"/>
      <point x="523.8" y="635.0" type="curve" smooth="yes"/>
      <point x="679.0" y="599.0" type="line" smooth="yes"/>
      <point x="843.2" y="560.6"/>
      <point x="916.6" y="516.8"/>
      <point x="917.4" y="432.6" type="curve" smooth="yes"/>
      <point x="916.6" y="341.6"/>
      <point x="831.6" y="278.6"/>
      <point x="686.4" y="278.6" type="curve" smooth="yes"/>
      <point x="526.8" y="278.6"/>
      <point x="422.6" y="352.6"/>
      <point x="414.2" y="496.0" type="curve"/>
      <point x="69.6" y="496.0" type="line"/>
      <point x="74.8" y="148.0"/>
      <point x="316.8" y="-18.8"/>
      <point x="691.2" y="-18.8" type="curve" smooth="yes"/>
      <point x="1062.2" y="-18.8"/>
      <point x="1282.0" y="148.6"/>
      <point x="1282.8" y="432.0" type="curve" smooth="yes"/>
      <point x="1282.0" y="669.6"/>
      <point x="1120.2" y="814.8"/>
      <point x="827.0" y="879.8" type="curve" smooth="yes"/>
      <point x="699.2" y="908.6" type="line" smooth="yes"/>
      <point x="563.4" y="938.4"/>
      <point x="477.6" y="983.0"/>
      <point x="480.8" y="1072.6" type="curve" smooth="yes"/>
      <point x="481.6" y="1153.0"/>
      <point x="551.0" y="1212.4"/>
      <point x="690.4" y="1212.4" type="curve" smooth="yes"/>
      <point x="831.4" y="1212.4"/>
      <point x="908.2" y="1149.6"/>
    </contour>
  </outline>
</glyph>
<glyph name="T" format="2">
  <advance height="2479.0" width="1387.0"/>
  <unicode hex="0054"/>
  <anchor x="692.2" y="0.0" name="bottom"/>
  <anchor x="692.2" y="0.0" name="cedilla"/>
  <anchor x="692.2" y="686.4" name="cross"/>
  <anchor x="1026.6" y="143.2" name="cyrtic"/>
  <anchor x="823.6" y="0.0" name="right"/>
  <anchor x="694.6" y="1676.0" name="top"/>
  <outline>
    <contour>
      <point x="63.8" y="1197.0" type="line"/>
      <point x="515.8" y="1197.0" type="line"/>
      <point x="515.8" y="0.0" type="line"/>
      <point x="871.2" y="0.0" type="line"/>
      <point x="871.2" y="1197.0" type="line"/>
      <point x="1323.2" y="1197.0" type="line"/>
      <point x="1323.2" y="1489.0" type="line"/>
      <point x="63.8" y="1489.0" type="line"/>
    </contour>
  </outline>
</glyph>
<glyph name="U" format="2">
  <advance height="2479.0" width="1486.2"/>
  <unicode hex="0055"/>
  <anchor x="743.0" y="3.200000000000003" name="bottom"/>
  <anchor x="948.4" y="8.0" name="ogonek"/>
  <anchor x="862.4" y="0.0" name="right"/>
  <anchor x="743.0" y="1676.0" name="top"/>
  <outline>
    <contour>
      <point x="1013.2" y="1489.0" type="line"/>
      <point x="1013.2" y="559.6" type="line" smooth="yes"/>
      <point x="1013.2" y="404.8"/>
      <point x="904.0" y="294.20000000000005"/>
      <point x="743.0" y="294.20000000000005" type="curve" smooth="yes"/>
      <point x="582.2" y="294.20000000000005"/>
      <point x="472.2" y="404.8"/>
      <point x="472.2" y="559.6" type="curve" smooth="yes"/>
      <point x="472.2" y="1489.0" type="line"/>
      <point x="112.8" y="1489.0" type="line"/>
      <point x="112.8" y="528.6" type="line" smooth="yes"/>
      <point x="112.8" y="195.6"/>
      <point x="364.2" y="-18.8"/>
      <point x="743.0" y="-18.8" type="curve" smooth="yes"/>
      <point x="1118.8" y="-18.8"/>
      <point x="1373.2" y="195.6"/>
      <point x="1373.2" y="528.6" type="curve" smooth="yes"/>
      <point x="1373.2" y="1489.0" type="line"/>
    </contour>
  </outline>
</glyph>
<glyph name="V" format="2">
  <advance height="2479.0" width="1580.2"/>
  <unicode hex="0056"/>
  <anchor x="790.4" y="0.0" name="bottom"/>
  <anchor x="790.4" y="1676.0" name="top"/>
  <outline>
    <contour>
      <point x="450.6" y="1489.0" type="line"/>
      <point x="48.0" y="1489.0" type="line"/>
      <point x="550.2" y="0.0" type="line"/>
      <point x="1029.8" y="0.0" type="line"/>
      <point x="1532.8" y="1489.0" type="line"/>
      <point x="1129.4" y="1489.0" type="line"/>
      <point x="796.2" y="398.4" type="line"/>
      <point x="784.0" y="398.4" type="line"/>
    </contour>
  </outline>
</glyph>
<glyph name="W" format="2">
  <advance height="2479.0" width="2173.4"/>
  <unicode hex="0057"/>
  <anchor x="1087.2" y="2.3999999999999986" name="bottom"/>
  <anchor x="1087.2" y="1676.0" name="top"/>
  <outline>
    <contour>
      <point x="466.2" y="0.0" type="line"/>
      <point x="813.0" y="0.0" type="line"/>
      <point x="1081.2" y="903.0" type="line"/>
      <point x="1093.0" y="903.0" type="line"/>
      <point x="1361.2" y="0.0" type="line"/>
      <point x="1708.0" y="0.0" type="line"/>
      <point x="2140.8" y="1489.0" type="line"/>
      <point x="1743.2" y="1489.0" type="line"/>
      <point x="1518.6" y="511.20000000000005" type="line"/>
      <point x="1506.2" y="511.20000000000005" type="line"/>
      <point x="1249.0" y="1489.0" type="line"/>
      <point x="925.2" y="1489.0" type="line"/>
      <point x="668.2" y="513.6" type="line"/>
      <point x="655.6" y="513.6" type="line"/>
      <point x="431.0" y="1489.0" type="line"/>
      <point x="33.6" y="1489.0" type="line"/>
    </contour>
  </outline>
</glyph>
<glyph name="X" format="2">
  <advance height="2479.0" width="1512.6"/>
  <unicode hex="0058"/>
  <anchor x="755.4" y="-2.4000000000000004" name="bottom"/>
  <anchor x="755.4" y="745.0" name="cross"/>
  <anchor x="1385.6" y="143.2" name="cyrtic"/>
  <anchor x="1259.4" y="0.0" name="right"/>
  <anchor x="755.4" y="1676.0" name="top"/>
  <outline>
    <contour>
      <point x="476.8" y="1489.0" type="line"/>
      <point x="71.8" y="1489.0" type="line"/>
      <point x="521.4" y="745.0" type="line"/>
      <point x="59.8" y="0.0" type="line"/>
      <point x="470.4" y="0.0" type="line"/>
      <point x="749.6" y="475.2" type="line"/>
      <point x="760.6" y="475.2" type="line"/>
      <point x="1040.6" y="0.0" type="line"/>
      <point x="1452.8" y="0.0" type="line"/>
      <point x="989.4" y="745.0" type="line"/>
      <point x="1439.2" y="1489.0" type="line"/>
      <point x="1035.8" y="1489.0" type="line"/>
      <point x="760.6" y="1018.8" type="line"/>
      <point x="749.6" y="1018.8" type="line"/>
    </contour>
  </outline>
</glyph>
<glyph name="Y" format="2">
  <advance height="2479.0" width="1524.2"/>
  <unicode hex="0059"/>
  <anchor x="762.6" y="0.0" name="bottom"/>
  <anchor x="762.6" y="563.4" name="cross"/>
  <anchor x="940.6" y="0.0" name="ogonek"/>
  <anchor x="-56.6" y="1489.0" name="tonos"/>
  <anchor x="762.6" y="1676.0" name="top"/>
  <outline>
    <contour>
      <point x="38.4" y="1489.0" type="line"/>
      <point x="583.8" y="497.2" type="line"/>
      <point x="583.8" y="0.0" type="line"/>
      <point x="940.6" y="0.0" type="line"/>
      <point x="940.6" y="497.2" type="line"/>
      <point x="1485.8" y="1489.0" type="line"/>
      <point x="1083.8" y="1489.0" type="line"/>
      <point x="768.2" y="866.0" type="line"/>
      <point x="756.0" y="866.0" type="line"/>
      <point x="440.6" y="1489.0" type="line"/>
    </contour>
  </outline>
</glyph>
<glyph name="Z" format="2">
  <advance height="2479.0" width="1394.4"/>
  <unicode hex="005A"/>
  <anchor x="697.2" y="0.0" name="bottom"/>
  <anchor x="724.6" y="784.0" name="cross"/>
  <anchor x="700.8" y="1676.0" name="top"/>
  <outline>
    <contour>
      <point x="107.8" y="0.0" type="line"/>
      <point x="1286.0" y="0.0" type="line"/>
      <point x="1286.0" y="292.8" type="line"/>
      <point x="562.8" y="292.8" type="line"/>
      <point x="1286.6" y="1283.8" type="line"/>
      <point x="1286.6" y="1489.0" type="line"/>
      <point x="108.4" y="1489.0" type="line"/>
      <point x="108.4" y="1197.0" type="line"/>
      <point x="831.6" y="1197.0" type="line"/>
      <point x="107.8" y="205.4" type="line"/>
    </contour>
  </outline>
</glyph>
<glyph name="bracketleft" format="2">
  <advance height="2479.0" width="870.0"/>
  <unicode hex="005B"/>
  <outline>
    <contour>
      <point x="209.0" y="-330.2" type="line"/>
      <point x="830.4" y="-330.2" type="line"/>
      <point x="830.4" y="-69.6" type="line"/>
      <point x="553.6" y="-69.6" type="line"/>
      <point x="553.6" y="1242.6" type="line"/>
      <point x="830.4" y="1242.6" type="line"/>
      <point x="830.4" y="1503.0" type="line"/>
      <point x="209.0" y="1503.0" type="line"/>
    </contour>
  </outline>
</glyph>
<glyph name="backslash" format="2">
  <advance height="2479.0" width="821.2"/>
  <unicode hex="005C"/>
  <outline>
    <contour>
      <point x="498.8" y="-224.0" type="line"/>
      <point x="802.2" y="-224.0" type="line"/>
      <point x="322.2" y="1559.0" type="line"/>
      <point x="18.799999999999997" y="1559.0" type="line"/>
    </contour>
  </outline>
</glyph>
<glyph name="asciicircum" format="2">
  <advance height="2479.0" width="1011.2"/>
  <unicode hex="005E"/>
  <outline>
    <contour>
      <point x="479.6" y="1317.0" type="line"/>
      <point x="479.6" y="1235.4" type="line"/>
      <point x="531.6" y="1235.4" type="line"/>
      <point x="531.6" y="1317.0" type="line"/>
    </contour>
    <contour>
      <point x="62.599999999999994" y="815.0" type="line"/>
      <point x="319.2" y="815.0" type="line"/>
      <point x="512.2" y="1264.4" type="line"/>
      <point x="499.0" y="1264.4" type="line"/>
      <point x="692.6" y="815.0" type="line"/>
      <point x="948.6" y="815.0" type="line"/>
      <point x="639.8" y="1461.4" type="line"/>
      <point x="371.4" y="1461.4" type="line"/>
    </contour>
  </outline>
</glyph>
<glyph name="underscore" format="2">
  <advance height="2479.0" width="992.2"/>
  <unicode hex="005F"/>
  <anchor x="496.8" y="131.4" name="_bottom"/>
  <outline>
    <contour>
      <point x="992.8" y="0.0" type="line"/>
      <point x="-0.5999999999999996" y="0.0" type="line"/>
      <point x="-0.5999999999999996" y="-260.0" type="line"/>
      <point x="992.8" y="-260.0" type="line"/>
    </contour>
  </outline>
</glyph>
<glyph name="grave" format="2">
  <advance height="2479.0" width="1018.0"/>
  <unicode hex="0060"/>
  <anchor x="617.6" y="1303.0" name="_top"/>
  <anchor x="612.8" y="1676.0" name="top"/>
  <outline>
    <contour>
      <point x="498.2" y="1259.2" type="line"/>
      <point x="740.4" y="1259.2" type="line"/>
      <point x="593.0" y="1587.6" type="line"/>
      <point x="278.4" y="1587.6" type="line"/>
    </contour>
  </outline>
</glyph>
<glyph name="a" format="2">
  <advance height="2479.0" width="1199.0"/>
  <unicode hex="0061"/>
  <anchor x="599.2" y="0.0" name="bottom"/>
  <anchor x="1095.6" y="0.0" name="ogonek"/>
  <anchor x="617.0" y="1303.0" name="rhalfring"/>
  <anchor x="612.8" y="1303.0" name="top"/>
  <outline>
    <contour>
      <point x="427.6" y="-23.4" type="curve" smooth="yes"/>
      <point x="583.4" y="-23.4"/>
      <point x="691.0" y="41.4"/>
      <point x="752.2" y="155.8" type="curve"/>
      <point x="761.2" y="155.8" type="line"/>
      <point x="761.2" y="0.0" type="line"/>
      <point x="1095.6" y="0.0" type="line"/>
      <point x="1095.6" y="759.2" type="line" smooth="yes"/>
      <point x="1095.6" y="995.8"/>
      <point x="884.6" y="1132.0"/>
      <point x="601.0" y="1132.0" type="curve" smooth="yes"/>
      <point x="300.0" y="1132.0"/>
      <point x="130.39999999999998" y="980.2"/>
      <point x="101.8" y="776.4" type="curve"/>
      <point x="430.4" y="764.8" type="line"/>
      <point x="445.0" y="837.0"/>
      <point x="503.8" y="880.0"/>
      <point x="597.4" y="880.0" type="curve" smooth="yes"/>
      <point x="684.8" y="880.0"/>
      <point x="740.4" y="837.8"/>
      <point x="740.4" y="762.6" type="curve" smooth="yes"/>
      <point x="740.4" y="759.2" type="line" smooth="yes"/>
      <point x="740.4" y="690.6"/>
      <point x="666.0" y="676.0"/>
      <point x="475.6" y="659.6" type="curve" smooth="yes"/>
      <point x="249.39999999999998" y="641.4"/>
      <point x="60.199999999999996" y="557.0"/>
      <point x="60.199999999999996" y="309.8" type="curve" smooth="yes"/>
      <point x="60.199999999999996" y="88.6"/>
      <point x="213.8" y="-23.4"/>
    </contour>
    <contour>
      <point x="537.6" y="209.8" type="curve" smooth="yes"/>
      <point x="455.8" y="209.8"/>
      <point x="397.6" y="253.0"/>
      <point x="397.6" y="327.2" type="curve" smooth="yes"/>
      <point x="397.6" y="399.0"/>
      <point x="453.6" y="442.4"/>
      <point x="554.6" y="457.8" type="curve" smooth="yes"/>
      <point x="620.4" y="467.6"/>
      <point x="702.6" y="482.2"/>
      <point x="742.0" y="503.4" type="curve"/>
      <point x="742.0" y="397.6" type="line" smooth="yes"/>
      <point x="742.0" y="288.2"/>
      <point x="651.2" y="209.8"/>
    </contour>
  </outline>
</glyph>
<glyph name="c" format="2">
  <advance height="2479.0" width="1222.2"/>
  <unicode hex="0063"/>
  <anchor x="635.4" y="0.0" name="cedilla"/>
  <anchor x="635.4" y="1303.0" name="top"/>
  <outline>
    <contour>
      <point x="634.2" y="-20.6" type="curve" smooth="yes"/>
      <point x="948.4" y="-20.6"/>
      <point x="1143.4" y="160.8"/>
      <point x="1152.4" y="437.2" type="curve"/>
      <point x="820.6" y="437.2" type="line"/>
      <point x="807.0" y="319.2"/>
      <point x="736.2" y="254.2"/>
      <point x="639.0" y="254.2" type="curve" smooth="yes"/>
      <point x="513.4" y="254.2"/>
      <point x="432.0" y="360.0"/>
      <point x="432.0" y="559.0" type="curve" smooth="yes"/>
      <point x="432.0" y="756.0"/>
      <point x="514.0" y="861.0"/>
      <point x="639.0" y="861.0" type="curve" smooth="yes"/>
      <point x="740.4" y="861.0"/>
      <point x="806.4" y="792.0"/>
      <point x="820.6" y="678.2" type="curve"/>
      <point x="1152.4" y="678.2" type="line"/>
      <point x="1145.0" y="952.8"/>
      <point x="944.0" y="1132.0"/>
      <point x="633.6" y="1132.0" type="curve" smooth="yes"/>
      <point x="281.8" y="1132.0"/>
      <point x="69.8" y="897.8"/>
      <point x="69.8" y="555.4" type="curve" smooth="yes"/>
      <point x="69.8" y="213.2"/>
      <point x="280.2" y="-20.6"/>
    </contour>
  </outline>
</glyph>
<glyph name="d" format="2">
  <advance height="2479.0" width="1311.2"/>
  <unicode hex="0064"/>
  <anchor x="651.0" y="0.0" name="bottom"/>
  <anchor x="1020.2" y="1280.0" name="cross"/>
  <anchor x="1319.4" y="1489.0" name="raccent"/>
  <anchor x="557.4" y="1489.0" name="top"/>
  <outline>
    <contour>
      <point x="520.6" y="-16.6" type="curve" smooth="yes"/>
      <point x="689.2" y="-16.6"/>
      <point x="790.2" y="78.19999999999999"/>
      <point x="834.6" y="180.8" type="curve"/>
      <point x="845.8" y="180.8" type="line"/>
      <point x="845.8" y="0.0" type="line"/>
      <point x="1198.2" y="0.0" type="line"/>
      <point x="1198.2" y="1489.0" type="line"/>
      <point x="842.2" y="1489.0" type="line"/>
      <point x="842.2" y="925.6" type="line"/>
      <point x="834.6" y="925.6" type="line"/>
      <point x="792.6" y="1028.4"/>
      <point x="695.2" y="1132.0"/>
      <point x="518.8" y="1132.0" type="curve" smooth="yes"/>
      <point x="285.6" y="1132.0"/>
      <point x="74.6" y="952.0"/>
      <point x="74.6" y="558.4" type="curve" smooth="yes"/>
      <point x="74.6" y="177.8"/>
      <point x="274.4" y="-16.6"/>
    </contour>
    <contour>
      <point x="644.4" y="261.4" type="curve" smooth="yes"/>
      <point x="512.6" y="261.4"/>
      <point x="439.20000000000005" y="378.4"/>
      <point x="439.20000000000005" y="559.0" type="curve" smooth="yes"/>
      <point x="439.20000000000005" y="738.0"/>
      <point x="512.0" y="853.8"/>
      <point x="644.4" y="853.8" type="curve" smooth="yes"/>
      <point x="774.4" y="853.8"/>
      <point x="850.0" y="741.0"/>
      <point x="850.0" y="559.0" type="curve" smooth="yes"/>
      <point x="850.0" y="377.8"/>
      <point x="773.8" y="261.4"/>
    </contour>
  </outline>
</glyph>
<glyph name="e" format="2">
  <advance height="2479.0" width="1234.6"/>
  <unicode hex="0065"/>
  <anchor x="618.2" y="0.0" name="bottom"/>
  <anchor x="622.8" y="0.0" name="cedilla"/>
  <anchor x="919.2" y="39.2" name="ogonek"/>
  <anchor x="618.2" y="1303.0" name="top"/>
  <outline>
    <contour>
      <point x="634.6" y="-20.6" type="curve"/>
      <point x="928.0" y="-20.6"/>
      <point x="1120.4" y="120.4"/>
      <point x="1161.4" y="340.6" type="curve"/>
      <point x="834.6" y="349.8" type="line"/>
      <point x="807.4" y="275.4"/>
      <point x="734.4" y="235.8"/>
      <point x="641.8" y="235.8" type="curve" smooth="yes"/>
      <point x="505.0" y="235.8"/>
      <point x="420.8" y="326.0"/>
      <point x="420.8" y="463.2" type="curve" smooth="yes"/>
      <point x="420.8" y="674.2" type="line" smooth="yes"/>
      <point x="422.4" y="787.8"/>
      <point x="511.6" y="874.6"/>
      <point x="631.2" y="874.6" type="curve"/>
      <point x="748.4" y="874.6"/>
      <point x="832.2" y="794.0"/>
      <point x="834.6" y="679.4" type="curve"/>
      <point x="194.2" y="679.4" type="line"/>
      <point x="194.2" y="472.0" type="line"/>
      <point x="1164.8" y="472.0" type="line"/>
      <point x="1164.8" y="561.8" type="line" smooth="yes"/>
      <point x="1164.8" y="929.0"/>
      <point x="941.0" y="1132.0"/>
      <point x="624.0" y="1132.0" type="curve" smooth="yes"/>
      <point x="286.6" y="1132.0"/>
      <point x="69.8" y="900.2"/>
      <point x="69.8" y="554.8" type="curve" smooth="yes"/>
      <point x="69.8" y="196.6"/>
      <point x="283.8" y="-20.6"/>
    </contour>
  </outline>
</glyph>
<glyph name="f" format="2">
  <advance height="2479.0" width="806.2"/>
  <unicode hex="0066"/>
  <anchor x="355.2" y="0.0" name="bottom"/>
  <anchor x="357.4" y="617.8" name="cross"/>
  <anchor x="472.8" y="1676.0" name="top"/>
  <outline>
    <contour>
      <point x="747.8" y="1117.0" type="line"/>
      <point x="28.799999999999997" y="1117.0" type="line"/>
      <point x="28.799999999999997" y="855.2" type="line"/>
      <point x="747.8" y="855.2" type="line"/>
    </contour>
    <component base="_part.f_base" xOffset="-13.600000000000001"/>
  </outline>
</glyph>
<glyph name="g" format="2">
  <advance height="2479.0" width="1313.6"/>
  <unicode hex="0067"/>
  <anchor x="636.6" y="-421.2" name="bottom"/>
  <anchor x="1021.0" y="566.4" name="cross"/>
  <anchor x="637.0" y="1303.0" name="top"/>
  <outline>
    <contour>
      <point x="633.6" y="-442.0" type="curve" smooth="yes"/>
      <point x="969.6" y="-442.0"/>
      <point x="1200.6" y="-288.8"/>
      <point x="1200.6" y="-4.0" type="curve" smooth="yes"/>
      <point x="1200.6" y="1117.0" type="line"/>
      <point x="845.8" y="1117.0" type="line"/>
      <point x="845.8" y="925.6" type="line"/>
      <point x="835.2" y="925.6" type="line"/>
      <point x="793.2" y="1028.4"/>
      <point x="695.2" y="1132.0"/>
      <point x="518.8" y="1132.0" type="curve" smooth="yes"/>
      <point x="285.6" y="1132.0"/>
      <point x="74.6" y="952.0"/>
      <point x="74.6" y="560.0" type="curve" smooth="yes"/>
      <point x="74.6" y="180.6"/>
      <point x="276.0" y="15.4"/>
      <point x="520.6" y="15.4" type="curve" smooth="yes"/>
      <point x="685.0" y="15.4"/>
      <point x="795.0" y="92.19999999999999"/>
      <point x="837.0" y="195.0" type="curve"/>
      <point x="849.4" y="195.0" type="line"/>
      <point x="849.4" y="-1.5999999999999979" type="line" smooth="yes"/>
      <point x="849.4" y="-144.6"/>
      <point x="762.4" y="-195.8"/>
      <point x="643.2" y="-195.8" type="curve" smooth="yes"/>
      <point x="528.2" y="-195.8"/>
      <point x="460.4" y="-152.0"/>
      <point x="441.6" y="-82.8" type="curve"/>
      <point x="104.6" y="-102.0" type="line"/>
      <point x="130.6" y="-297.4"/>
      <point x="315.0" y="-442.0"/>
    </contour>
    <contour>
      <point x="644.4" y="274.4" type="curve" smooth="yes"/>
      <point x="512.6" y="274.4"/>
      <point x="439.20000000000005" y="381.4"/>
      <point x="439.20000000000005" y="560.6" type="curve" smooth="yes"/>
      <point x="439.20000000000005" y="738.0"/>
      <point x="512.0" y="853.8"/>
      <point x="644.4" y="853.8" type="curve" smooth="yes"/>
      <point x="774.4" y="853.8"/>
      <point x="850.0" y="741.0"/>
      <point x="850.0" y="560.6" type="curve" smooth="yes"/>
      <point x="850.0" y="380.8"/>
      <point x="773.8" y="274.4"/>
    </contour>
  </outline>
</glyph>
<glyph name="h" format="2">
  <advance height="2479.0" width="1301.2"/>
  <unicode hex="0068"/>
  <anchor x="650.8" y="0.0" name="bottom"/>
  <anchor x="287.6" y="0.0" name="cedilla"/>
  <anchor x="284.0" y="1277.4" name="cross"/>
  <anchor x="286.4" y="1676.0" name="top"/>
  <outline>
    <contour>
      <point x="468.20000000000005" y="636.8" type="line" smooth="yes"/>
      <point x="469.0" y="764.6"/>
      <point x="545.0" y="840.2"/>
      <point x="657.4" y="840.2" type="curve" smooth="yes"/>
      <point x="772.0" y="840.2"/>
      <point x="837.8" y="766.4"/>
      <point x="837.0" y="642.0" type="curve" smooth="yes"/>
      <point x="837.0" y="0.0" type="line"/>
      <point x="1193.0" y="0.0" type="line"/>
      <point x="1193.0" y="712.4" type="line" smooth="yes"/>
      <point x="1193.0" y="965.0"/>
      <point x="1039.2" y="1132.0"/>
      <point x="804.8" y="1132.0" type="curve" smooth="yes"/>
      <point x="637.6" y="1132.0"/>
      <point x="520.0" y="1049.2"/>
      <point x="468.6" y="912.6" type="curve"/>
      <point x="457.0" y="912.6" type="line"/>
      <point x="457.0" y="1489.0" type="line"/>
      <point x="113.0" y="1489.0" type="line"/>
      <point x="113.0" y="0.0" type="line"/>
      <point x="468.20000000000005" y="0.0" type="line"/>
    </contour>
  </outline>
</glyph>
<glyph name="k" format="2">
  <advance height="2479.0" width="1216.4"/>
  <unicode hex="006B"/>
  <anchor x="617.6" y="0.0" name="bottom"/>
  <anchor x="291.2" y="1676.0" name="top"/>
  <outline>
    <contour>
      <point x="433.8" y="293.4" type="line"/>
      <point x="640.6" y="543.8" type="line"/>
      <point x="733.8" y="543.8" type="line"/>
      <point x="1201.2" y="1117.0" type="line"/>
      <point x="798.0" y="1117.0" type="line"/>
      <point x="484.20000000000005" y="717.6" type="line"/>
      <point x="434.8" y="717.6" type="line"/>
    </contour>
    <contour>
      <point x="113.0" y="0.0" type="line"/>
      <point x="468.20000000000005" y="0.0" type="line"/>
      <point x="468.20000000000005" y="1489.0" type="line"/>
      <point x="113.0" y="1489.0" type="line"/>
    </contour>
    <contour>
      <point x="806.2" y="0.0" type="line"/>
      <point x="1217.8" y="0.0" type="line"/>
      <point x="748.2" y="716.0" type="line"/>
      <point x="514.2" y="464.2" type="line"/>
    </contour>
  </outline>
</glyph>
<glyph name="m" format="2">
  <advance height="2479.0" width="1896.8"/>
  <unicode hex="006D"/>
  <anchor x="950.8" y="0.0" name="bottom"/>
  <anchor x="950.8" y="1303.0" name="top"/>
  <outline>
    <contour>
      <point x="113.0" y="0.0" type="line"/>
      <point x="468.20000000000005" y="0.0" type="line"/>
      <point x="468.20000000000005" y="661.2" type="line" smooth="yes"/>
      <point x="468.20000000000005" y="771.6"/>
      <point x="532.8" y="842.6"/>
      <point x="626.0" y="842.6" type="curve" smooth="yes"/>
      <point x="718.4" y="842.6"/>
      <point x="779.8" y="777.6"/>
      <point x="779.8" y="674.6" type="curve" smooth="yes"/>
      <point x="779.8" y="0.0" type="line"/>
      <point x="1121.8" y="0.0" type="line"/>
      <point x="1121.8" y="667.0" type="line" smooth="yes"/>
      <point x="1121.8" y="773.4"/>
      <point x="1180.8" y="842.6"/>
      <point x="1278.6" y="842.6" type="curve" smooth="yes"/>
      <point x="1369.4" y="842.6"/>
      <point x="1432.8" y="781.8"/>
      <point x="1432.8" y="671.2" type="curve" smooth="yes"/>
      <point x="1432.8" y="0.0" type="line"/>
      <point x="1788.6" y="0.0" type="line"/>
      <point x="1788.6" y="752.0" type="line" smooth="yes"/>
      <point x="1788.6" y="988.4"/>
      <point x="1642.8" y="1132.0"/>
      <point x="1431.8" y="1132.0" type="curve" smooth="yes"/>
      <point x="1267.0" y="1132.0"/>
      <point x="1136.4" y="1044.4"/>
      <point x="1095.2" y="912.6" type="curve"/>
      <point x="1083.4" y="912.6" type="line"/>
      <point x="1053.8" y="1045.2"/>
      <point x="934.4" y="1132.0"/>
      <point x="779.4" y="1132.0" type="curve" smooth="yes"/>
      <point x="626.4" y="1132.0"/>
      <point x="509.6" y="1047.6"/>
      <point x="463.4" y="912.6" type="curve"/>
      <point x="451.0" y="912.6" type="line"/>
      <point x="451.0" y="1117.0" type="line"/>
      <point x="113.0" y="1117.0" type="line"/>
    </contour>
  </outline>
</glyph>
<glyph name="n" format="2">
  <advance height="2479.0" width="1299.0"/>
  <unicode hex="006E"/>
  <anchor x="650.2" y="0.0" name="bottom"/>
  <anchor x="650.2" y="1303.0" name="top"/>
  <outline>
    <contour>
      <point x="468.20000000000005" y="636.8" type="line" smooth="yes"/>
      <point x="469.0" y="764.6"/>
      <point x="543.4" y="840.2"/>
      <point x="655.6" y="840.2" type="curve" smooth="yes"/>
      <point x="768.2" y="840.2"/>
      <point x="835.6" y="765.8"/>
      <point x="834.8" y="642.0" type="curve" smooth="yes"/>
      <point x="834.8" y="0.0" type="line"/>
      <point x="1190.6" y="0.0" type="line"/>
      <point x="1190.6" y="712.4" type="line" smooth="yes"/>
      <point x="1190.6" y="963.8"/>
      <point x="1037.8" y="1132.0"/>
      <point x="803.0" y="1132.0" type="curve" smooth="yes"/>
      <point x="637.4" y="1132.0"/>
      <point x="512.4" y="1048.0"/>
      <point x="463.4" y="912.6" type="curve"/>
      <point x="451.0" y="912.6" type="line"/>
      <point x="451.0" y="1117.0" type="line"/>
      <point x="113.0" y="1117.0" type="line"/>
      <point x="113.0" y="0.0" type="line"/>
      <point x="468.20000000000005" y="0.0" type="line"/>
    </contour>
  </outline>
</glyph>
<glyph name="o" format="2">
  <advance height="2479.0" width="1268.4"/>
  <unicode hex="006F"/>
  <anchor x="634.2" y="0.0" name="bottom"/>
  <anchor x="792.6" y="0.0" name="ogonek"/>
  <anchor x="634.2" y="1303.0" name="top"/>
  <outline>
    <contour>
      <point x="634.2" y="-20.6" type="curve" smooth="yes"/>
      <point x="985.8" y="-20.6"/>
      <point x="1198.6" y="211.0"/>
      <point x="1198.6" y="555.4" type="curve" smooth="yes"/>
      <point x="1198.6" y="899.6"/>
      <point x="985.8" y="1132.0"/>
      <point x="634.2" y="1132.0" type="curve" smooth="yes"/>
      <point x="282.4" y="1132.0"/>
      <point x="69.8" y="899.6"/>
      <point x="69.8" y="555.4" type="curve" smooth="yes"/>
      <point x="69.8" y="211.0"/>
      <point x="282.4" y="-20.6"/>
    </contour>
    <contour>
      <point x="636.6" y="247.0" type="curve" smooth="yes"/>
      <point x="504.2" y="247.0"/>
      <point x="432.0" y="372.2"/>
      <point x="432.0" y="557.8" type="curve" smooth="yes"/>
      <point x="432.0" y="742.6"/>
      <point x="504.2" y="868.2"/>
      <point x="636.6" y="868.2" type="curve" smooth="yes"/>
      <point x="764.2" y="868.2"/>
      <point x="836.2" y="742.6"/>
      <point x="836.2" y="557.8" type="curve" smooth="yes"/>
      <point x="836.2" y="372.2"/>
      <point x="764.2" y="247.0"/>
    </contour>
  </outline>
</glyph>
<glyph name="p" format="2">
  <advance height="2479.0" width="1306.4"/>
  <unicode hex="0070"/>
  <anchor x="292.2" y="-404.6" name="bottom"/>
  <anchor x="1357.6" y="-480.6" name="bottom0315"/>
  <anchor x="288.8" y="-163.0" name="cross"/>
  <anchor x="713.0" y="1303.0" name="top"/>
  <outline>
    <contour>
      <point x="113.0" y="-419.0" type="line"/>
      <point x="468.20000000000005" y="-419.0" type="line"/>
      <point x="468.20000000000005" y="180.8" type="line"/>
      <point x="475.8" y="180.8" type="line"/>
      <point x="521.0" y="78.19999999999999"/>
      <point x="621.2" y="-16.6"/>
      <point x="789.8" y="-16.6" type="curve" smooth="yes"/>
      <point x="1036.8" y="-16.6"/>
      <point x="1236.6" y="177.8"/>
      <point x="1236.6" y="558.4" type="curve" smooth="yes"/>
      <point x="1236.6" y="952.0"/>
      <point x="1024.8" y="1132.0"/>
      <point x="791.6" y="1132.0" type="curve" smooth="yes"/>
      <point x="615.2" y="1132.0"/>
      <point x="518.6" y="1028.4"/>
      <point x="475.8" y="925.6" type="curve"/>
      <point x="464.6" y="925.6" type="line"/>
      <point x="464.6" y="1117.0" type="line"/>
      <point x="113.0" y="1117.0" type="line"/>
    </contour>
    <contour>
      <point x="461.20000000000005" y="559.0" type="curve" smooth="yes"/>
      <point x="461.20000000000005" y="741.0"/>
      <point x="536.0" y="853.8"/>
      <point x="666.8" y="853.8" type="curve" smooth="yes"/>
      <point x="799.2" y="853.8"/>
      <point x="872.0" y="738.0"/>
      <point x="872.0" y="559.0" type="curve" smooth="yes"/>
      <point x="872.0" y="378.4"/>
      <point x="798.6" y="261.4"/>
      <point x="666.8" y="261.4" type="curve" smooth="yes"/>
      <point x="536.6" y="261.4"/>
      <point x="461.20000000000005" y="377.8"/>
    </contour>
  </outline>
</glyph>
<glyph name="q" format="2">
  <advance height="2479.0" width="1306.4"/>
  <unicode hex="0071"/>
  <anchor x="1013.4" y="-404.6" name="bottom"/>
  <anchor x="1017.6" y="-163.0" name="cross"/>
  <anchor x="592.6" y="1303.0" name="top"/>
  <outline>
    <contour>
      <point x="837.4" y="-419.0" type="line"/>
      <point x="1193.4" y="-419.0" type="line"/>
      <point x="1193.4" y="1117.0" type="line"/>
      <point x="841.0" y="1117.0" type="line"/>
      <point x="841.0" y="925.6" type="line"/>
      <point x="830.6" y="925.6" type="line"/>
      <point x="787.8" y="1028.4"/>
      <point x="690.4" y="1132.0"/>
      <point x="514.0" y="1132.0" type="curve" smooth="yes"/>
      <point x="280.8" y="1132.0"/>
      <point x="69.8" y="952.0"/>
      <point x="69.8" y="558.4" type="curve" smooth="yes"/>
      <point x="69.8" y="177.8"/>
      <point x="269.6" y="-16.6"/>
      <point x="515.8" y="-16.6" type="curve" smooth="yes"/>
      <point x="684.4" y="-16.6"/>
      <point x="785.4" y="78.19999999999999"/>
      <point x="830.6" y="180.8" type="curve"/>
      <point x="837.4" y="180.8" type="line"/>
    </contour>
    <contour>
      <point x="639.6" y="261.4" type="curve" smooth="yes"/>
      <point x="507.8" y="261.4"/>
      <point x="434.4" y="378.4"/>
      <point x="434.4" y="559.0" type="curve" smooth="yes"/>
      <point x="434.4" y="738.0"/>
      <point x="507.2" y="853.8"/>
      <point x="639.6" y="853.8" type="curve" smooth="yes"/>
      <point x="769.6" y="853.8"/>
      <point x="845.2" y="741.0"/>
      <point x="845.2" y="559.0" type="curve" smooth="yes"/>
      <point x="845.2" y="377.8"/>
      <point x="769.0" y="261.4"/>
    </contour>
  </outline>
</glyph>
<glyph name="r" format="2">
  <advance height="2479.0" width="862.0"/>
  <unicode hex="0072"/>
  <anchor x="292.2" y="0.0" name="bottom"/>
  <anchor x="291.2" y="535.0" name="cross"/>
  <anchor x="470.8" y="1303.0" name="top"/>
  <outline>
    <contour>
      <point x="113.0" y="0.0" type="line"/>
      <point x="468.20000000000005" y="0.0" type="line"/>
      <point x="468.20000000000005" y="607.0" type="line" smooth="yes"/>
      <point x="468.20000000000005" y="739.6"/>
      <point x="562.4" y="829.0"/>
      <point x="690.2" y="829.0" type="curve" smooth="yes"/>
      <point x="732.2" y="829.0"/>
      <point x="795.2" y="822.4"/>
      <point x="829.6" y="810.6" type="curve"/>
      <point x="829.6" y="1119.2" type="line"/>
      <point x="800.0" y="1127.4"/>
      <point x="763.0" y="1132.6"/>
      <point x="729.8" y="1132.6" type="curve" smooth="yes"/>
      <point x="608.0" y="1132.6"/>
      <point x="510.20000000000005" y="1061.4"/>
      <point x="469.4" y="913.6" type="curve"/>
      <point x="458.20000000000005" y="913.6" type="line"/>
      <point x="458.20000000000005" y="1117.0" type="line"/>
      <point x="113.0" y="1117.0" type="line"/>
    </contour>
  </outline>
</glyph>
<glyph name="s" format="2">
  <advance height="2479.0" width="1177.4"/>
  <unicode hex="0073"/>
  <anchor x="593.4" y="0.0" name="bottom"/>
  <anchor x="600.0" y="0.0" name="cedilla"/>
  <anchor x="594.6" y="1303.0" name="top"/>
  <outline>
    <contour>
      <point x="1088.0" y="775.8" type="line"/>
      <point x="1069.4" y="997.0"/>
      <point x="887.6" y="1132.0"/>
      <point x="585.0" y="1132.0" type="curve" smooth="yes"/>
      <point x="282.6" y="1132.0"/>
      <point x="90.19999999999999" y="1000.4"/>
      <point x="91.8" y="776.2" type="curve" smooth="yes"/>
      <point x="90.19999999999999" y="604.6"/>
      <point x="199.6" y="493.4"/>
      <point x="423.0" y="451.8" type="curve" smooth="yes"/>
      <point x="618.6" y="415.2" type="line" smooth="yes"/>
      <point x="710.8" y="397.0"/>
      <point x="752.6" y="368.0"/>
      <point x="754.2" y="319.0" type="curve" smooth="yes"/>
      <point x="752.6" y="262.2"/>
      <point x="689.8" y="225.60000000000002"/>
      <point x="599.4" y="225.60000000000002" type="curve" smooth="yes"/>
      <point x="498.6" y="225.60000000000002"/>
      <point x="429.8" y="268.8"/>
      <point x="415.0" y="350.4" type="curve"/>
      <point x="63.199999999999996" y="342.4" type="line"/>
      <point x="88.8" y="121.2"/>
      <point x="278.4" y="-20.6"/>
      <point x="597.6" y="-20.6" type="curve" smooth="yes"/>
      <point x="896.8" y="-20.6"/>
      <point x="1114.6" y="127.8"/>
      <point x="1115.4" y="357.4" type="curve" smooth="yes"/>
      <point x="1114.6" y="521.4"/>
      <point x="1006.2" y="617.8"/>
      <point x="784.0" y="660.4" type="curve" smooth="yes"/>
      <point x="569.2" y="701.4" type="line" smooth="yes"/>
      <point x="474.8" y="719.8"/>
      <point x="443.6" y="753.6"/>
      <point x="444.4" y="796.2" type="curve" smooth="yes"/>
      <point x="443.6" y="853.0"/>
      <point x="509.6" y="887.8"/>
      <point x="592.2" y="887.8" type="curve" smooth="yes"/>
      <point x="685.4" y="887.8"/>
      <point x="751.2" y="837.6"/>
      <point x="761.2" y="767.0" type="curve"/>
    </contour>
  </outline>
</glyph>
<glyph name="t" format="2">
  <advance height="2479.0" width="812.2"/>
  <unicode hex="0074"/>
  <anchor x="669.6" y="1562.0" name="raccent"/>
  <anchor x="454.4" y="0.0" name="bottom"/>
  <anchor x="556.0" y="0.0" name="cedilla"/>
  <anchor x="364.0" y="1531.4" name="top"/>
  <outline>
    <contour>
      <point x="743.0" y="1117.0" type="line"/>
      <point x="38.4" y="1117.0" type="line"/>
      <point x="38.4" y="855.2" type="line"/>
      <point x="743.0" y="855.2" type="line"/>
    </contour>
    <component base="_part.t_base"/>
  </outline>
</glyph>
<glyph name="u" format="2">
  <advance height="2479.0" width="1301.2"/>
  <unicode hex="0075"/>
  <anchor x="712.8" y="0.0" name="bottom"/>
  <anchor x="1189.0" y="0.0" name="ogonek"/>
  <anchor x="652.0" y="1303.0" name="top"/>
  <outline>
    <contour>
      <point x="833.0" y="482.6" type="line" smooth="yes"/>
      <point x="833.8" y="351.8"/>
      <point x="750.6" y="279.0"/>
      <point x="645.0" y="279.0" type="curve" smooth="yes"/>
      <point x="535.8" y="279.0"/>
      <point x="469.0" y="353.6"/>
      <point x="468.20000000000005" y="475.0" type="curve" smooth="yes"/>
      <point x="468.20000000000005" y="1117.0" type="line"/>
      <point x="113.0" y="1117.0" type="line"/>
      <point x="113.0" y="404.6" type="line" smooth="yes"/>
      <point x="113.8" y="152.4"/>
      <point x="267.2" y="-15.0"/>
      <point x="497.2" y="-15.0" type="curve" smooth="yes"/>
      <point x="663.8" y="-15.0"/>
      <point x="788.2" y="71.2"/>
      <point x="837.8" y="207.4" type="curve"/>
      <point x="849.8" y="207.4" type="line"/>
      <point x="849.8" y="0.0" type="line"/>
      <point x="1189.0" y="0.0" type="line"/>
      <point x="1189.0" y="1117.0" type="line"/>
      <point x="833.0" y="1117.0" type="line"/>
    </contour>
  </outline>
</glyph>
<glyph name="w" format="2">
  <advance height="2479.0" width="1766.4"/>
  <unicode hex="0077"/>
  <anchor x="876.0" y="0.0" name="bottom"/>
  <anchor x="883.2" y="1303.0" name="top"/>
  <outline>
    <contour>
      <point x="322.0" y="0.0" type="line"/>
      <point x="702.2" y="0.0" type="line"/>
      <point x="876.6" y="650.8" type="line"/>
      <point x="889.8" y="650.8" type="line"/>
      <point x="1064.2" y="0.0" type="line"/>
      <point x="1444.4" y="0.0" type="line"/>
      <point x="1736.4" y="1117.0" type="line"/>
      <point x="1378.8" y="1117.0" type="line"/>
      <point x="1232.8" y="406.6" type="line"/>
      <point x="1223.4" y="406.6" type="line"/>
      <point x="1057.8" y="1117.0" type="line"/>
      <point x="709.2" y="1117.0" type="line"/>
      <point x="547.8" y="401.20000000000005" type="line"/>
      <point x="538.4" y="401.20000000000005" type="line"/>
      <point x="387.6" y="1117.0" type="line"/>
      <point x="30.0" y="1117.0" type="line"/>
    </contour>
  </outline>
</glyph>
<glyph name="x" format="2">
  <advance height="2479.0" width="1198.6"/>
  <unicode hex="0078"/>
  <anchor x="599.4" y="0.0" name="bottom"/>
  <anchor x="599.4" y="559.0" name="cross"/>
  <anchor x="1112.2" y="143.2" name="cyrtic"/>
  <anchor x="953.8" y="0.0" name="right"/>
  <anchor x="599.4" y="1303.0" name="top"/>
  <outline>
    <contour>
      <point x="415.4" y="1117.0" type="line"/>
      <point x="55.0" y="1117.0" type="line"/>
      <point x="362.8" y="559.0" type="line"/>
      <point x="38.199999999999996" y="0.0" type="line"/>
      <point x="399.4" y="0.0" type="line"/>
      <point x="599.4" y="370.6" type="line"/>
      <point x="804.0" y="0.0" type="line"/>
      <point x="1160.4" y="0.0" type="line"/>
      <point x="836.2" y="559.0" type="line"/>
      <point x="1148.4" y="1117.0" type="line"/>
      <point x="790.4" y="1117.0" type="line"/>
      <point x="599.4" y="748.8" type="line"/>
    </contour>
  </outline>
</glyph>
<glyph name="y" format="2">
  <advance height="2479.0" width="1219.2"/>
  <unicode hex="0079"/>
  <anchor x="978.2" y="-9.799999999999997" name="bottom"/>
  <anchor x="792.6" y="-419.0" name="ogonek"/>
  <anchor x="607.6" y="1303.0" name="top"/>
  <outline>
    <contour>
      <point x="330.4" y="-419.0" type="curve" smooth="yes"/>
      <point x="586.2" y="-419.0"/>
      <point x="713.6" y="-289.8"/>
      <point x="775.2" y="-107.0" type="curve" smooth="yes"/>
      <point x="1196.6" y="1117.0" type="line"/>
      <point x="821.6" y="1117.0" type="line"/>
      <point x="613.6" y="319.8" type="line"/>
      <point x="601.6" y="319.8" type="line"/>
      <point x="396.0" y="1117.0" type="line"/>
      <point x="23.599999999999994" y="1117.0" type="line"/>
      <point x="419.8" y="-40.4" type="line"/>
      <point x="407.0" y="-74.6" type="line" smooth="yes"/>
      <point x="372.8" y="-158.2"/>
      <point x="295.0" y="-159.0"/>
      <point x="190.8" y="-125.39999999999999" type="curve"/>
      <point x="112.6" y="-383.8" type="line"/>
      <point x="165.6" y="-404.6"/>
      <point x="245.0" y="-419.0"/>
    </contour>
  </outline>
</glyph>
<glyph name="z" format="2">
  <advance height="2479.0" width="1192.0"/>
  <unicode hex="007A"/>
  <anchor x="598.2" y="0.0" name="bottom"/>
  <anchor x="592.2" y="559.0" name="cross"/>
  <anchor x="594.6" y="1303.0" name="top"/>
  <outline>
    <contour>
      <point x="115.4" y="0.0" type="line"/>
      <point x="1075.4" y="0.0" type="line"/>
      <point x="1075.4" y="276.0" type="line"/>
      <point x="577.6" y="276.0" type="line"/>
      <point x="577.6" y="283.2" type="line"/>
      <point x="1056.8" y="894.4" type="line"/>
      <point x="1056.8" y="1117.0" type="line"/>
      <point x="133.8" y="1117.0" type="line"/>
      <point x="133.8" y="841.0" type="line"/>
      <point x="633.4" y="841.0" type="line"/>
      <point x="633.4" y="833.8" type="line"/>
      <point x="115.4" y="203.0" type="line"/>
    </contour>
  </outline>
</glyph>
<glyph name="braceleft" format="2">
  <advance height="2479.0" width="870.0"/>
  <unicode hex="007B"/>
  <outline>
    <contour>
      <point x="59.2" y="578.6" type="line"/>
      <point x="535.6" y="578.6"/>
      <point x="627.8" y="715.8"/>
      <point x="627.8" y="862.2" type="curve" smooth="yes"/>
      <point x="627.8" y="1048.2" type="line" smooth="yes"/>
      <point x="627.8" y="1180.0"/>
      <point x="656.6" y="1242.6"/>
      <point x="830.4" y="1242.6" type="curve"/>
      <point x="830.4" y="1503.0" type="line"/>
      <point x="533.4" y="1503.0"/>
      <point x="284.4" y="1478.6"/>
      <point x="284.4" y="1090.6" type="curve" smooth="yes"/>
      <point x="284.4" y="953.0" type="line" smooth="yes"/>
      <point x="284.4" y="807.4"/>
      <point x="227.6" y="744.0"/>
      <point x="59.2" y="744.0" type="curve"/>
    </contour>
    <contour>
      <point x="830.4" y="-330.2" type="curve"/>
      <point x="830.4" y="-69.6" type="line"/>
      <point x="656.6" y="-69.6"/>
      <point x="627.8" y="-7.0"/>
      <point x="627.8" y="124.6" type="curve" smooth="yes"/>
      <point x="627.8" y="310.8" type="line" smooth="yes"/>
      <point x="627.8" y="457.0"/>
      <point x="535.6" y="594.2"/>
      <point x="59.2" y="594.2" type="curve"/>
      <point x="59.2" y="429.0" type="line"/>
      <point x="227.6" y="429.0"/>
      <point x="284.4" y="365.4"/>
      <point x="284.4" y="220.0" type="curve" smooth="yes"/>
      <point x="284.4" y="82.2" type="line" smooth="yes"/>
      <point x="284.4" y="-305.6"/>
      <point x="533.4" y="-330.2"/>
    </contour>
    <contour>
      <point x="59.2" y="429.0" type="line"/>
      <point x="349.4" y="429.0" type="line"/>
      <point x="349.4" y="744.0" type="line"/>
      <point x="59.2" y="744.0" type="line"/>
    </contour>
  </outline>
</glyph>
<glyph name="bar" format="2">
  <advance height="2479.0" width="797.0"/>
  <unicode hex="007C"/>
  <outline>
    <contour>
      <point x="570.2" y="1969.0" type="line"/>
      <point x="226.8" y="1969.0" type="line"/>
      <point x="226.8" y="-480.0" type="line"/>
      <point x="570.2" y="-480.0" type="line"/>
    </contour>
  </outline>
</glyph>
<glyph name="asciitilde" format="2">
  <advance height="2479.0" width="1406.0"/>
  <unicode hex="007E"/>
  <outline>
    <contour>
      <point x="152.2" y="388.4" type="curve"/>
      <point x="416.4" y="388.4" type="line"/>
      <point x="413.6" y="507.4"/>
      <point x="462.6" y="554.4"/>
      <point x="527.2" y="554.4" type="curve" smooth="yes"/>
      <point x="576.6" y="554.4"/>
      <point x="599.4" y="532.2"/>
      <point x="656.2" y="481.4" type="curve" smooth="yes"/>
      <point x="756.6" y="393.4"/>
      <point x="834.8" y="357.0"/>
      <point x="930.6" y="357.0" type="curve" smooth="yes"/>
      <point x="1137.0" y="357.0"/>
      <point x="1264.2" y="528.6"/>
      <point x="1253.0" y="815.2" type="curve"/>
      <point x="988.8" y="815.2" type="line"/>
      <point x="992.4" y="698.4"/>
      <point x="942.6" y="649.4"/>
      <point x="878.8" y="649.4" type="curve" smooth="yes"/>
      <point x="827.8" y="649.4"/>
      <point x="797.6" y="677.8"/>
      <point x="747.4" y="722.2" type="curve" smooth="yes"/>
      <point x="640.6" y="816.6"/>
      <point x="564.8" y="846.6"/>
      <point x="475.4" y="846.6" type="curve" smooth="yes"/>
      <point x="261.6" y="846.6"/>
      <point x="141.6" y="675.2"/>
    </contour>
  </outline>
</glyph>
<glyph name="cent" format="2">
  <advance height="2479.0" width="1222.2"/>
  <unicode hex="00A2"/>
  <anchor x="635.4" y="189.4" name="cedilla"/>
  <anchor x="635.4" y="1492.4" name="top"/>
  <outline>
    <contour>
      <point x="576.2" y="0.0" type="line"/>
      <point x="695.2" y="0.0" type="line"/>
      <point x="695.2" y="1489.0" type="line"/>
      <point x="576.2" y="1489.0" type="line"/>
    </contour>
    <component base="c" yOffset="189.4"/>
  </outline>
</glyph>
<glyph name="sterling" format="2">
  <advance height="2479.0" width="1403.2"/>
  <unicode hex="00A3"/>
  <outline>
    <contour>
      <point x="1261.6" y="0.0" type="line"/>
      <point x="1261.6" y="292.8" type="line"/>
      <point x="147.6" y="292.8" type="line"/>
      <point x="147.6" y="0.0" type="line"/>
    </contour>
    <contour>
      <point x="982.8" y="597.4" type="line"/>
      <point x="982.8" y="873.0" type="line"/>
      <point x="144.0" y="873.0" type="line"/>
      <point x="144.0" y="597.4" type="line"/>
    </contour>
    <contour>
      <point x="654.6" y="1078.2" type="line"/>
      <point x="653.0" y="1177.2"/>
      <point x="700.8" y="1226.8"/>
      <point x="775.8" y="1226.8" type="curve" smooth="yes"/>
      <point x="857.2" y="1226.8"/>
      <point x="922.0" y="1193.0"/>
      <point x="923.6" y="1079.6" type="curve"/>
      <point x="1260.6" y="1084.0" type="line"/>
      <point x="1256.4" y="1345.0"/>
      <point x="1084.6" y="1510.0"/>
      <point x="771.8" y="1510.0" type="curve" smooth="yes"/>
      <point x="485.6" y="1510.0"/>
      <point x="286.6" y="1351.2"/>
      <point x="297.6" y="1078.2" type="curve" smooth="yes"/>
      <point x="320.2" y="439.8" type="line" smooth="yes"/>
      <point x="321.6" y="366.4"/>
      <point x="311.0" y="311.20000000000005"/>
      <point x="255.2" y="292.8" type="curve"/>
      <point x="458.4" y="187.0" type="line"/>
      <point x="619.8" y="251.8"/>
      <point x="682.8" y="326.6"/>
      <point x="677.6" y="463.0" type="curve" smooth="yes"/>
    </contour>
  </outline>
</glyph>
<glyph name="currency" format="2">
  <advance height="2479.0" width="1594.6"/>
  <unicode hex="00A4"/>
  <outline>
    <contour>
      <point x="799.2" y="-20.0" type="curve" smooth="yes"/>
      <point x="1135.4" y="-20.0"/>
      <point x="1415.2" y="253.0"/>
      <point x="1416.0" y="608.0" type="curve" smooth="yes"/>
      <point x="1415.2" y="963.0"/>
      <point x="1135.4" y="1233.0"/>
      <point x="799.2" y="1233.0" type="curve" smooth="yes"/>
      <point x="457.4" y="1233.0"/>
      <point x="179.0" y="963.0"/>
      <point x="179.8" y="608.0" type="curve"/>
      <point x="179.0" y="253.0"/>
      <point x="457.4" y="-20.0"/>
    </contour>
    <contour>
      <point x="799.2" y="179.2" type="curve" smooth="yes"/>
      <point x="559.4" y="179.2"/>
      <point x="373.4" y="365.6"/>
      <point x="375.0" y="608.0" type="curve"/>
      <point x="373.4" y="852.6"/>
      <point x="559.4" y="1036.8"/>
      <point x="799.2" y="1036.8" type="curve" smooth="yes"/>
      <point x="1031.8" y="1036.8"/>
      <point x="1221.4" y="852.6"/>
      <point x="1222.2" y="608.0" type="curve" smooth="yes"/>
      <point x="1221.4" y="365.6"/>
      <point x="1031.8" y="179.2"/>
    </contour>
    <contour>
      <point x="1248.4" y="911.4" type="line"/>
      <point x="1459.4" y="1117.6" type="line"/>
      <point x="1310.0" y="1267.6" type="line"/>
      <point x="1101.8" y="1061.4" type="line"/>
    </contour>
    <contour>
      <point x="1310.0" y="-28.6" type="line"/>
      <point x="1459.4" y="121.6" type="line"/>
      <point x="1248.4" y="325.4" type="line"/>
      <point x="1101.8" y="178.4" type="line"/>
    </contour>
    <contour>
      <point x="289.6" y="-28.6" type="line"/>
      <point x="499.8" y="178.4" type="line"/>
      <point x="350.4" y="325.4" type="line"/>
      <point x="142.2" y="121.6" type="line"/>
    </contour>
    <contour>
      <point x="350.4" y="911.4" type="line"/>
      <point x="499.8" y="1061.4" type="line"/>
      <point x="289.6" y="1267.6" type="line"/>
      <point x="142.2" y="1117.6" type="line"/>
    </contour>
  </outline>
</glyph>
<glyph name="yen" format="2">
  <advance height="2479.0" width="1187.8"/>
  <unicode hex="00A5"/>
  <outline>
    <contour>
      <point x="392.4" y="1489.0" type="line"/>
      <point x="29.0" y="1489.0" type="line"/>
      <point x="439.0" y="569.2" type="line"/>
      <point x="675.8" y="764.8" type="line"/>
    </contour>
    <contour>
      <point x="516.8" y="774.4" type="line"/>
      <point x="747.2" y="569.2" type="line"/>
      <point x="1158.8" y="1489.0" type="line"/>
      <point x="795.4" y="1489.0" type="line"/>
    </contour>
    <contour>
      <point x="765.6" y="784.6" type="line"/>
      <point x="411.0" y="784.6" type="line"/>
      <point x="411.0" y="0.0" type="line"/>
      <point x="765.6" y="0.0" type="line"/>
    </contour>
    <contour>
      <point x="1049.8" y="776.4" type="line"/>
      <point x="96.19999999999999" y="776.4" type="line"/>
      <point x="96.19999999999999" y="580.6" type="line"/>
      <point x="1049.8" y="580.6" type="line"/>
    </contour>
    <contour>
      <point x="1049.8" y="488.4" type="line"/>
      <point x="96.19999999999999" y="488.4" type="line"/>
      <point x="96.19999999999999" y="292.6" type="line"/>
      <point x="1049.8" y="292.6" type="line"/>
    </contour>
  </outline>
</glyph>
<glyph name="brokenbar" format="2">
  <advance height="2479.0" width="760.8"/>
  <unicode hex="00A6"/>
  <outline>
    <contour>
      <point x="222.4" y="420.2" type="line"/>
      <point x="222.4" y="-279.0" type="line"/>
      <point x="538.4" y="-279.0" type="line"/>
      <point x="538.4" y="420.2" type="line"/>
    </contour>
    <contour>
      <point x="538.4" y="1489.0" type="line"/>
      <point x="222.4" y="1489.0" type="line"/>
      <point x="222.4" y="792.8" type="line"/>
      <point x="538.4" y="792.8" type="line"/>
    </contour>
  </outline>
</glyph>
<glyph name="section" format="2">
  <advance height="2479.0" width="1242.6"/>
  <unicode hex="00A7"/>
  <outline>
    <contour>
      <point x="1053.0" y="1113.8" type="line"/>
      <point x="1052.2" y="1341.6"/>
      <point x="873.0" y="1510.0"/>
      <point x="608.2" y="1510.0" type="curve" smooth="yes"/>
      <point x="349.4" y="1510.0"/>
      <point x="168.6" y="1348.6"/>
      <point x="169.4" y="1131.0" type="curve" smooth="yes"/>
      <point x="168.6" y="1012.2"/>
      <point x="221.4" y="922.8"/>
      <point x="299.2" y="847.4" type="curve"/>
      <point x="299.2" y="846.2" type="line"/>
      <point x="239.4" y="830.4"/>
      <point x="134.6" y="791.0"/>
      <point x="121.0" y="663.6" type="curve" smooth="yes"/>
      <point x="97.0" y="438.8"/>
      <point x="277.8" y="351.8"/>
      <point x="358.6" y="319.0" type="curve" smooth="yes"/>
      <point x="636.6" y="205.6" type="line" smooth="yes"/>
      <point x="685.0" y="183.2"/>
      <point x="762.4" y="142.8"/>
      <point x="763.2" y="79.2" type="curve" smooth="yes"/>
      <point x="762.4" y="20.0"/>
      <point x="692.0" y="-1.5999999999999943"/>
      <point x="629.8" y="-4.0" type="curve" smooth="yes"/>
      <point x="521.2" y="-11.199999999999989"/>
      <point x="460.4" y="32.400000000000006"/>
      <point x="461.20000000000005" y="107.4" type="curve"/>
      <point x="152.2" y="107.4" type="line"/>
      <point x="152.2" y="-139.2"/>
      <point x="343.0" y="-300.6"/>
      <point x="625.0" y="-300.6" type="curve" smooth="yes"/>
      <point x="885.8" y="-300.6"/>
      <point x="1074.8" y="-155.2"/>
      <point x="1075.6" y="79.2" type="curve" smooth="yes"/>
      <point x="1074.8" y="195.4"/>
      <point x="1029.2" y="286.0"/>
      <point x="944.0" y="361.4" type="curve"/>
      <point x="948.0" y="364.4" type="line"/>
      <point x="998.2" y="377.8"/>
      <point x="1109.6" y="420.8"/>
      <point x="1124.0" y="547.2" type="curve" smooth="yes"/>
      <point x="1148.8" y="768.8"/>
      <point x="965.4" y="856.0"/>
      <point x="888.8" y="888.0" type="curve" smooth="yes"/>
      <point x="610.6" y="1005.2" type="line" smooth="yes"/>
      <point x="556.8" y="1022.2"/>
      <point x="478.4" y="1067.0"/>
      <point x="479.2" y="1131.0" type="curve" smooth="yes"/>
      <point x="478.4" y="1199.0"/>
      <point x="548.6" y="1216.0"/>
      <point x="608.2" y="1216.0" type="curve" smooth="yes"/>
      <point x="697.2" y="1216.0"/>
      <point x="744.6" y="1171.8"/>
      <point x="745.4" y="1113.8" type="curve"/>
    </contour>
    <contour>
      <point x="838.4" y="525.6" type="curve"/>
      <point x="828.8" y="483.4"/>
      <point x="788.8" y="462.8"/>
      <point x="749.4" y="479.4" type="curve" smooth="yes"/>
      <point x="516.0" y="571.6" type="line" smooth="yes"/>
      <point x="431.2" y="603.6"/>
      <point x="394.6" y="646.6"/>
      <point x="404.20000000000005" y="684.4" type="curve" smooth="yes"/>
      <point x="413.0" y="724.8"/>
      <point x="450.0" y="749.0"/>
      <point x="498.0" y="729.4" type="curve" smooth="yes"/>
      <point x="727.0" y="638.6" type="line" smooth="yes"/>
      <point x="815.4" y="604.8"/>
      <point x="847.2" y="564.0"/>
    </contour>
  </outline>
</glyph>
<glyph name="dieresis" format="2">
  <advance height="2479.0" width="1056.4"/>
  <unicode hex="00A8"/>
  <anchor x="528.2" y="1303.0" name="_top"/>
  <anchor x="528.2" y="1676.0" name="top"/>
  <outline>
    <contour>
      <point x="302.4" y="1259.0" type="curve" smooth="yes"/>
      <point x="392.6" y="1259.0"/>
      <point x="465.6" y="1331.0"/>
      <point x="465.6" y="1417.6" type="curve" smooth="yes"/>
      <point x="465.6" y="1505.4"/>
      <point x="392.6" y="1575.2"/>
      <point x="302.4" y="1575.2" type="curve" smooth="yes"/>
      <point x="211.0" y="1575.2"/>
      <point x="137.4" y="1505.4"/>
      <point x="137.4" y="1417.6" type="curve" smooth="yes"/>
      <point x="137.4" y="1331.0"/>
      <point x="211.0" y="1259.0"/>
    </contour>
    <contour>
      <point x="756.6" y="1259.0" type="curve" smooth="yes"/>
      <point x="846.6" y="1259.0"/>
      <point x="919.0" y="1331.0"/>
      <point x="919.0" y="1417.6" type="curve" smooth="yes"/>
      <point x="919.0" y="1505.4"/>
      <point x="846.6" y="1575.2"/>
      <point x="756.6" y="1575.2" type="curve" smooth="yes"/>
      <point x="665.0" y="1575.2"/>
      <point x="590.8" y="1505.4"/>
      <point x="590.8" y="1417.6" type="curve" smooth="yes"/>
      <point x="590.8" y="1331.0"/>
      <point x="665.0" y="1259.0"/>
    </contour>
  </outline>
</glyph>
<glyph name="copyright" format="2">
  <advance height="2479.0" width="1873.0"/>
  <unicode hex="00A9"/>
  <outline>
    <contour>
      <point x="538.4" y="745.0" type="curve" smooth="yes"/>
      <point x="538.4" y="522.8"/>
      <point x="719.4" y="341.8"/>
      <point x="941.6" y="341.8" type="curve" smooth="yes"/>
      <point x="1138.2" y="341.8"/>
      <point x="1299.4" y="483.6"/>
      <point x="1320.2" y="670.4" type="curve"/>
      <point x="1090.6" y="670.4" type="line"/>
      <point x="1077.6" y="606.4"/>
      <point x="1016.0" y="561.8"/>
      <point x="941.6" y="561.8" type="curve" smooth="yes"/>
      <point x="841.4" y="561.8"/>
      <point x="758.6" y="644.6"/>
      <point x="758.6" y="745.8" type="curve" smooth="yes"/>
      <point x="758.6" y="846.8"/>
      <point x="841.4" y="928.0"/>
      <point x="941.6" y="928.0" type="curve" smooth="yes"/>
      <point x="1016.0" y="928.0"/>
      <point x="1080.8" y="883.4"/>
      <point x="1093.4" y="819.6" type="curve"/>
      <point x="1323.0" y="819.6" type="line"/>
      <point x="1302.4" y="1005.4"/>
      <point x="1138.2" y="1147.4"/>
      <point x="941.6" y="1147.4" type="curve" smooth="yes"/>
      <point x="719.4" y="1147.4"/>
      <point x="538.4" y="967.0"/>
    </contour>
    <component base="whiteCircle"/>
  </outline>
</glyph>
<glyph name="ordfeminine" format="2">
  <advance height="2479.0" width="1023.8"/>
  <unicode hex="00AA"/>
  <outline>
    <contour>
      <point x="638.0" y="861.0" type="line"/>
      <point x="638.0" y="804.2"/>
      <point x="648.6" y="749.0"/>
      <point x="663.4" y="704.6" type="curve"/>
      <point x="847.8" y="704.6" type="line"/>
      <point x="822.8" y="769.8"/>
      <point x="819.2" y="832.6"/>
      <point x="819.2" y="887.0" type="curve" smooth="yes"/>
      <point x="819.2" y="1201.0" type="line"/>
      <point x="819.2" y="1385.0"/>
      <point x="698.4" y="1478.0"/>
      <point x="516.2" y="1478.0" type="curve" smooth="yes"/>
      <point x="323.2" y="1478.0"/>
      <point x="194.0" y="1379.0"/>
      <point x="194.0" y="1242.6" type="curve"/>
      <point x="374.8" y="1231.0" type="line"/>
      <point x="374.8" y="1295.0"/>
      <point x="426.8" y="1329.0"/>
      <point x="516.2" y="1329.0" type="curve" smooth="yes"/>
      <point x="600.0" y="1329.0"/>
      <point x="638.0" y="1281.2"/>
      <point x="638.0" y="1201.0" type="curve"/>
    </contour>
    <contour>
      <point x="683.4" y="1149.6" type="line"/>
      <point x="533.6" y="1149.6" type="line"/>
      <point x="294.0" y="1149.6"/>
      <point x="178.6" y="1068.0"/>
      <point x="178.6" y="919.0" type="curve" smooth="yes"/>
      <point x="178.6" y="783.0"/>
      <point x="271.0" y="692.0"/>
      <point x="435.8" y="692.0" type="curve" smooth="yes"/>
      <point x="577.6" y="692.0"/>
      <point x="655.0" y="766.2"/>
      <point x="686.4" y="832.6" type="curve"/>
      <point x="669.4" y="951.0" type="line"/>
      <point x="669.4" y="902.0"/>
      <point x="565.6" y="835.6"/>
      <point x="482.2" y="835.6" type="curve" smooth="yes"/>
      <point x="397.8" y="835.6"/>
      <point x="360.4" y="870.0"/>
      <point x="360.4" y="922.6" type="curve" smooth="yes"/>
      <point x="360.4" y="980.6"/>
      <point x="415.2" y="1033.6"/>
      <point x="533.6" y="1033.6" type="curve"/>
      <point x="683.4" y="1033.6" type="line"/>
    </contour>
  </outline>
</glyph>
<glyph name="logicalnot" format="2">
  <advance height="2479.0" width="1214.6"/>
  <unicode hex="00AC"/>
  <outline>
    <contour>
      <point x="1044.0" y="806.0" type="line"/>
      <point x="176.2" y="806.0" type="line"/>
      <point x="176.2" y="634.0" type="line"/>
      <point x="1044.0" y="634.0" type="line"/>
    </contour>
    <contour>
      <point x="1044.0" y="727.0" type="line"/>
      <point x="835.8" y="727.0" type="line"/>
      <point x="835.8" y="375.0" type="line"/>
      <point x="1044.0" y="375.0" type="line"/>
    </contour>
  </outline>
</glyph>
<glyph name="registered" format="2">
  <advance height="2479.0" width="1354.6"/>
  <unicode hex="00AE"/>
  <outline>
    <contour>
      <point x="464.6" y="666.0" type="line"/>
      <point x="611.4" y="666.0" type="line"/>
      <point x="611.4" y="1094.4" type="line"/>
      <point x="692.2" y="1094.4" type="line" smooth="yes"/>
      <point x="734.4" y="1094.4"/>
      <point x="764.4" y="1072.2"/>
      <point x="764.4" y="1023.0" type="curve" smooth="yes"/>
      <point x="764.4" y="975.8"/>
      <point x="734.8" y="951.8"/>
      <point x="691.6" y="951.8" type="curve" smooth="yes"/>
      <point x="544.4" y="951.8" type="line"/>
      <point x="544.4" y="845.6" type="line"/>
      <point x="718.0" y="845.6" type="line" smooth="yes"/>
      <point x="834.6" y="845.6"/>
      <point x="916.6" y="909.8"/>
      <point x="916.6" y="1023.0" type="curve" smooth="yes"/>
      <point x="916.6" y="1135.2"/>
      <point x="837.6" y="1203.0"/>
      <point x="723.8" y="1203.0" type="curve" smooth="yes"/>
      <point x="464.6" y="1203.0" type="line"/>
    </contour>
    <contour>
      <point x="813.4" y="912.6" type="line"/>
      <point x="661.8" y="912.6" type="line"/>
      <point x="771.2" y="666.0" type="line"/>
      <point x="931.4" y="666.0" type="line"/>
    </contour>
    <contour>
      <point x="677.4" y="346.0" type="curve" smooth="yes"/>
      <point x="999.2" y="346.0"/>
      <point x="1259.2" y="607.0"/>
      <point x="1259.2" y="928.0" type="curve" smooth="yes"/>
      <point x="1259.2" y="1249.0"/>
      <point x="998.4" y="1510.0"/>
      <point x="677.4" y="1510.0" type="curve" smooth="yes"/>
      <point x="355.4" y="1510.0"/>
      <point x="95.4" y="1249.0"/>
      <point x="95.4" y="928.0" type="curve" smooth="yes"/>
      <point x="95.4" y="607.0"/>
      <point x="355.4" y="346.0"/>
    </contour>
    <contour>
      <point x="677.4" y="504.4" type="curve" smooth="yes"/>
      <point x="443.6" y="504.4"/>
      <point x="253.6" y="694.4"/>
      <point x="253.6" y="928.0" type="curve" smooth="yes"/>
      <point x="253.6" y="1161.6"/>
      <point x="443.6" y="1351.6"/>
      <point x="677.4" y="1351.6" type="curve" smooth="yes"/>
      <point x="911.0" y="1351.6"/>
      <point x="1101.0" y="1161.6"/>
      <point x="1101.0" y="928.0" type="curve" smooth="yes"/>
      <point x="1101.0" y="693.6"/>
      <point x="911.8" y="504.4"/>
    </contour>
  </outline>
</glyph>
<glyph name="macron" format="2">
  <advance height="2479.0" width="1235.8"/>
  <unicode hex="00AF"/>
  <anchor x="617.6" y="1303.0" name="_top"/>
  <outline>
    <contour>
      <point x="976.8" y="1489.0" type="line"/>
      <point x="259.0" y="1489.0" type="line"/>
      <point x="259.0" y="1313.6" type="line"/>
      <point x="976.8" y="1313.6" type="line"/>
    </contour>
  </outline>
</glyph>
<glyph name="degree" format="2">
  <advance height="2479.0" width="944.6"/>
  <unicode hex="00B0"/>
  <outline>
    <contour>
      <point x="472.2" y="768.8" type="curve" smooth="yes"/>
      <point x="674.0" y="768.8"/>
      <point x="837.6" y="932.4"/>
      <point x="837.6" y="1134.2" type="curve" smooth="yes"/>
      <point x="837.6" y="1335.8"/>
      <point x="674.0" y="1498.6"/>
      <point x="472.2" y="1498.6" type="curve" smooth="yes"/>
      <point x="270.6" y="1498.6"/>
      <point x="107.8" y="1335.8"/>
      <point x="107.8" y="1134.2" type="curve" smooth="yes"/>
      <point x="107.8" y="932.4"/>
      <point x="270.6" y="768.8"/>
    </contour>
    <contour>
      <point x="472.2" y="996.2" type="curve" smooth="yes"/>
      <point x="396.2" y="996.2"/>
      <point x="334.4" y="1058.0"/>
      <point x="334.4" y="1134.2" type="curve" smooth="yes"/>
      <point x="334.4" y="1210.2"/>
      <point x="396.2" y="1272.0"/>
      <point x="472.2" y="1272.0" type="curve" smooth="yes"/>
      <point x="548.4" y="1272.0"/>
      <point x="610.2" y="1210.2"/>
      <point x="610.2" y="1134.2" type="curve" smooth="yes"/>
      <point x="610.2" y="1058.0"/>
      <point x="548.4" y="996.2"/>
    </contour>
  </outline>
</glyph>
<glyph name="plusminus" format="2">
  <advance height="2479.0" width="1406.0"/>
  <unicode hex="00B1"/>
  <outline>
    <contour>
      <point x="176.6" y="51.599999999999994" type="line"/>
      <point x="1229.4" y="51.599999999999994" type="line"/>
      <point x="1229.4" y="325.8" type="line"/>
      <point x="176.6" y="325.8" type="line"/>
    </contour>
    <contour>
      <point x="176.6" y="661.8" type="line"/>
      <point x="1229.4" y="661.8" type="line"/>
      <point x="1229.4" y="927.2" type="line"/>
      <point x="176.6" y="927.2" type="line"/>
    </contour>
    <contour>
      <point x="556.2" y="425.8" type="line"/>
      <point x="849.6" y="425.8" type="line"/>
      <point x="849.6" y="1163.4" type="line"/>
      <point x="556.2" y="1163.4" type="line"/>
    </contour>
  </outline>
</glyph>
<glyph name="twosuperior" format="2">
  <advance height="2479.0" width="870.6"/>
  <unicode hex="00B2"/>
  <anchor x="607.0" y="1235.0" name="cross"/>
  <outline>
    <contour>
      <point x="85.2" y="745.0" type="line"/>
      <point x="808.4" y="745.0" type="line"/>
      <point x="808.4" y="945.0" type="line"/>
      <point x="437.8" y="945.0" type="line"/>
      <point x="437.8" y="953.4" type="line"/>
      <point x="548.4" y="1025.6" type="line" smooth="yes"/>
      <point x="724.4" y="1132.8"/>
      <point x="803.2" y="1230.6"/>
      <point x="803.2" y="1361.8" type="curve" smooth="yes"/>
      <point x="803.2" y="1522.4"/>
      <point x="661.0" y="1649.0"/>
      <point x="436.2" y="1649.0" type="curve" smooth="yes"/>
      <point x="218.6" y="1649.0"/>
      <point x="63.199999999999996" y="1536.6"/>
      <point x="63.199999999999996" y="1342.6" type="curve"/>
      <point x="298.2" y="1342.6" type="line"/>
      <point x="298.2" y="1419.0"/>
      <point x="352.2" y="1456.8"/>
      <point x="433.2" y="1456.8" type="curve" smooth="yes"/>
      <point x="509.0" y="1456.8"/>
      <point x="570.4" y="1422.6"/>
      <point x="570.4" y="1358.8" type="curve" smooth="yes"/>
      <point x="570.4" y="1294.8"/>
      <point x="518.4" y="1255.8"/>
      <point x="444.4" y="1197.8" type="curve" smooth="yes"/>
      <point x="85.2" y="921.2" type="line"/>
    </contour>
  </outline>
</glyph>
<glyph name="threesuperior" format="2">
  <advance height="2479.0" width="913.8"/>
  <unicode hex="00B3"/>
  <outline>
    <contour>
      <point x="453.4" y="733.0" type="curve" smooth="yes"/>
      <point x="683.4" y="733.0"/>
      <point x="853.0" y="844.0"/>
      <point x="853.0" y="1004.0" type="curve" smooth="yes"/>
      <point x="853.0" y="1118.4"/>
      <point x="770.2" y="1191.2"/>
      <point x="629.6" y="1201.6" type="curve"/>
      <point x="629.6" y="1210.0" type="line"/>
      <point x="729.8" y="1223.2"/>
      <point x="813.2" y="1285.8"/>
      <point x="813.2" y="1390.8" type="curve" smooth="yes"/>
      <point x="813.2" y="1533.0"/>
      <point x="673.4" y="1649.0"/>
      <point x="458.8" y="1649.0" type="curve" smooth="yes"/>
      <point x="246.4" y="1649.0"/>
      <point x="83.0" y="1540.2"/>
      <point x="80.0" y="1381.4" type="curve"/>
      <point x="315.0" y="1381.4" type="line"/>
      <point x="318.0" y="1425.6"/>
      <point x="378.2" y="1456.8"/>
      <point x="456.4" y="1456.8" type="curve" smooth="yes"/>
      <point x="527.4" y="1456.8"/>
      <point x="575.2" y="1425.0"/>
      <point x="575.2" y="1374.6" type="curve" smooth="yes"/>
      <point x="575.2" y="1325.6"/>
      <point x="522.2" y="1289.6"/>
      <point x="437.4" y="1289.6" type="curve" smooth="yes"/>
      <point x="325.2" y="1289.6" type="line"/>
      <point x="325.2" y="1108.6" type="line"/>
      <point x="437.4" y="1108.6" type="line" smooth="yes"/>
      <point x="538.0" y="1108.6"/>
      <point x="597.2" y="1071.4"/>
      <point x="597.2" y="1020.0" type="curve" smooth="yes"/>
      <point x="597.2" y="964.4"/>
      <point x="532.2" y="936.0"/>
      <point x="453.4" y="936.0" type="curve" smooth="yes"/>
      <point x="376.0" y="936.0"/>
      <point x="315.6" y="960.8"/>
      <point x="310.2" y="1006.2" type="curve"/>
      <point x="59.0" y="1006.2" type="line"/>
      <point x="64.4" y="843.4"/>
      <point x="227.0" y="733.0"/>
    </contour>
  </outline>
</glyph>
<glyph name="acute" format="2">
  <advance height="2479.0" width="1018.0"/>
  <unicode hex="00B4"/>
  <anchor x="504.4" y="1303.0" name="_top"/>
  <anchor x="509.0" y="1676.0" name="top"/>
  <outline>
    <contour>
      <point x="381.4" y="1259.2" type="line"/>
      <point x="623.8" y="1259.2" type="line"/>
      <point x="843.4" y="1587.6" type="line"/>
      <point x="529.0" y="1587.6" type="line"/>
    </contour>
  </outline>
</glyph>
<glyph name="micro" format="2">
  <advance height="2479.0" width="1394.8"/>
  <unicode hex="00B5"/>
  <outline>
    <contour>
      <point x="113.0" y="-400.6" type="line"/>
      <point x="452.2" y="-400.6" type="line"/>
      <point x="452.2" y="156.4" type="line"/>
      <point x="461.0" y="156.4" type="line"/>
      <point x="500.6" y="66.4"/>
      <point x="589.8" y="13.0"/>
      <point x="697.8" y="13.0" type="curve" smooth="yes"/>
      <point x="805.0" y="13.0"/>
      <point x="895.2" y="66.4"/>
      <point x="934.6" y="156.4" type="curve"/>
      <point x="943.4" y="156.4" type="line"/>
      <point x="943.4" y="0.0" type="line"/>
      <point x="1282.6" y="0.0" type="line"/>
      <point x="1282.6" y="1117.0" type="line"/>
      <point x="926.6" y="1117.0" type="line"/>
      <point x="926.6" y="482.6" type="line" smooth="yes"/>
      <point x="927.4" y="363.2"/>
      <point x="833.4" y="279.0"/>
      <point x="697.8" y="279.0" type="curve" smooth="yes"/>
      <point x="563.0" y="279.0"/>
      <point x="469.0" y="363.0"/>
      <point x="468.20000000000005" y="482.6" type="curve" smooth="yes"/>
      <point x="468.20000000000005" y="1117.0" type="line"/>
      <point x="113.0" y="1117.0" type="line"/>
    </contour>
  </outline>
</glyph>
<glyph name="paragraph" format="2">
  <advance height="2479.0" width="1256.0"/>
  <unicode hex="00B6"/>
  <outline>
    <contour>
      <point x="961.4" y="1225.0" type="line"/>
      <point x="961.4" y="1489.0" type="line"/>
      <point x="606.8" y="1489.0" type="line" smooth="yes"/>
      <point x="275.4" y="1489.0"/>
      <point x="96.6" y="1289.0"/>
      <point x="96.6" y="1021.0" type="curve" smooth="yes"/>
      <point x="96.6" y="751.0"/>
      <point x="275.4" y="553.0"/>
      <point x="606.8" y="553.0" type="curve" smooth="yes"/>
      <point x="693.4" y="553.0" type="line"/>
      <point x="693.4" y="1225.0" type="line"/>
    </contour>
    <contour>
      <point x="874.2" y="0.0" type="line"/>
      <point x="1143.0" y="0.0" type="line"/>
      <point x="1143.0" y="1489.0" type="line"/>
      <point x="874.2" y="1489.0" type="line"/>
    </contour>
  </outline>
</glyph>
<glyph name="cedilla" format="2">
  <advance height="2479.0" width="839.8"/>
  <unicode hex="00B8"/>
  <anchor x="421.4" y="0.0" name="_cedilla"/>
  <outline>
    <contour>
      <point x="350.4" y="6.0" type="line"/>
      <point x="316.6" y="-143.4" type="line"/>
      <point x="413.8" y="-157.0"/>
      <point x="460.0" y="-189.4"/>
      <point x="457.6" y="-246.0" type="curve" smooth="yes"/>
      <point x="454.4" y="-306.6"/>
      <point x="379.4" y="-336.6"/>
      <point x="247.0" y="-336.6" type="curve"/>
      <point x="248.0" y="-483.2" type="line"/>
      <point x="505.8" y="-483.2"/>
      <point x="659.6" y="-389.0"/>
      <point x="658.0" y="-237.6" type="curve" smooth="yes"/>
      <point x="657.2" y="-139.8"/>
      <point x="588.4" y="-76.0"/>
      <point x="481.4" y="-59.2" type="curve"/>
      <point x="492.4" y="6.0" type="line"/>
    </contour>
  </outline>
</glyph>
<glyph name="onesuperior" format="2">
  <advance height="2479.0" width="662.6"/>
  <unicode hex="00B9"/>
  <outline>
    <contour>
      <point x="286.2" y="745.0" type="line"/>
      <point x="518.8" y="745.0" type="line"/>
      <point x="518.8" y="1638.0" type="line"/>
      <point x="302.2" y="1638.0" type="line"/>
      <point x="72.2" y="1494.6" type="line"/>
      <point x="72.2" y="1291.8" type="line"/>
      <point x="280.6" y="1419.8" type="line"/>
      <point x="286.2" y="1419.8" type="line"/>
    </contour>
  </outline>
</glyph>
<glyph name="ordmasculine" format="2">
  <advance height="2479.0" width="1016.6"/>
  <unicode hex="00BA"/>
  <outline>
    <contour>
      <point x="148.2" y="1044.0" type="line"/>
      <point x="148.2" y="838.0"/>
      <point x="287.0" y="689.6"/>
      <point x="511.8" y="689.6" type="curve" smooth="yes"/>
      <point x="733.4" y="689.6"/>
      <point x="868.4" y="838.0"/>
      <point x="868.4" y="1044.0" type="curve"/>
      <point x="868.4" y="1120.6" type="line"/>
      <point x="868.4" y="1329.0"/>
      <point x="731.0" y="1478.0"/>
      <point x="508.8" y="1478.0" type="curve" smooth="yes"/>
      <point x="289.4" y="1478.0"/>
      <point x="148.2" y="1329.0"/>
      <point x="148.2" y="1120.6" type="curve"/>
    </contour>
    <contour>
      <point x="329.6" y="1120.6" type="line"/>
      <point x="329.6" y="1236.6"/>
      <point x="390.0" y="1329.0"/>
      <point x="508.8" y="1329.0" type="curve" smooth="yes"/>
      <point x="629.6" y="1329.0"/>
      <point x="687.0" y="1236.6"/>
      <point x="687.0" y="1120.6" type="curve"/>
      <point x="687.0" y="1044.0" type="line"/>
      <point x="687.0" y="925.0"/>
      <point x="629.6" y="838.0"/>
      <point x="511.8" y="838.0" type="curve" smooth="yes"/>
      <point x="390.0" y="838.0"/>
      <point x="329.6" y="925.0"/>
      <point x="329.6" y="1044.0" type="curve"/>
    </contour>
  </outline>
</glyph>
<glyph name="AE" format="2">
  <advance height="2479.0" width="2137.6"/>
  <unicode hex="00C6"/>
  <anchor x="1347.2" y="1676.0" name="top"/>
  <outline>
    <contour>
      <point x="48.0" y="0.0" type="line"/>
      <point x="443.6" y="0.0" type="line"/>
      <point x="882.4" y="1129.0" type="line"/>
      <point x="985.4" y="1129.0" type="line"/>
      <point x="985.4" y="0.0" type="line"/>
      <point x="2024.4" y="0.0" type="line"/>
      <point x="2024.4" y="292.8" type="line"/>
      <point x="1345.6" y="292.8" type="line"/>
      <point x="1345.6" y="598.8" type="line"/>
      <point x="1970.4" y="598.8" type="line"/>
      <point x="1970.4" y="891.6" type="line"/>
      <point x="1345.6" y="891.6" type="line"/>
      <point x="1345.6" y="1197.0" type="line"/>
      <point x="2024.4" y="1197.0" type="line"/>
      <point x="2024.4" y="1489.0" type="line"/>
      <point x="657.2" y="1489.0" type="line"/>
    </contour>
    <contour>
      <point x="397.0" y="312.4" type="line"/>
      <point x="1194.6" y="312.4" type="line"/>
      <point x="1194.6" y="586.8" type="line"/>
      <point x="397.0" y="586.8" type="line"/>
    </contour>
  </outline>
</glyph>
<glyph name="multiply" format="2">
  <advance height="2479.0" width="1406.0"/>
  <unicode hex="00D7"/>
  <outline>
    <contour>
      <point x="1037.2" y="48.8" type="line"/>
      <point x="1254.4" y="266.2" type="line"/>
      <point x="368.8" y="1151.8" type="line"/>
      <point x="151.4" y="932.2" type="line"/>
    </contour>
    <contour>
      <point x="368.8" y="48.8" type="line"/>
      <point x="1254.4" y="932.2" type="line"/>
      <point x="1037.2" y="1151.8" type="line"/>
      <point x="151.4" y="266.2" type="line"/>
    </contour>
  </outline>
</glyph>
<glyph name="Oslash" format="2">
  <advance height="2479.0" width="1615.0"/>
  <unicode hex="00D8"/>
  <anchor x="808.0" y="0.0" name="bottom"/>
  <anchor x="1001.2" y="3.6000000000000014" name="ogonek"/>
  <anchor x="177.2" y="1489.0" name="tonos"/>
  <anchor x="808.0" y="1676.0" name="top"/>
  <outline>
    <contour>
      <point x="344.4" y="-75.4" type="line"/>
      <point x="1422.0" y="1458.4" type="line"/>
      <point x="1269.4" y="1561.6" type="line"/>
      <point x="192.0" y="28.6" type="line"/>
    </contour>
    <component base="O"/>
  </outline>
</glyph>
<glyph name="Thorn" format="2">
  <advance height="2479.0" width="1400.8"/>
  <unicode hex="00DE"/>
  <outline>
    <contour>
      <point x="113.0" y="1489.0" type="line"/>
      <point x="113.0" y="0.0" type="line"/>
      <point x="472.2" y="0.0" type="line"/>
      <point x="472.2" y="1489.0" type="line"/>
    </contour>
    <contour>
      <point x="278.6" y="1227.4" type="line"/>
      <point x="278.6" y="956.2" type="line"/>
      <point x="667.4" y="956.2" type="line" smooth="yes"/>
      <point x="836.8" y="956.2"/>
      <point x="901.0" y="859.0"/>
      <point x="901.0" y="759.8" type="curve" smooth="yes"/>
      <point x="901.0" y="663.6"/>
      <point x="836.8" y="570.0"/>
      <point x="667.4" y="570.0" type="curve" smooth="yes"/>
      <point x="278.6" y="570.0" type="line"/>
      <point x="278.6" y="300.4" type="line"/>
      <point x="667.4" y="300.4" type="line" smooth="yes"/>
      <point x="1040.4" y="300.4"/>
      <point x="1245.0" y="492.4"/>
      <point x="1245.0" y="762.6" type="curve" smooth="yes"/>
      <point x="1245.0" y="1033.0"/>
      <point x="1040.4" y="1227.4"/>
      <point x="667.4" y="1227.4" type="curve" smooth="yes"/>
    </contour>
  </outline>
</glyph>
<glyph name="germandbls" format="2">
  <advance height="2479.0" width="1382.4"/>
  <unicode hex="00DF"/>
  <outline>
    <contour>
      <point x="112.8" y="0.0" type="line"/>
      <point x="468.0" y="0.0" type="line"/>
      <point x="468.0" y="1031.2" type="line" smooth="yes"/>
      <point x="468.0" y="1145.4"/>
      <point x="545.4" y="1217.2"/>
      <point x="665.2" y="1217.2" type="curve" smooth="yes"/>
      <point x="782.8" y="1217.2"/>
      <point x="853.0" y="1147.0"/>
      <point x="852.2" y="1048.8" type="curve" smooth="yes"/>
      <point x="850.6" y="957.8"/>
      <point x="790.6" y="886.8"/>
      <point x="699.6" y="886.8" type="curve" smooth="yes"/>
      <point x="627.4" y="886.8" type="line"/>
      <point x="627.4" y="619.0" type="line"/>
      <point x="736.8" y="619.0" type="line" smooth="yes"/>
      <point x="875.4" y="619.0"/>
      <point x="960.8" y="554.4"/>
      <point x="962.4" y="450.0" type="curve" smooth="yes"/>
      <point x="963.2" y="348.0"/>
      <point x="883.8" y="283.2"/>
      <point x="761.8" y="283.2" type="curve" smooth="yes"/>
      <point x="621.4" y="283.2" type="line"/>
      <point x="621.4" y="0.0" type="line"/>
      <point x="828.4" y="0.0" type="line" smooth="yes"/>
      <point x="1118.4" y="0.0"/>
      <point x="1320.8" y="140.6"/>
      <point x="1322.4" y="410.0" type="curve" smooth="yes"/>
      <point x="1324.0" y="619.4"/>
      <point x="1203.6" y="774.2"/>
      <point x="1009.0" y="785.2" type="curve"/>
      <point x="1009.0" y="802.4" type="line"/>
      <point x="1140.0" y="836.2"/>
      <point x="1216.8" y="952.0"/>
      <point x="1216.8" y="1100.4" type="curve" smooth="yes"/>
      <point x="1216.8" y="1374.4"/>
      <point x="956.4" y="1510.0"/>
      <point x="652.6" y="1510.0" type="curve" smooth="yes"/>
      <point x="323.6" y="1510.0"/>
      <point x="112.8" y="1352.2"/>
      <point x="112.8" y="1092.0" type="curve" smooth="yes"/>
    </contour>
  </outline>
</glyph>
<glyph name="ae" format="2">
  <advance height="2479.0" width="1863.6"/>
  <unicode hex="00E6"/>
  <anchor x="908.4" y="1303.0" name="top"/>
  <outline>
    <contour>
      <point x="1289.4" y="-20.6" type="curve"/>
      <point x="1551.4" y="-20.6"/>
      <point x="1749.4" y="120.4"/>
      <point x="1790.4" y="340.6" type="curve"/>
      <point x="1463.6" y="349.8" type="line"/>
      <point x="1436.4" y="275.4"/>
      <point x="1363.4" y="235.8"/>
      <point x="1271.0" y="235.8" type="curve" smooth="yes"/>
      <point x="1133.6" y="235.8"/>
      <point x="1049.8" y="326.2"/>
      <point x="1049.8" y="463.2" type="curve" smooth="yes"/>
      <point x="1049.8" y="674.2" type="line" smooth="yes"/>
      <point x="1052.2" y="787.6"/>
      <point x="1139.8" y="874.6"/>
      <point x="1260.2" y="874.6" type="curve"/>
      <point x="1376.6" y="874.6"/>
      <point x="1461.4" y="794.0"/>
      <point x="1463.0" y="679.4" type="curve"/>
      <point x="853.6" y="679.4" type="line"/>
      <point x="853.6" y="472.0" type="line"/>
      <point x="1793.8" y="472.0" type="line"/>
      <point x="1793.8" y="561.8" type="line" smooth="yes"/>
      <point x="1793.8" y="929.0"/>
      <point x="1570.0" y="1132.0"/>
      <point x="1253.0" y="1132.0" type="curve" smooth="yes"/>
      <point x="1076.6" y="1132.0"/>
      <point x="941.6" y="1066.8"/>
      <point x="843.0" y="907.4" type="curve"/>
      <point x="867.0" y="217.0" type="line"/>
      <point x="930.6" y="59.8"/>
      <point x="1095.0" y="-20.6"/>
    </contour>
    <contour>
      <point x="537.6" y="214.4" type="curve" smooth="yes"/>
      <point x="455.8" y="214.4"/>
      <point x="397.6" y="253.0"/>
      <point x="397.6" y="327.2" type="curve" smooth="yes"/>
      <point x="397.6" y="399.0"/>
      <point x="453.6" y="442.4"/>
      <point x="554.6" y="457.8" type="curve" smooth="yes"/>
      <point x="620.4" y="467.6"/>
      <point x="702.6" y="482.2"/>
      <point x="742.0" y="503.4" type="curve"/>
      <point x="742.0" y="397.6" type="line" smooth="yes"/>
      <point x="742.0" y="288.2"/>
      <point x="651.2" y="214.4"/>
    </contour>
    <contour>
      <point x="450.8" y="-18.8" type="curve" smooth="yes"/>
      <point x="639.4" y="-18.8"/>
      <point x="815.2" y="51.0"/>
      <point x="880.0" y="176.0" type="curve"/>
      <point x="901.4" y="176.0" type="line"/>
      <point x="928.2" y="963.8" type="line"/>
      <point x="875.8" y="1081.4"/>
      <point x="750.4" y="1132.0"/>
      <point x="608.2" y="1132.0" type="curve" smooth="yes"/>
      <point x="297.6" y="1132.0"/>
      <point x="131.2" y="980.2"/>
      <point x="101.8" y="776.4" type="curve"/>
      <point x="430.4" y="764.8" type="line"/>
      <point x="444.2" y="837.0"/>
      <point x="504.8" y="880.0"/>
      <point x="597.4" y="880.0" type="curve" smooth="yes"/>
      <point x="685.6" y="880.0"/>
      <point x="740.4" y="838.4"/>
      <point x="740.4" y="762.6" type="curve" smooth="yes"/>
      <point x="740.4" y="759.2" type="line" smooth="yes"/>
      <point x="740.4" y="691.6"/>
      <point x="667.6" y="676.8"/>
      <point x="475.6" y="659.6" type="curve" smooth="yes"/>
      <point x="250.39999999999998" y="640.8"/>
      <point x="60.199999999999996" y="557.0"/>
      <point x="60.199999999999996" y="309.8" type="curve" smooth="yes"/>
      <point x="60.199999999999996" y="89.4"/>
      <point x="213.8" y="-18.8"/>
    </contour>
  </outline>
</glyph>
<glyph name="eth" format="2">
  <advance height="2479.0" width="1241.4"/>
  <unicode hex="00F0"/>
  <outline>
    <contour>
      <point x="947.6" y="1397.8" type="line"/>
      <point x="937.6" y="1549.6" type="line"/>
      <point x="227.2" y="1182.4" type="line"/>
      <point x="237.0" y="1031.4" type="line"/>
    </contour>
    <contour>
      <point x="614.6" y="-23.0" type="curve" smooth="yes"/>
      <point x="960.6" y="-23.0"/>
      <point x="1171.6" y="217.2"/>
      <point x="1171.6" y="582.2" type="curve" smooth="yes"/>
      <point x="1171.6" y="1119.2"/>
      <point x="726.6" y="1479.6"/>
      <point x="244.6" y="1567.8" type="curve"/>
      <point x="229.6" y="1388.0" type="line"/>
      <point x="460.4" y="1305.4"/>
      <point x="715.8" y="1131.0"/>
      <point x="820.6" y="916.4" type="curve"/>
      <point x="805.0" y="916.4" type="line"/>
      <point x="744.6" y="980.2"/>
      <point x="651.0" y="1029.4"/>
      <point x="526.8" y="1029.4" type="curve" smooth="yes"/>
      <point x="249.4" y="1029.4"/>
      <point x="69.8" y="801.0"/>
      <point x="69.8" y="512.0" type="curve" smooth="yes"/>
      <point x="69.8" y="191.4"/>
      <point x="288.4" y="-23.0"/>
    </contour>
    <contour>
      <point x="625.0" y="241.4" type="curve" smooth="yes"/>
      <point x="485.8" y="241.4"/>
      <point x="406.4" y="359.6"/>
      <point x="406.4" y="536.8" type="curve" smooth="yes"/>
      <point x="406.4" y="706.6"/>
      <point x="479.4" y="818.6"/>
      <point x="625.0" y="818.6" type="curve" smooth="yes"/>
      <point x="771.8" y="818.6"/>
      <point x="844.0" y="701.0"/>
      <point x="844.0" y="534.4" type="curve" smooth="yes"/>
      <point x="844.0" y="354.0"/>
      <point x="760.4" y="241.4"/>
    </contour>
  </outline>
</glyph>
<glyph name="divide" format="2">
  <advance height="2479.0" width="1406.0"/>
  <unicode hex="00F7"/>
  <outline>
    <contour>
      <point x="1226.4" y="737.4" type="line"/>
      <point x="179.4" y="737.4" type="line"/>
      <point x="179.4" y="463.2" type="line"/>
      <point x="1226.4" y="463.2" type="line"/>
    </contour>
    <contour>
      <point x="703.0" y="-3.200000000000003" type="curve" smooth="yes"/>
      <point x="806.6" y="-3.200000000000003"/>
      <point x="891.0" y="81.19999999999999"/>
      <point x="891.0" y="187.8" type="curve" smooth="yes"/>
      <point x="891.0" y="291.2"/>
      <point x="806.6" y="376.6"/>
      <point x="703.0" y="376.6" type="curve" smooth="yes"/>
      <point x="596.4" y="376.6"/>
      <point x="511.2" y="291.2"/>
      <point x="511.2" y="187.8" type="curve" smooth="yes"/>
      <point x="511.2" y="81.19999999999999"/>
      <point x="596.4" y="-3.200000000000003"/>
    </contour>
    <contour>
      <point x="703.0" y="824.2" type="curve" smooth="yes"/>
      <point x="807.4" y="824.2"/>
      <point x="891.0" y="910.2"/>
      <point x="891.0" y="1016.0" type="curve" smooth="yes"/>
      <point x="891.0" y="1120.4"/>
      <point x="807.4" y="1204.0"/>
      <point x="703.0" y="1204.0" type="curve" smooth="yes"/>
      <point x="597.2" y="1204.0"/>
      <point x="511.2" y="1120.4"/>
      <point x="511.2" y="1016.0" type="curve" smooth="yes"/>
      <point x="511.2" y="910.2"/>
      <point x="597.2" y="824.2"/>
    </contour>
  </outline>
</glyph>
<glyph name="oslash" format="2">
  <advance height="2479.0" width="1268.4"/>
  <unicode hex="00F8"/>
  <anchor x="634.2" y="-2.4000000000000004" name="bottom"/>
  <anchor x="792.6" y="-2.4000000000000004" name="ogonek"/>
  <anchor x="634.2" y="1300.6" name="top"/>
  <outline>
    <contour>
      <point x="304.0" y="-75.4" type="line"/>
      <point x="1116.8" y="1079.6" type="line"/>
      <point x="961.8" y="1183.4" type="line"/>
      <point x="151.6" y="28.6" type="line"/>
    </contour>
    <component base="o" yOffset="-2.4000000000000004"/>
  </outline>
</glyph>
<glyph name="thorn" format="2">
  <advance height="2479.0" width="1257.6"/>
  <unicode hex="00FE"/>
  <outline>
    <contour>
      <point x="113.0" y="1489.0" type="line"/>
      <point x="113.0" y="-419.0" type="line"/>
      <point x="468.20000000000005" y="-419.0" type="line"/>
      <point x="468.20000000000005" y="223.4" type="line"/>
      <point x="338.6" y="537.2" type="line"/>
      <point x="468.20000000000005" y="933.6" type="line"/>
      <point x="468.20000000000005" y="1489.0" type="line"/>
    </contour>
    <contour>
      <point x="326.2" y="1004.8" type="line"/>
      <point x="326.2" y="106.39999999999999" type="line"/>
      <point x="480.6" y="106.39999999999999" type="line"/>
      <point x="521.0" y="19.799999999999997"/>
      <point x="619.6" y="-16.6"/>
      <point x="736.2" y="-16.6" type="curve" smooth="yes"/>
      <point x="979.2" y="-16.6"/>
      <point x="1183.0" y="175.4"/>
      <point x="1183.0" y="558.4" type="curve" smooth="yes"/>
      <point x="1183.0" y="952.0"/>
      <point x="967.2" y="1132.0"/>
      <point x="738.0" y="1132.0" type="curve" smooth="yes"/>
      <point x="613.6" y="1132.0"/>
      <point x="518.6" y="1088.4"/>
      <point x="480.6" y="1004.8" type="curve"/>
    </contour>
    <contour>
      <point x="848.0" y="559.0" type="curve" smooth="yes"/>
      <point x="848.8" y="368.8"/>
      <point x="775.4" y="261.4"/>
      <point x="629.2" y="261.4" type="curve" smooth="yes"/>
      <point x="470.2" y="261.4"/>
      <point x="429.2" y="401.0"/>
      <point x="428.4" y="559.0" type="curve" smooth="yes"/>
      <point x="429.2" y="720.2"/>
      <point x="474.4" y="853.8"/>
      <point x="629.2" y="853.8" type="curve" smooth="yes"/>
      <point x="776.0" y="853.8"/>
      <point x="848.8" y="747.6"/>
    </contour>
  </outline>
</glyph>
<glyph name="dcroat" format="2">
  <advance height="2479.0" width="1311.2"/>
  <unicode hex="0111"/>
  <anchor x="651.0" y="0.0" name="bottom"/>
  <anchor x="1020.2" y="1280.0" name="cross"/>
  <anchor x="1319.4" y="1489.0" name="raccent"/>
  <anchor x="557.4" y="1489.0" name="top"/>
  <outline>
    <contour>
      <point x="559.8" y="1187.6" type="line"/>
      <point x="1314.2" y="1187.6" type="line"/>
      <point x="1314.2" y="1386.2" type="line"/>
      <point x="559.8" y="1386.2" type="line"/>
    </contour>
    <component base="d"/>
  </outline>
</glyph>
<glyph name="Hbar" format="2">
  <advance height="2479.0" width="1681.4"/>
  <unicode hex="0126"/>
  <anchor x="840.4" y="0.0" name="bottom"/>
  <anchor x="364.0" y="-0.5999999999999996" name="cedilla"/>
  <anchor x="1660.8" y="143.2" name="cyrtic"/>
  <anchor x="1493.8" y="0.0" name="right"/>
  <anchor x="152.6" y="1489.0" name="tonos"/>
  <anchor x="842.2" y="1676.6" name="top"/>
  <outline>
    <contour>
      <point x="1617.6" y="1249.4" type="line"/>
      <point x="63.8" y="1249.4" type="line"/>
      <point x="63.8" y="1065.6" type="line"/>
      <point x="1617.6" y="1065.6" type="line"/>
    </contour>
    <component base="H" xOffset="74.80000000000001"/>
  </outline>
</glyph>
<glyph name="Lslash" format="2">
  <advance height="2479.0" width="1215.2"/>
  <unicode hex="0141"/>
  <anchor x="686.6" y="0.0" name="bottom"/>
  <anchor x="375.8" y="784.0" name="cross"/>
  <anchor x="689.0" y="857.2" name="dot"/>
  <anchor x="770.0" y="1489.0" name="raccent"/>
  <anchor x="373.4" y="1676.0" name="top"/>
  <outline>
    <contour>
      <point x="727.6" y="972.6" type="line"/>
      <point x="24.799999999999997" y="784.2" type="line"/>
      <point x="24.799999999999997" y="599.6" type="line"/>
      <point x="727.6" y="786.4" type="line"/>
    </contour>
    <component base="L" xOffset="84.0"/>
  </outline>
</glyph>
<glyph name="Eng" format="2">
  <advance height="2479.0" width="1493.2"/>
  <unicode hex="014A"/>
  <anchor x="747.8" y="0.0" name="bottom"/>
  <anchor x="1435.8" y="0.0" name="right"/>
  <anchor x="747.8" y="1676.0" name="top"/>
  <outline>
    <contour>
      <point x="1075.0" y="0.0" type="line"/>
      <point x="1075.0" y="-46.39999999999999" type="line" smooth="yes"/>
      <point x="1075.0" y="-135.39999999999998"/>
      <point x="1007.6" y="-181.6"/>
      <point x="902.6" y="-181.6" type="curve" smooth="yes"/>
      <point x="858.6" y="-181.6"/>
      <point x="811.2" y="-176.2"/>
      <point x="777.2" y="-168.39999999999998" type="curve"/>
      <point x="777.2" y="-430.8" type="line"/>
      <point x="813.6" y="-443.0"/>
      <point x="858.8" y="-449.4"/>
      <point x="894.6" y="-449.4" type="curve" smooth="yes"/>
      <point x="1192.0" y="-449.4"/>
      <point x="1380.2" y="-353.4"/>
      <point x="1380.2" y="-39.8" type="curve" smooth="yes"/>
      <point x="1380.2" y="0.0" type="line"/>
    </contour>
    <component base="N"/>
  </outline>
</glyph>
<glyph name="eng" format="2">
  <advance height="2479.0" width="1303.6"/>
  <unicode hex="014B"/>
  <anchor x="650.2" y="0.0" name="bottom"/>
  <anchor x="650.2" y="1303.0" name="top"/>
  <outline>
    <contour>
      <point x="834.8" y="18.400000000000002" type="line"/>
      <point x="834.8" y="-23.799999999999997" type="line" smooth="yes"/>
      <point x="834.8" y="-97.6"/>
      <point x="791.2" y="-131.0"/>
      <point x="711.8" y="-131.0" type="curve" smooth="yes"/>
      <point x="671.0" y="-131.0"/>
      <point x="638.8" y="-125.6"/>
      <point x="607.2" y="-117.79999999999998" type="curve"/>
      <point x="579.2" y="-405.2" type="line"/>
      <point x="638.8" y="-416.6"/>
      <point x="695.2" y="-419.0"/>
      <point x="755.0" y="-419.0" type="curve" smooth="yes"/>
      <point x="1018.6" y="-419.0"/>
      <point x="1190.6" y="-288.6"/>
      <point x="1190.6" y="-23.799999999999997" type="curve" smooth="yes"/>
      <point x="1190.6" y="18.400000000000002" type="line"/>
    </contour>
    <component base="n"/>
  </outline>
</glyph>
<glyph name="OE" format="2">
  <advance height="2479.0" width="2128.8"/>
  <unicode hex="0152"/>
  <anchor x="1497.0" y="0.0" name="bottom"/>
  <anchor x="1500.0" y="0.0" name="cedilla"/>
  <anchor x="2016.4" y="0.0" name="ogonek"/>
  <anchor x="935.4" y="1489.0" name="tonos"/>
  <anchor x="1499.8" y="1676.0" name="top"/>
  <outline>
    <contour>
      <point x="780.0" y="0.0" type="curve" smooth="yes"/>
      <point x="1112.8" y="0.0" type="line"/>
      <point x="1112.8" y="292.8" type="line"/>
      <point x="780.0" y="292.8" type="line" smooth="yes"/>
      <point x="593.6" y="292.8"/>
      <point x="459.4" y="409.6"/>
      <point x="459.4" y="742.6" type="curve" smooth="yes"/>
      <point x="459.4" y="1073.8"/>
      <point x="593.6" y="1197.0"/>
      <point x="780.0" y="1197.0" type="curve" smooth="yes"/>
      <point x="1112.8" y="1197.0" type="line"/>
      <point x="1112.8" y="1489.0" type="line"/>
      <point x="780.0" y="1489.0" type="line" smooth="yes"/>
      <point x="393.4" y="1489.0"/>
      <point x="95.6" y="1239.4"/>
      <point x="96.4" y="742.6" type="curve" smooth="yes"/>
      <point x="95.6" y="248.8"/>
      <point x="393.4" y="0.0"/>
    </contour>
    <component base="E" xOffset="864.6"/>
  </outline>
</glyph>
<glyph name="tbar" format="2">
  <advance height="2479.0" width="812.2"/>
  <unicode hex="0167"/>
  <anchor x="454.4" y="0.0" name="bottom"/>
  <anchor x="556.0" y="0.0" name="cedilla"/>
  <anchor x="669.6" y="1562.0" name="raccent"/>
  <anchor x="364.0" y="1531.4" name="top"/>
  <outline>
    <contour>
      <point x="38.4" y="543.8" type="line"/>
      <point x="743.0" y="543.8" type="line"/>
      <point x="743.0" y="696.2" type="line"/>
      <point x="38.4" y="696.2" type="line"/>
    </contour>
    <component base="t"/>
  </outline>
</glyph>
<glyph name="Bhook" format="2">
  <advance height="2479.0" width="1818.2"/>
  <unicode hex="0181"/>
  <anchor x="1117.8" y="0.0" name="bottom"/>
  <anchor x="1118.4" y="1676.0" name="top"/>
  <outline>
    <contour>
      <point x="773.8" y="1199.4" type="line"/>
      <point x="773.8" y="1489.0" type="line"/>
      <point x="532.8" y="1489.0" type="line" smooth="yes"/>
      <point x="244.8" y="1489.0"/>
      <point x="63.0" y="1334.4"/>
      <point x="63.8" y="1076.2" type="curve" smooth="yes"/>
      <point x="63.8" y="914.8" type="line"/>
      <point x="381.6" y="914.8" type="line"/>
      <point x="381.6" y="1011.4" type="line" smooth="yes"/>
      <point x="380.8" y="1100.4"/>
      <point x="411.6" y="1199.4"/>
      <point x="533.4" y="1199.4" type="curve" smooth="yes"/>
    </contour>
    <component base="B" xOffset="458.20000000000005"/>
  </outline>
</glyph>
<glyph name="btopbar" format="2">
  <advance height="2479.0" width="1311.0"/>
  <unicode hex="0183"/>
  <anchor x="642.6" y="0.0" name="bottom"/>
  <anchor x="288.8" y="1280.0" name="cross"/>
  <anchor x="803.0" y="1303.0" name="top"/>
  <outline>
    <contour>
      <point x="1074.0" y="1489.0" type="line"/>
      <point x="305.8" y="1489.0" type="line"/>
      <point x="305.8" y="1245.8" type="line"/>
      <point x="1074.0" y="1245.8" type="line"/>
    </contour>
    <component base="b"/>
  </outline>
</glyph>
<glyph name="Tonesix" format="2">
  <advance height="2479.0" width="1654.2"/>
  <unicode hex="0184"/>
  <outline>
    <contour>
      <point x="680.4" y="1489.0" type="line"/>
      <point x="27.2" y="1489.0" type="line"/>
      <point x="27.2" y="1197.0" type="line"/>
      <point x="680.4" y="1197.0" type="line"/>
    </contour>
    <contour>
      <point x="615.0" y="964.0" type="line"/>
      <point x="615.0" y="685.6" type="line"/>
      <point x="946.4" y="685.6" type="line"/>
      <point x="1104.0" y="685.6"/>
      <point x="1189.0" y="601.0"/>
      <point x="1189.0" y="490.8" type="curve"/>
      <point x="1189.0" y="376.2"/>
      <point x="1104.0" y="285.0"/>
      <point x="946.4" y="285.0" type="curve"/>
      <point x="750.0" y="285.0" type="line"/>
      <point x="750.0" y="1489.0" type="line"/>
      <point x="390.6" y="1489.0" type="line"/>
      <point x="390.6" y="0.0" type="line"/>
      <point x="946.4" y="0.0" type="line"/>
      <point x="1311.2" y="0.0"/>
      <point x="1546.2" y="199.2"/>
      <point x="1546.2" y="487.8" type="curve"/>
      <point x="1546.2" y="777.2"/>
      <point x="1311.2" y="964.0"/>
      <point x="946.4" y="964.0" type="curve"/>
    </contour>
  </outline>
</glyph>
<glyph name="tonesix" format="2">
  <advance height="2479.0" width="1495.0"/>
  <unicode hex="0185"/>
  <outline>
    <contour>
      <point x="1021.2" y="-23.0" type="curve" smooth="yes"/>
      <point x="1273.4" y="-23.0"/>
      <point x="1421.4" y="139.2"/>
      <point x="1420.6" y="416.8" type="curve" smooth="yes"/>
      <point x="1420.6" y="694.2"/>
      <point x="1273.0" y="850.6"/>
      <point x="1042.0" y="850.4" type="curve" smooth="yes"/>
      <point x="918.2" y="850.6"/>
      <point x="820.6" y="804.6"/>
      <point x="762.8" y="733.8" type="curve"/>
      <point x="755.2" y="733.8" type="line"/>
      <point x="756.8" y="1117.0" type="line"/>
      <point x="402.2" y="1117.0" type="line"/>
      <point x="402.2" y="911.2" type="line"/>
      <point x="398.6" y="911.2" type="line"/>
      <point x="398.6" y="0.8" type="line"/>
      <point x="753.4000000000001" y="0.8" type="line"/>
      <point x="753.4000000000001" y="76.0" type="line"/>
      <point x="762.8" y="76.0" type="line"/>
      <point x="806.4000000000001" y="12.799999999999997"/>
      <point x="902.2" y="-23.0"/>
    </contour>
    <contour>
      <point x="910.6" y="243.0" type="curve" smooth="yes"/>
      <point x="812.6" y="243.0"/>
      <point x="756.2" y="308.4"/>
      <point x="756.2" y="415.4" type="curve" smooth="yes"/>
      <point x="756.2" y="520.4"/>
      <point x="812.6" y="581.4"/>
      <point x="911.0" y="581.4" type="curve" smooth="yes"/>
      <point x="1008.8" y="581.4"/>
      <point x="1064.8" y="519.6"/>
      <point x="1065.6" y="414.2" type="curve" smooth="yes"/>
      <point x="1066.4" y="309.6"/>
      <point x="1009.6" y="243.0"/>
    </contour>
    <contour>
      <point x="291.4" y="596.2" type="line"/>
      <point x="608.0" y="911.2" type="line"/>
      <point x="402.2" y="1117.0" type="line"/>
      <point x="84.80000000000001" y="801.2" type="line"/>
    </contour>
  </outline>
</glyph>
<glyph name="Chook" format="2">
  <advance height="2479.0" width="1761.6"/>
  <unicode hex="0187"/>
  <anchor x="796.0" y="2.4000000000000004" name="cedilla"/>
  <anchor x="803.2" y="1676.0" name="top"/>
  <outline>
    <contour>
      <point x="1465.4" y="949.6" type="line"/>
      <point x="1465.4" y="1054.0" type="line" smooth="yes"/>
      <point x="1465.4" y="1203.0"/>
      <point x="1585.8" y="1252.2"/>
      <point x="1678.8" y="1252.2" type="curve" smooth="yes"/>
      <point x="1704.4" y="1252.2"/>
      <point x="1752.6" y="1249.4"/>
      <point x="1778.6" y="1248.8" type="curve"/>
      <point x="1778.6" y="1533.8" type="line"/>
      <point x="1717.4" y="1542.8"/>
      <point x="1670.6" y="1542.8"/>
      <point x="1614.8" y="1542.8" type="curve" smooth="yes"/>
      <point x="1351.8" y="1542.8"/>
      <point x="1119.0" y="1390.8"/>
      <point x="1119.0" y="1107.6" type="curve" smooth="yes"/>
      <point x="1119.0" y="949.6" type="line"/>
    </contour>
    <component base="C"/>
  </outline>
</glyph>
<glyph name="chook" format="2">
  <advance height="2479.0" width="1339.0"/>
  <unicode hex="0188"/>
  <anchor x="635.4" y="0.0" name="cedilla"/>
  <anchor x="635.4" y="1303.0" name="top"/>
  <outline>
    <contour>
      <point x="1157.2" y="678.2" type="line"/>
      <point x="1157.2" y="853.6" type="line" smooth="yes"/>
      <point x="1157.2" y="951.2"/>
      <point x="1192.8" y="991.0"/>
      <point x="1278.6" y="991.0" type="curve" smooth="yes"/>
      <point x="1308.2" y="991.0"/>
      <point x="1333.2" y="985.6"/>
      <point x="1361.6" y="982.6" type="curve"/>
      <point x="1361.6" y="1204.6" type="line"/>
      <point x="1312.4" y="1218.4"/>
      <point x="1268.0" y="1225.6"/>
      <point x="1222.6" y="1225.6" type="curve" smooth="yes"/>
      <point x="1000.6" y="1225.6"/>
      <point x="831.8" y="1092.0"/>
      <point x="831.8" y="856.0" type="curve" smooth="yes"/>
      <point x="831.8" y="678.2" type="line"/>
    </contour>
    <component base="c"/>
  </outline>
</glyph>
<glyph name="Dhook" format="2">
  <advance height="2479.0" width="1957.4"/>
  <unicode hex="018A"/>
  <anchor x="1126.8" y="0.0" name="bottom"/>
  <anchor x="754.0" y="784.0" name="cross"/>
  <anchor x="1060.0" y="1676.0" name="top"/>
  <outline>
    <contour>
      <point x="63.8" y="914.8" type="line"/>
      <point x="381.6" y="914.8" type="line"/>
      <point x="381.6" y="1011.4" type="line" smooth="yes"/>
      <point x="380.8" y="1100.4"/>
      <point x="411.6" y="1182.6"/>
      <point x="533.4" y="1182.6" type="curve" smooth="yes"/>
      <point x="773.8" y="1182.6" type="line"/>
      <point x="773.8" y="1489.0" type="line"/>
      <point x="532.8" y="1489.0" type="line" smooth="yes"/>
      <point x="244.8" y="1489.0"/>
      <point x="63.0" y="1334.4"/>
      <point x="63.8" y="1076.2" type="curve" smooth="yes"/>
    </contour>
    <component base="D" xOffset="462.20000000000005"/>
  </outline>
</glyph>
<glyph name="Dtopbar" format="2">
  <advance height="2479.0" width="1328.2"/>
  <unicode hex="018B"/>
  <outline>
    <contour>
      <point x="659.0" y="0.0" type="curve" smooth="yes"/>
      <point x="1215.4" y="0.0" type="line"/>
      <point x="1215.4" y="1489.0" type="line"/>
      <point x="197.39999999999998" y="1489.0" type="line"/>
      <point x="197.39999999999998" y="1197.0" type="line"/>
      <point x="855.4" y="1197.0" type="line"/>
      <point x="855.4" y="964.0" type="line"/>
      <point x="659.0" y="964.0" type="line" smooth="yes"/>
      <point x="295.0" y="964.0"/>
      <point x="60.0" y="777.2"/>
      <point x="60.0" y="487.8" type="curve" smooth="yes"/>
      <point x="60.0" y="199.2"/>
      <point x="295.0" y="0.0"/>
    </contour>
    <contour>
      <point x="659.0" y="285.0" type="line" smooth="yes"/>
      <point x="502.2" y="285.0"/>
      <point x="416.4" y="376.2"/>
      <point x="416.4" y="490.8" type="curve" smooth="yes"/>
      <point x="416.4" y="601.0"/>
      <point x="502.2" y="685.6"/>
      <point x="659.0" y="685.6" type="curve" smooth="yes"/>
      <point x="855.4" y="685.6" type="line"/>
      <point x="855.4" y="285.0" type="line"/>
    </contour>
  </outline>
</glyph>
<glyph name="deltaturned" format="2">
  <advance height="2479.0" width="1231.6"/>
  <unicode hex="018D"/>
  <outline>
    <contour>
      <point x="597.2" y="-448.6" type="curve" smooth="yes"/>
      <point x="862.4" y="-448.6"/>
      <point x="1035.8" y="-325.8"/>
      <point x="1035.0" y="-139.6" type="curve" smooth="yes"/>
      <point x="1034.2" y="-28.2"/>
      <point x="970.2" y="61.6"/>
      <point x="844.0" y="133.8" type="curve"/>
      <point x="844.0" y="139.0" type="line"/>
      <point x="1036.8" y="187.8"/>
      <point x="1161.8" y="371.8"/>
      <point x="1161.8" y="609.6" type="curve" smooth="yes"/>
      <point x="1161.8" y="931.4"/>
      <point x="931.4" y="1131.6"/>
      <point x="617.8" y="1131.6" type="curve" smooth="yes"/>
      <point x="281.8" y="1131.6"/>
      <point x="69.8" y="902.6"/>
      <point x="69.8" y="577.4" type="curve" smooth="yes"/>
      <point x="69.8" y="258.2"/>
      <point x="274.4" y="77.6"/>
      <point x="523.6" y="-5.200000000000003" type="curve" smooth="yes"/>
      <point x="641.4" y="-44.6"/>
      <point x="680.0" y="-83.8"/>
      <point x="680.0" y="-124.19999999999999" type="curve" smooth="yes"/>
      <point x="680.0" y="-169.8"/>
      <point x="632.6" y="-197.0"/>
      <point x="545.0" y="-197.0" type="curve" smooth="yes"/>
      <point x="481.4" y="-197.0"/>
      <point x="393.0" y="-182.6"/>
      <point x="325.6" y="-155.0" type="curve"/>
      <point x="325.6" y="-405.4" type="line"/>
      <point x="420.2" y="-434.8"/>
      <point x="508.2" y="-448.6"/>
    </contour>
    <contour>
      <point x="613.6" y="250.0" type="curve"/>
      <point x="480.0" y="275.4"/>
      <point x="432.0" y="411.4"/>
      <point x="432.0" y="603.0" type="curve" smooth="yes"/>
      <point x="432.0" y="698.4"/>
      <point x="460.0" y="865.6"/>
      <point x="614.4" y="865.6" type="curve" smooth="yes"/>
      <point x="766.6" y="865.6"/>
      <point x="799.6" y="704.8"/>
      <point x="799.6" y="568.0" type="curve" smooth="yes"/>
      <point x="799.6" y="381.4"/>
      <point x="755.4" y="250.0"/>
    </contour>
  </outline>
</glyph>
<glyph name="Schwa" format="2">
  <advance height="2479.0" width="1570.6"/>
  <unicode hex="018F"/>
  <outline>
    <contour>
      <point x="757.6" y="-20.0" type="curve" smooth="yes"/>
      <point x="1184.8" y="-20.0"/>
      <point x="1474.2" y="271.4"/>
      <point x="1474.2" y="742.6" type="curve" smooth="yes"/>
      <point x="1474.2" y="1229.6"/>
      <point x="1160.2" y="1510.0"/>
      <point x="762.4" y="1510.0" type="curve" smooth="yes"/>
      <point x="417.8" y="1510.0"/>
      <point x="152.8" y="1300.0"/>
      <point x="117.0" y="1003.2" type="curve"/>
      <point x="480.6" y="1003.2" type="line"/>
      <point x="513.2" y="1124.0"/>
      <point x="611.2" y="1194.6"/>
      <point x="755.2" y="1194.6" type="curve" smooth="yes"/>
      <point x="971.2" y="1194.6"/>
      <point x="1106.6" y="1031.2"/>
      <point x="1106.6" y="747.4" type="curve" smooth="yes"/>
      <point x="1106.6" y="460.4"/>
      <point x="978.4" y="295.20000000000005"/>
      <point x="755.2" y="295.20000000000005" type="curve" smooth="yes"/>
      <point x="556.8" y="295.20000000000005"/>
      <point x="447.8" y="398.0"/>
      <point x="447.8" y="560.0" type="curve"/>
      <point x="380.6" y="552.2" type="line"/>
      <point x="1286.6" y="552.2" type="line"/>
      <point x="1286.6" y="814.6" type="line"/>
      <point x="100.8" y="814.6" type="line"/>
      <point x="100.8" y="617.0" type="line" smooth="yes"/>
      <point x="100.8" y="217.6"/>
      <point x="374.6" y="-20.0"/>
    </contour>
  </outline>
</glyph>
<glyph name="Eopen" format="2">
  <advance height="2479.0" width="1400.8"/>
  <unicode hex="0190"/>
  <outline>
    <contour>
      <point x="683.4" y="-23.0" type="curve" smooth="yes"/>
      <point x="1042.0" y="-23.0"/>
      <point x="1284.8" y="144.0"/>
      <point x="1286.4" y="404.0" type="curve"/>
      <point x="918.8" y="404.0" type="line"/>
      <point x="918.0" y="337.2"/>
      <point x="835.2" y="292.20000000000005"/>
      <point x="707.4" y="292.20000000000005" type="curve" smooth="yes"/>
      <point x="568.6" y="292.20000000000005"/>
      <point x="481.20000000000005" y="341.8"/>
      <point x="481.20000000000005" y="448.2" type="curve" smooth="yes"/>
      <point x="481.20000000000005" y="550.4"/>
      <point x="562.4" y="610.6"/>
      <point x="697.2" y="610.6" type="curve" smooth="yes"/>
      <point x="885.8" y="610.6" type="line"/>
      <point x="885.8" y="803.4" type="line"/>
      <point x="637.6" y="803.4" type="line"/>
      <point x="306.8" y="803.4"/>
      <point x="113.4" y="662.0"/>
      <point x="113.4" y="407.4" type="curve" smooth="yes"/>
      <point x="113.4" y="131.6"/>
      <point x="339.0" y="-23.0"/>
    </contour>
    <contour>
      <point x="637.6" y="708.6" type="curve"/>
      <point x="885.8" y="708.6" type="line"/>
      <point x="885.8" y="905.2" type="line"/>
      <point x="697.2" y="905.2" type="line" smooth="yes"/>
      <point x="573.4" y="905.2"/>
      <point x="505.4" y="967.2"/>
      <point x="505.4" y="1052.2" type="curve" smooth="yes"/>
      <point x="505.4" y="1143.4"/>
      <point x="581.6" y="1194.6"/>
      <point x="710.8" y="1194.6" type="curve" smooth="yes"/>
      <point x="822.4" y="1194.6"/>
      <point x="894.4" y="1154.6"/>
      <point x="895.2" y="1092.0" type="curve"/>
      <point x="1264.0" y="1092.0" type="line"/>
      <point x="1262.4" y="1336.8"/>
      <point x="1030.4" y="1510.0"/>
      <point x="686.2" y="1510.0" type="curve" smooth="yes"/>
      <point x="355.4" y="1510.0"/>
      <point x="136.6" y="1350.6"/>
      <point x="136.6" y="1096.6" type="curve" smooth="yes"/>
      <point x="136.6" y="854.6"/>
      <point x="337.8" y="708.8"/>
    </contour>
  </outline>
</glyph>
<glyph name="Fhook" format="2">
  <advance height="2479.0" width="1257.8"/>
  <unicode hex="0191"/>
  <anchor x="687.0" y="12.0" name="bottom"/>
  <anchor x="352.6" y="269.8" name="cross"/>
  <anchor x="688.4" y="1676.0" name="top"/>
  <outline>
    <contour>
      <point x="173.6" y="0.0" type="line"/>
      <point x="173.6" y="-51.2" type="line" smooth="yes"/>
      <point x="173.6" y="-128.2"/>
      <point x="98.6" y="-146.39999999999998"/>
      <point x="20.0" y="-146.39999999999998" type="curve" smooth="yes"/>
      <point x="3.2" y="-146.39999999999998"/>
      <point x="-24.0" y="-148.2"/>
      <point x="-44.6" y="-145.2" type="curve"/>
      <point x="-44.6" y="-412.4" type="line"/>
      <point x="-1.4000000000000004" y="-419.0"/>
      <point x="73.0" y="-419.0"/>
      <point x="106.4" y="-419.0" type="curve" smooth="yes"/>
      <point x="320.0" y="-419.0"/>
      <point x="533.0" y="-371.8"/>
      <point x="533.0" y="-51.8" type="curve" smooth="yes"/>
      <point x="533.0" y="0.0" type="line"/>
    </contour>
    <component base="F" xOffset="60.800000000000004"/>
  </outline>
</glyph>
<glyph name="florin" format="2">
  <advance height="2479.0" width="1016.6"/>
  <unicode hex="0192"/>
  <outline>
    <contour>
      <point x="875.0" y="1082.0" type="line"/>
      <point x="652.8" y="1082.0" type="line"/>
      <point x="652.8" y="1167.4" type="line" smooth="yes"/>
      <point x="654.4" y="1246.6"/>
      <point x="708.2" y="1287.4"/>
      <point x="793.0" y="1287.4" type="curve" smooth="yes"/>
      <point x="845.6" y="1287.4"/>
      <point x="871.6" y="1283.8"/>
      <point x="899.8" y="1277.8" type="curve"/>
      <point x="925.2" y="1537.2" type="line"/>
      <point x="872.0" y="1547.4"/>
      <point x="817.2" y="1556.0"/>
      <point x="751.0" y="1556.0" type="curve" smooth="yes"/>
      <point x="476.4" y="1556.0"/>
      <point x="312.6" y="1421.6"/>
      <point x="311.8" y="1167.4" type="curve" smooth="yes"/>
      <point x="311.8" y="1082.0" type="line"/>
      <point x="147.8" y="1082.0" type="line"/>
      <point x="147.8" y="838.8" type="line"/>
      <point x="311.8" y="838.8" type="line"/>
      <point x="311.8" y="-9.799999999999997" type="line" smooth="yes"/>
      <point x="311.8" y="-93.8"/>
      <point x="297.0" y="-147.0"/>
      <point x="200.6" y="-147.0" type="curve" smooth="yes"/>
      <point x="173.0" y="-147.0"/>
      <point x="130.4" y="-141.6"/>
      <point x="106.4" y="-135.8" type="curve"/>
      <point x="92.2" y="-404.0" type="line"/>
      <point x="151.8" y="-416.0"/>
      <point x="200.4" y="-419.0"/>
      <point x="254.2" y="-419.0" type="curve" smooth="yes"/>
      <point x="505.20000000000005" y="-419.0"/>
      <point x="652.8" y="-276.2"/>
      <point x="652.8" y="-9.799999999999997" type="curve" smooth="yes"/>
      <point x="652.8" y="838.8" type="line"/>
      <point x="875.0" y="838.8" type="line"/>
    </contour>
  </outline>
</glyph>
<glyph name="Ghook" format="2">
  <advance height="2479.0" width="1750.2"/>
  <unicode hex="0193"/>
  <anchor x="796.6" y="4.800000000000001" name="bottom"/>
  <anchor x="799.6" y="1676.0" name="top"/>
  <outline>
    <contour>
      <point x="1454.0" y="1003.2" type="line"/>
      <point x="1454.0" y="1253.0" type="line" smooth="yes"/>
      <point x="1454.0" y="1376.2"/>
      <point x="1552.0" y="1397.6"/>
      <point x="1656.2" y="1397.6" type="curve" smooth="yes"/>
      <point x="1688.2" y="1397.6"/>
      <point x="1720.2" y="1392.2"/>
      <point x="1753.6" y="1389.4" type="curve"/>
      <point x="1753.6" y="1669.6" type="line"/>
      <point x="1694.8" y="1683.4"/>
      <point x="1645.6" y="1690.6"/>
      <point x="1592.2" y="1690.6" type="curve" smooth="yes"/>
      <point x="1328.6" y="1690.6"/>
      <point x="1086.2" y="1536.2"/>
      <point x="1086.2" y="1253.0" type="curve" smooth="yes"/>
      <point x="1087.0" y="1003.2" type="line"/>
    </contour>
    <component base="G"/>
  </outline>
</glyph>
<glyph name="Gamma-latin" format="2">
  <advance height="2479.0" width="1603.2"/>
  <unicode hex="0194"/>
  <outline>
    <contour>
      <point x="83.2" y="1489.0" type="line"/>
      <point x="765.8" y="157.8" type="line" smooth="yes"/>
      <point x="818.4" y="51.0"/>
      <point x="851.4" y="-56.8"/>
      <point x="851.4" y="-132.39999999999998" type="curve" smooth="yes"/>
      <point x="851.4" y="-180.2"/>
      <point x="834.8" y="-204.6"/>
      <point x="802.0" y="-204.6" type="curve" smooth="yes"/>
      <point x="768.2" y="-204.6"/>
      <point x="751.8" y="-180.0"/>
      <point x="751.8" y="-134.0" type="curve" smooth="yes"/>
      <point x="751.8" y="-58.39999999999999"/>
      <point x="785.8" y="48.2"/>
      <point x="840.4" y="157.8" type="curve" smooth="yes"/>
      <point x="1520.6" y="1489.0" type="line"/>
      <point x="1106.4" y="1489.0" type="line"/>
      <point x="703.4" y="606.8" type="line" smooth="yes"/>
      <point x="440.0" y="39.8"/>
      <point x="395.8" y="-63.8"/>
      <point x="395.8" y="-151.6" type="curve" smooth="yes"/>
      <point x="395.8" y="-332.6"/>
      <point x="560.2" y="-442.0"/>
      <point x="802.0" y="-442.0" type="curve" smooth="yes"/>
      <point x="1039.0" y="-442.0"/>
      <point x="1195.2" y="-323.0"/>
      <point x="1195.2" y="-160.4" type="curve" smooth="yes"/>
      <point x="1195.2" y="-43.4"/>
      <point x="1094.8" y="199.0"/>
      <point x="903.2" y="606.0" type="curve" smooth="yes"/>
      <point x="494.2" y="1489.0" type="line"/>
    </contour>
  </outline>
</glyph>
<glyph name="hv" format="2">
  <advance height="2479.0" width="2037.0"/>
  <unicode hex="0195"/>
  <outline>
    <contour>
      <point x="113.0" y="0.0" type="line"/>
      <point x="468.20000000000005" y="0.0" type="line"/>
      <point x="468.20000000000005" y="636.8" type="line" smooth="yes"/>
      <point x="469.0" y="764.6"/>
      <point x="545.0" y="840.2"/>
      <point x="657.4" y="840.2" type="curve" smooth="yes"/>
      <point x="772.0" y="840.2"/>
      <point x="837.0" y="766.4"/>
      <point x="837.0" y="642.0" type="curve" smooth="yes"/>
      <point x="837.0" y="559.0" type="line"/>
      <point x="1193.0" y="559.0" type="line"/>
      <point x="1193.0" y="712.4" type="line" smooth="yes"/>
      <point x="1193.0" y="965.0"/>
      <point x="1039.2" y="1132.0"/>
      <point x="804.8" y="1132.0" type="curve" smooth="yes"/>
      <point x="637.6" y="1132.0"/>
      <point x="520.0" y="1049.2"/>
      <point x="468.6" y="912.6" type="curve"/>
      <point x="457.0" y="912.6" type="line"/>
      <point x="457.0" y="1489.0" type="line"/>
      <point x="113.0" y="1489.0" type="line"/>
    </contour>
    <contour>
      <point x="1314.0" y="-20.0" type="curve" smooth="yes"/>
      <point x="1751.0" y="-20.0"/>
      <point x="1924.8" y="324.6"/>
      <point x="1924.8" y="1002.8" type="curve" smooth="yes"/>
      <point x="1924.8" y="1117.0" type="line"/>
      <point x="1569.0" y="1117.0" type="line"/>
      <point x="1569.0" y="1002.8" type="line" smooth="yes"/>
      <point x="1569.0" y="528.0"/>
      <point x="1495.8" y="270.20000000000005"/>
      <point x="1325.8" y="270.20000000000005" type="curve" smooth="yes"/>
      <point x="1252.6" y="270.20000000000005"/>
      <point x="1193.0" y="318.4"/>
      <point x="1193.0" y="433.2" type="curve" smooth="yes"/>
      <point x="1193.0" y="559.0" type="line"/>
      <point x="837.0" y="559.0" type="line"/>
      <point x="837.0" y="433.2" type="line" smooth="yes"/>
      <point x="837.0" y="155.2"/>
      <point x="1002.2" y="-20.0"/>
    </contour>
  </outline>
</glyph>
<glyph name="Khook" format="2">
  <advance height="2479.0" width="1532.0"/>
  <unicode hex="0198"/>
  <outline>
    <contour>
      <point x="112.8" y="0.0" type="line"/>
      <point x="472.2" y="0.0" type="line"/>
      <point x="472.2" y="350.2" type="line"/>
      <point x="654.2" y="540.8" type="line"/>
      <point x="1065.0" y="0.0" type="line"/>
      <point x="1495.0" y="0.0" type="line"/>
      <point x="883.4" y="796.2" type="line"/>
      <point x="1210.0" y="1132.4" type="line" smooth="yes"/>
      <point x="1275.2" y="1198.0"/>
      <point x="1322.0" y="1228.6"/>
      <point x="1409.2" y="1185.2" type="curve"/>
      <point x="1519.0" y="1437.6" type="line"/>
      <point x="1309.4" y="1556.8"/>
      <point x="1113.0" y="1522.8"/>
      <point x="948.2" y="1353.2" type="curve" smooth="yes"/>
      <point x="492.4" y="880.6" type="line"/>
      <point x="472.2" y="880.6" type="line"/>
      <point x="472.2" y="1489.0" type="line"/>
      <point x="112.8" y="1489.0" type="line"/>
    </contour>
  </outline>
</glyph>
<glyph name="khook" format="2">
  <advance height="2479.0" width="1211.8"/>
  <unicode hex="0199"/>
  <outline>
    <contour>
      <point x="829.4" y="0.0" type="line"/>
      <point x="1213.2" y="0.0" type="line"/>
      <point x="778.4" y="640.0" type="line"/>
      <point x="1194.2" y="1117.0" type="line"/>
      <point x="785.8" y="1117.0" type="line"/>
      <point x="483.0" y="762.8" type="line"/>
      <point x="468.20000000000005" y="762.8" type="line"/>
      <point x="468.20000000000005" y="1059.2" type="line"/>
      <point x="113.0" y="1059.2" type="line"/>
      <point x="113.0" y="0.0" type="line"/>
      <point x="468.20000000000005" y="0.0" type="line"/>
      <point x="468.20000000000005" y="278.6" type="line"/>
      <point x="567.0" y="387.0" type="line"/>
    </contour>
    <contour>
      <point x="468.20000000000005" y="943.4" type="line"/>
      <point x="468.20000000000005" y="1142.8" type="line" smooth="yes"/>
      <point x="469.0" y="1219.8"/>
      <point x="547.8" y="1237.8"/>
      <point x="622.4" y="1237.8" type="curve" smooth="yes"/>
      <point x="649.6" y="1237.8"/>
      <point x="676.8" y="1235.0"/>
      <point x="705.4" y="1232.0" type="curve"/>
      <point x="705.4" y="1498.6" type="line"/>
      <point x="663.4" y="1502.8"/>
      <point x="602.2" y="1510.0"/>
      <point x="527.2" y="1510.0" type="curve" smooth="yes"/>
      <point x="329.8" y="1510.0"/>
      <point x="113.8" y="1462.8"/>
      <point x="113.0" y="1142.8" type="curve" smooth="yes"/>
      <point x="113.0" y="943.4" type="line"/>
    </contour>
  </outline>
</glyph>
<glyph name="lambdastroke" format="2">
  <advance height="2479.0" width="1259.0"/>
  <unicode hex="019B"/>
  <outline>
    <contour>
      <point x="215.8" y="926.8" type="line"/>
      <point x="891.8" y="1138.4" type="line"/>
      <point x="891.8" y="1343.2" type="line"/>
      <point x="215.8" y="1135.0" type="line"/>
    </contour>
    <component base="lambda"/>
  </outline>
</glyph>
<glyph name="Mturned" format="2">
  <advance height="2479.0" width="1954.0"/>
  <unicode hex="019C"/>
  <outline>
    <contour>
      <point x="503.8" y="-22.2" type="curve" smooth="yes"/>
      <point x="812.0" y="-22.2"/>
      <point x="948.6" y="196.8"/>
      <point x="948.6" y="506.0" type="curve"/>
      <point x="846.8" y="503.0" type="line"/>
      <point x="846.8" y="358.2"/>
      <point x="787.0" y="251.4"/>
      <point x="638.2" y="251.4" type="curve" smooth="yes"/>
      <point x="530.0" y="251.4"/>
      <point x="472.2" y="308.8"/>
      <point x="472.2" y="418.8" type="curve" smooth="yes"/>
      <point x="472.2" y="1489.0" type="line"/>
      <point x="112.8" y="1489.0" type="line"/>
      <point x="112.8" y="418.8" type="line" smooth="yes"/>
      <point x="112.8" y="100.8"/>
      <point x="272.0" y="-22.2"/>
    </contour>
    <contour>
      <point x="1188.8" y="-22.2" type="curve" smooth="yes"/>
      <point x="1480.8" y="-22.2"/>
      <point x="1621.8" y="204.0"/>
      <point x="1621.8" y="506.0" type="curve"/>
      <point x="1524.0" y="503.0" type="line"/>
      <point x="1524.0" y="360.6"/>
      <point x="1465.4" y="251.4"/>
      <point x="1315.8" y="251.4" type="curve" smooth="yes"/>
      <point x="1207.8" y="251.4"/>
      <point x="1150.6" y="308.8"/>
      <point x="1150.6" y="418.8" type="curve"/>
      <point x="1150.6" y="1489.0" type="line"/>
      <point x="790.6" y="1489.0" type="line"/>
      <point x="790.6" y="418.8" type="line"/>
      <point x="790.6" y="97.8"/>
      <point x="976.6" y="-22.2"/>
    </contour>
    <contour>
      <point x="1481.0" y="0.0" type="line"/>
      <point x="1841.0" y="0.0" type="line"/>
      <point x="1841.0" y="1489.0" type="line"/>
      <point x="1481.0" y="1489.0" type="line"/>
    </contour>
  </outline>
</glyph>
<glyph name="Nhookleft" format="2">
  <advance height="2479.0" width="1536.6"/>
  <unicode hex="019D"/>
  <anchor x="791.2" y="0.0" name="bottom"/>
  <anchor x="1479.2" y="0.0" name="right"/>
  <anchor x="791.2" y="1676.0" name="top"/>
  <outline>
    <contour>
      <point x="156.2" y="0.0" type="line"/>
      <point x="156.2" y="-51.2" type="line" smooth="yes"/>
      <point x="156.2" y="-128.2"/>
      <point x="81.19999999999999" y="-146.39999999999998"/>
      <point x="3.3999999999999986" y="-146.39999999999998" type="curve" smooth="yes"/>
      <point x="-13.400000000000002" y="-146.39999999999998"/>
      <point x="-40.8" y="-148.2"/>
      <point x="-61.2" y="-145.2" type="curve"/>
      <point x="-61.2" y="-412.4" type="line"/>
      <point x="-22.400000000000002" y="-419.0"/>
      <point x="59.6" y="-419.0"/>
      <point x="98.6" y="-419.0" type="curve" smooth="yes"/>
      <point x="300.0" y="-419.0"/>
      <point x="516.2" y="-371.8"/>
      <point x="516.2" y="-51.8" type="curve" smooth="yes"/>
      <point x="516.2" y="0.0" type="line"/>
    </contour>
    <component base="N" xOffset="43.4"/>
  </outline>
</glyph>
<glyph name="Ohorn" format="2">
  <advance height="2479.0" width="1692.2"/>
  <unicode hex="01A0"/>
  <anchor x="808.0" y="0.0" name="bottom"/>
  <anchor x="1001.2" y="3.6000000000000014" name="ogonek"/>
  <anchor x="177.2" y="1489.0" name="tonos"/>
  <anchor x="808.0" y="1676.0" name="top"/>
  <outline>
    <contour>
      <point x="1459.4" y="1550.6" type="line"/>
      <point x="1459.4" y="1365.6"/>
      <point x="1422.8" y="1257.0"/>
      <point x="1285.4" y="1257.0" type="curve"/>
      <point x="1285.4" y="1091.8" type="line"/>
      <point x="1553.0" y="1091.8"/>
      <point x="1668.0" y="1260.6"/>
      <point x="1668.0" y="1550.6" type="curve"/>
    </contour>
    <component base="O"/>
  </outline>
</glyph>
<glyph name="ohorn" format="2">
  <advance height="2479.0" width="1317.8"/>
  <unicode hex="01A1"/>
  <anchor x="634.2" y="0.0" name="bottom"/>
  <anchor x="792.6" y="0.0" name="ogonek"/>
  <anchor x="634.2" y="1303.0" name="top"/>
  <outline>
    <contour>
      <point x="1125.0" y="1175.4" type="line"/>
      <point x="1125.0" y="1003.0"/>
      <point x="1088.8" y="899.8"/>
      <point x="931.8" y="899.8" type="curve"/>
      <point x="931.8" y="775.4" type="line"/>
      <point x="1198.4" y="775.4"/>
      <point x="1317.8" y="922.4"/>
      <point x="1317.8" y="1175.4" type="curve"/>
    </contour>
    <component base="o"/>
  </outline>
</glyph>
<glyph name="Oi" format="2">
  <advance height="2479.0" width="1961.8"/>
  <unicode hex="01A2"/>
  <outline>
    <contour>
      <point x="1352.2" y="924.6" type="line" name="hr00"/>
      <point x="1010.2" y="924.6" type="line"/>
      <point x="1010.2" y="322.0" type="line"/>
      <point x="968.4" y="289.6"/>
      <point x="890.8" y="261.8"/>
      <point x="791.2" y="261.8" type="curve" smooth="yes"/>
      <point x="540.8" y="261.8"/>
      <point x="457.0" y="429.2"/>
      <point x="457.0" y="686.8" type="curve" smooth="yes"/>
      <point x="457.0" y="782.8" type="line"/>
      <point x="96.4" y="779.8" type="line"/>
      <point x="96.4" y="686.8" type="line" smooth="yes"/>
      <point x="96.4" y="242.6"/>
      <point x="348.2" y="-20.0"/>
      <point x="778.6" y="-20.0" type="curve" smooth="yes"/>
      <point x="1058.8" y="-20.0"/>
      <point x="1268.8" y="88.8"/>
      <point x="1352.2" y="181.2" type="curve"/>
    </contour>
    <contour>
      <point x="1352.2" y="1308.0" type="line"/>
      <point x="1269.6" y="1401.6"/>
      <point x="1062.8" y="1510.0"/>
      <point x="782.0" y="1510.0" type="curve" smooth="yes"/>
      <point x="349.8" y="1510.0"/>
      <point x="96.4" y="1250.6"/>
      <point x="96.4" y="802.4" type="curve" smooth="yes"/>
      <point x="96.4" y="697.4" type="line"/>
      <point x="457.0" y="695.0" type="line"/>
      <point x="457.0" y="802.4" type="line" smooth="yes"/>
      <point x="457.0" y="1074.2"/>
      <point x="532.0" y="1227.4"/>
      <point x="794.2" y="1227.4" type="curve" smooth="yes"/>
      <point x="876.4" y="1227.4"/>
      <point x="960.6" y="1209.8"/>
      <point x="1010.2" y="1168.8" type="curve"/>
      <point x="1010.2" y="571.6" type="line"/>
      <point x="1352.2" y="576.4" type="line"/>
    </contour>
    <contour>
      <point x="1848.8" y="1489.0" type="line"/>
      <point x="1594.8" y="1489.0" type="line"/>
      <point x="1162.2" y="1287.2" type="line"/>
      <point x="1162.2" y="907.0" type="line"/>
      <point x="1511.2" y="1070.4" type="line"/>
      <point x="1511.2" y="-419.0" type="line"/>
      <point x="1848.8" y="-419.0" type="line"/>
    </contour>
  </outline>
</glyph>
<glyph name="oi" format="2">
  <advance height="2479.0" width="1607.0"/>
  <unicode hex="01A3"/>
  <outline>
    <contour>
      <point x="588.6" y="251.8" type="curve" smooth="yes"/>
      <point x="429.6" y="251.8"/>
      <point x="401.8" y="388.6"/>
      <point x="402.6" y="529.8" type="curve" smooth="yes"/>
      <point x="402.6" y="552.2" type="line" smooth="yes"/>
      <point x="402.6" y="722.8"/>
      <point x="428.6" y="861.0"/>
      <point x="582.6" y="861.0" type="curve" smooth="yes"/>
      <point x="648.2" y="861.0"/>
      <point x="688.4" y="838.0"/>
      <point x="717.6" y="797.0" type="curve"/>
      <point x="717.6" y="611.4" type="line"/>
      <point x="1057.8" y="583.4" type="line"/>
      <point x="1057.8" y="853.8" type="line"/>
      <point x="1000.2" y="969.0"/>
      <point x="836.4" y="1132.0"/>
      <point x="595.0" y="1132.0" type="curve" smooth="yes"/>
      <point x="242.8" y="1132.0"/>
      <point x="69.8" y="895.0"/>
      <point x="69.8" y="552.2" type="curve" smooth="yes"/>
      <point x="69.8" y="529.8" type="line" smooth="yes"/>
      <point x="69.0" y="213.8"/>
      <point x="244.0" y="-20.0"/>
      <point x="593.2" y="-20.0" type="curve" smooth="yes"/>
      <point x="859.8" y="-20.0"/>
      <point x="983.6" y="92.80000000000001"/>
      <point x="1057.8" y="225.0" type="curve"/>
      <point x="1057.8" y="658.4" type="line"/>
      <point x="717.6" y="658.4" type="line"/>
      <point x="717.6" y="299.8" type="line"/>
      <point x="690.2" y="269.0"/>
      <point x="646.4" y="251.8"/>
    </contour>
    <contour>
      <point x="1498.6" y="1117.0" type="line"/>
      <point x="1272.0" y="1117.0" type="line"/>
      <point x="910.6" y="967.0" type="line"/>
      <point x="910.6" y="662.8" type="line"/>
      <point x="1160.2" y="749.2" type="line"/>
      <point x="1160.2" y="-417.6" type="line"/>
      <point x="1498.6" y="-419.0" type="line"/>
    </contour>
  </outline>
</glyph>
<glyph name="Phook" format="2">
  <advance height="2479.0" width="1793.4"/>
  <unicode hex="01A4"/>
  <anchor x="548.0" y="1489.0" name="tonos"/>
  <anchor x="1113.6" y="1676.0" name="top"/>
  <outline>
    <contour>
      <point x="381.6" y="914.8" type="line"/>
      <point x="381.6" y="1011.4" type="line" smooth="yes"/>
      <point x="380.8" y="1100.4"/>
      <point x="411.6" y="1199.4"/>
      <point x="533.4" y="1199.4" type="curve" smooth="yes"/>
      <point x="773.8" y="1199.4" type="line"/>
      <point x="773.8" y="1489.0" type="line"/>
      <point x="532.8" y="1489.0" type="line" smooth="yes"/>
      <point x="244.8" y="1489.0"/>
      <point x="63.0" y="1334.4"/>
      <point x="63.8" y="1076.2" type="curve" smooth="yes"/>
      <point x="63.8" y="914.8" type="line"/>
    </contour>
    <component base="P" xOffset="458.20000000000005"/>
  </outline>
</glyph>
<glyph name="phook" format="2">
  <advance height="2479.0" width="1311.2"/>
  <unicode hex="01A5"/>
  <anchor x="292.2" y="-404.6" name="bottom"/>
  <anchor x="1357.6" y="-480.6" name="bottom0315"/>
  <anchor x="288.8" y="-163.0" name="cross"/>
  <anchor x="713.0" y="1303.0" name="top"/>
  <outline>
    <contour>
      <point x="464.6" y="1117.0" type="line"/>
      <point x="464.6" y="1169.8"/>
      <point x="496.6" y="1195.4"/>
      <point x="571.6" y="1193.8" type="curve" smooth="yes"/>
      <point x="619.6" y="1192.2"/>
      <point x="668.6" y="1181.4"/>
      <point x="685.0" y="1176.8" type="curve"/>
      <point x="685.0" y="1403.4" type="line"/>
      <point x="652.2" y="1411.6"/>
      <point x="589.4" y="1423.6"/>
      <point x="507.6" y="1423.6" type="curve" smooth="yes"/>
      <point x="231.4" y="1423.6"/>
      <point x="113.0" y="1339.8"/>
      <point x="113.0" y="1117.0" type="curve"/>
    </contour>
    <component base="p"/>
  </outline>
</glyph>
<glyph name="Tonetwo" format="2">
  <advance height="2479.0" width="1352.4"/>
  <unicode hex="01A7"/>
  <anchor x="670.4" y="-5.199999999999999" name="bottom"/>
  <anchor x="672.8" y="0.0" name="cedilla"/>
  <anchor x="675.8" y="1676.0" name="top"/>
  <outline>
    <contour>
      <point x="434.2" y="1042.6" type="line"/>
      <point x="444.2" y="1149.6"/>
      <point x="521.0" y="1212.4"/>
      <point x="662.0" y="1212.4" type="curve" smooth="yes"/>
      <point x="801.6" y="1212.4"/>
      <point x="871.8" y="1153.0"/>
      <point x="872.6" y="1072.6" type="curve" smooth="yes"/>
      <point x="875.0" y="983.0"/>
      <point x="789.0" y="938.4"/>
      <point x="654.2" y="908.6" type="curve" smooth="yes"/>
      <point x="526.2" y="879.8" type="line" smooth="yes"/>
      <point x="232.2" y="814.8"/>
      <point x="71.19999999999999" y="669.6"/>
      <point x="69.6" y="432.0" type="curve" smooth="yes"/>
      <point x="71.19999999999999" y="148.6"/>
      <point x="291.0" y="-18.8"/>
      <point x="661.4" y="-18.8" type="curve" smooth="yes"/>
      <point x="1036.6" y="-18.8"/>
      <point x="1278.4" y="148.0"/>
      <point x="1282.8" y="496.0" type="curve"/>
      <point x="938.4" y="496.0" type="line"/>
      <point x="930.6" y="352.6"/>
      <point x="825.6" y="278.6"/>
      <point x="666.2" y="278.6" type="curve" smooth="yes"/>
      <point x="521.6" y="278.6"/>
      <point x="436.6" y="341.6"/>
      <point x="435.0" y="432.6" type="curve" smooth="yes"/>
      <point x="436.6" y="516.8"/>
      <point x="509.4" y="560.6"/>
      <point x="673.6" y="599.0" type="curve" smooth="yes"/>
      <point x="829.4" y="635.0" type="line" smooth="yes"/>
      <point x="1087.2" y="693.2"/>
      <point x="1245.0" y="821.0"/>
      <point x="1244.2" y="1047.6" type="curve" smooth="yes"/>
      <point x="1246.6" y="1324.0"/>
      <point x="1001.0" y="1510.0"/>
      <point x="660.8" y="1510.0" type="curve" smooth="yes"/>
      <point x="314.4" y="1510.0"/>
      <point x="93.0" y="1321.2"/>
      <point x="90.6" y="1042.6" type="curve"/>
    </contour>
  </outline>
</glyph>
<glyph name="tonetwo" format="2">
  <advance height="2479.0" width="1177.4"/>
  <unicode hex="01A8"/>
  <outline>
    <contour>
      <point x="580.4" y="-20.6" type="curve" smooth="yes"/>
      <point x="899.0" y="-20.6"/>
      <point x="1088.6" y="121.2"/>
      <point x="1114.2" y="342.4" type="curve"/>
      <point x="762.4" y="350.4" type="line"/>
      <point x="748.2" y="268.8"/>
      <point x="679.4" y="225.60000000000002"/>
      <point x="578.6" y="225.60000000000002" type="curve" smooth="yes"/>
      <point x="487.4" y="225.60000000000002"/>
      <point x="424.6" y="262.2"/>
      <point x="423.8" y="319.0" type="curve" smooth="yes"/>
      <point x="424.6" y="368.0"/>
      <point x="466.4" y="397.0"/>
      <point x="559.4" y="415.2" type="curve" smooth="yes"/>
      <point x="754.2" y="451.8" type="line" smooth="yes"/>
      <point x="977.6" y="493.4"/>
      <point x="1087.2" y="604.6"/>
      <point x="1086.4" y="776.2" type="curve" smooth="yes"/>
      <point x="1087.2" y="1000.4"/>
      <point x="894.6" y="1132.0"/>
      <point x="592.4" y="1132.0" type="curve" smooth="yes"/>
      <point x="289.8" y="1132.0"/>
      <point x="108.8" y="997.0"/>
      <point x="89.19999999999999" y="775.8" type="curve"/>
      <point x="416.0" y="767.0" type="line"/>
      <point x="426.8" y="837.6"/>
      <point x="492.0" y="887.8"/>
      <point x="585.2" y="887.8" type="curve" smooth="yes"/>
      <point x="667.8" y="887.8"/>
      <point x="734.4" y="853.0"/>
      <point x="732.8" y="796.2" type="curve" smooth="yes"/>
      <point x="734.4" y="753.6"/>
      <point x="703.4" y="719.8"/>
      <point x="608.8" y="701.4" type="curve" smooth="yes"/>
      <point x="394.2" y="660.4" type="line" smooth="yes"/>
      <point x="171.0" y="617.8"/>
      <point x="63.599999999999994" y="521.4"/>
      <point x="62.0" y="357.4" type="curve" smooth="yes"/>
      <point x="63.599999999999994" y="127.8"/>
      <point x="280.6" y="-20.6"/>
    </contour>
  </outline>
</glyph>
<glyph name="eshreversedloop" format="2">
  <advance height="2479.0" width="1412.2"/>
  <unicode hex="01AA"/>
  <outline>
    <contour>
      <point x="689.0" y="943.8" type="line" name="hr00"/>
      <point x="689.0" y="-6.799999999999997" type="line" smooth="yes"/>
      <point x="689.0" y="-285.0"/>
      <point x="848.6" y="-437.4"/>
      <point x="1108.8" y="-437.4" type="curve" smooth="yes"/>
      <point x="1167.8" y="-437.4"/>
      <point x="1219.8" y="-433.8"/>
      <point x="1271.2" y="-422.6" type="curve"/>
      <point x="1271.2" y="-156.0" type="line"/>
      <point x="1231.2" y="-162.0"/>
      <point x="1202.6" y="-165.0"/>
      <point x="1172.0" y="-165.0" type="curve" smooth="yes"/>
      <point x="1081.8" y="-165.0"/>
      <point x="1029.2" y="-111.0"/>
      <point x="1029.2" y="-6.799999999999997" type="curve" smooth="yes"/>
      <point x="1029.2" y="1123.8" type="line"/>
    </contour>
    <contour>
      <point x="141.0" y="1123.8" type="curve" smooth="yes"/>
      <point x="142.6" y="884.2"/>
      <point x="340.2" y="690.2"/>
      <point x="584.4" y="690.2" type="curve" smooth="yes"/>
      <point x="827.2" y="690.2"/>
      <point x="1028.4" y="885.8"/>
      <point x="1029.2" y="1123.8" type="curve" smooth="yes"/>
      <point x="1030.0" y="1359.2"/>
      <point x="827.2" y="1556.4"/>
      <point x="584.4" y="1556.4" type="curve" smooth="yes"/>
      <point x="337.8" y="1556.4"/>
      <point x="140.2" y="1359.2"/>
    </contour>
    <contour>
      <point x="586.8" y="975.6" type="curve" smooth="yes"/>
      <point x="498.20000000000005" y="975.6"/>
      <point x="436.0" y="1026.0"/>
      <point x="436.8" y="1126.8" type="curve" smooth="yes"/>
      <point x="438.4" y="1222.2"/>
      <point x="498.20000000000005" y="1272.4"/>
      <point x="586.8" y="1272.4" type="curve" smooth="yes"/>
      <point x="662.8" y="1272.4"/>
      <point x="729.8" y="1224.6"/>
      <point x="730.6" y="1126.8" type="curve" smooth="yes"/>
      <point x="732.2" y="1026.0"/>
      <point x="665.2" y="975.6"/>
    </contour>
  </outline>
</glyph>
<glyph name="tpalatalhook" format="2">
  <advance height="2479.0" width="820.6"/>
  <unicode hex="01AB"/>
  <anchor x="454.4" y="0.0" name="bottom"/>
  <anchor x="556.0" y="0.0" name="cedilla"/>
  <anchor x="669.6" y="1562.0" name="raccent"/>
  <anchor x="364.0" y="1531.4" name="top"/>
  <outline>
    <contour>
      <point x="539.4" y="241.2" type="line"/>
      <point x="539.4" y="-51.8" type="line" smooth="yes"/>
      <point x="539.4" y="-161.6"/>
      <point x="434.4" y="-182.2"/>
      <point x="360.6" y="-182.2" type="curve" smooth="yes"/>
      <point x="325.2" y="-182.2"/>
      <point x="300.4" y="-179.2"/>
      <point x="274.2" y="-176.2" type="curve"/>
      <point x="274.2" y="-401.2" type="line"/>
      <point x="323.4" y="-411.8"/>
      <point x="363.8" y="-416.6"/>
      <point x="415.6" y="-416.6" type="curve" smooth="yes"/>
      <point x="636.2" y="-416.6"/>
      <point x="771.4" y="-285.4"/>
      <point x="771.4" y="-51.8" type="curve" smooth="yes"/>
      <point x="771.4" y="289.8" type="line"/>
    </contour>
    <component base="t"/>
  </outline>
</glyph>
<glyph name="Thook" format="2">
  <advance height="2479.0" width="1454.4"/>
  <unicode hex="01AC"/>
  <outline>
    <contour>
      <point x="759.8" y="1489.0" type="line"/>
      <point x="509.6" y="1489.0" type="line" smooth="yes"/>
      <point x="218.4" y="1489.0"/>
      <point x="63.8" y="1333.2"/>
      <point x="63.8" y="1074.4" type="curve" smooth="yes"/>
      <point x="63.8" y="912.8" type="line"/>
      <point x="357.2" y="912.8" type="line"/>
      <point x="357.2" y="1010.4" type="line" smooth="yes"/>
      <point x="357.2" y="1101.6"/>
      <point x="383.6" y="1197.0"/>
      <point x="509.6" y="1197.0" type="curve" smooth="yes"/>
      <point x="759.8" y="1197.0" type="line"/>
    </contour>
    <contour>
      <point x="1390.6" y="1489.0" type="line"/>
      <point x="546.0" y="1489.0" type="line"/>
      <point x="546.0" y="1197.0" type="line"/>
      <point x="583.4" y="1197.0" type="line"/>
      <point x="583.4" y="0.0" type="line"/>
      <point x="938.6" y="0.0" type="line"/>
      <point x="938.6" y="1197.0" type="line"/>
      <point x="1390.6" y="1197.0" type="line"/>
    </contour>
  </outline>
</glyph>
<glyph name="thook" format="2">
  <advance height="2479.0" width="835.4"/>
  <unicode hex="01AD"/>
  <outline>
    <contour>
      <point x="581.4" y="-15.8" type="curve" smooth="yes"/>
      <point x="667.0" y="-11.8"/>
      <point x="729.6" y="5.800000000000001"/>
      <point x="763.0" y="16.4" type="curve"/>
      <point x="709.6" y="272.8" type="line"/>
      <point x="694.8" y="269.0"/>
      <point x="659.0" y="261.4"/>
      <point x="632.2" y="261.4" type="curve" smooth="yes"/>
      <point x="574.6" y="261.4"/>
      <point x="541.6" y="285.4"/>
      <point x="541.6" y="351.2" type="curve" smooth="yes"/>
      <point x="541.6" y="1133.6" type="line"/>
      <point x="186.6" y="1133.6" type="line"/>
      <point x="186.6" y="311.4" type="line" smooth="yes"/>
      <point x="184.2" y="85.4"/>
      <point x="330.8" y="-27.8"/>
    </contour>
    <contour>
      <point x="38.4" y="855.2" type="line"/>
      <point x="743.0" y="855.2" type="line"/>
      <point x="743.0" y="1117.0" type="line"/>
      <point x="38.4" y="1117.0" type="line"/>
    </contour>
    <contour>
      <point x="186.6" y="943.4" type="line"/>
      <point x="541.6" y="943.4" type="line"/>
      <point x="541.6" y="1142.8" type="line" smooth="yes"/>
      <point x="541.6" y="1219.8"/>
      <point x="621.2" y="1237.8"/>
      <point x="695.0" y="1237.8" type="curve" smooth="yes"/>
      <point x="723.2" y="1237.8"/>
      <point x="750.4" y="1235.0"/>
      <point x="778.2" y="1232.0" type="curve"/>
      <point x="778.2" y="1498.6" type="line"/>
      <point x="736.8" y="1502.8"/>
      <point x="675.8" y="1510.0"/>
      <point x="600.8" y="1510.0" type="curve" smooth="yes"/>
      <point x="403.4" y="1510.0"/>
      <point x="186.6" y="1462.8"/>
      <point x="186.6" y="1142.8" type="curve" smooth="yes"/>
    </contour>
  </outline>
</glyph>
<glyph name="Tretroflexhook" format="2">
  <advance height="2479.0" width="1387.0"/>
  <unicode hex="01AE"/>
  <anchor x="692.2" y="0.0" name="bottom"/>
  <anchor x="692.2" y="0.0" name="cedilla"/>
  <anchor x="692.2" y="686.4" name="cross"/>
  <anchor x="1026.6" y="143.2" name="cyrtic"/>
  <anchor x="823.6" y="0.0" name="right"/>
  <anchor x="694.6" y="1676.0" name="top"/>
  <outline>
    <contour>
      <point x="871.2" y="0.0" type="line"/>
      <point x="515.8" y="0.0" type="line"/>
      <point x="515.8" y="-50.0" type="line" smooth="yes"/>
      <point x="515.8" y="-370.0"/>
      <point x="726.4" y="-419.0"/>
      <point x="930.2" y="-419.0" type="curve"/>
      <point x="1089.0" y="-419.0" type="line"/>
      <point x="1089.0" y="-147.0" type="line"/>
      <point x="1024.4" y="-147.0" type="line"/>
      <point x="949.0" y="-147.0"/>
      <point x="871.2" y="-128.8"/>
      <point x="871.2" y="-51.8" type="curve" smooth="yes"/>
    </contour>
    <component base="T"/>
  </outline>
</glyph>
<glyph name="Uhorn" format="2">
  <advance height="2479.0" width="1785.6"/>
  <unicode hex="01AF"/>
  <anchor x="743.0" y="3.200000000000003" name="bottom"/>
  <anchor x="948.4" y="8.0" name="ogonek"/>
  <anchor x="862.4" y="0.0" name="right"/>
  <anchor x="743.0" y="1676.0" name="top"/>
  <outline>
    <contour>
      <point x="1511.2" y="1531.2" type="line"/>
      <point x="1511.2" y="1339.2"/>
      <point x="1502.6" y="1218.0"/>
      <point x="1273.0" y="1218.0" type="curve"/>
      <point x="1273.0" y="1047.8" type="line"/>
      <point x="1625.8" y="1047.8"/>
      <point x="1721.8" y="1229.4"/>
      <point x="1721.8" y="1531.2" type="curve"/>
    </contour>
    <component base="U"/>
  </outline>
</glyph>
<glyph name="uhorn" format="2">
  <advance height="2479.0" width="1511.6"/>
  <unicode hex="01B0"/>
  <anchor x="722.4" y="0.0" name="bottom"/>
  <anchor x="1198.6" y="0.0" name="ogonek"/>
  <anchor x="661.6" y="1303.0" name="top"/>
  <outline>
    <contour>
      <point x="1352.0" y="1183.0" type="line"/>
      <point x="1351.2" y="1012.6"/>
      <point x="1322.6" y="927.8"/>
      <point x="1112.8" y="927.8" type="curve"/>
      <point x="1112.8" y="783.2" type="line"/>
      <point x="1434.0" y="783.2"/>
      <point x="1539.8" y="919.4"/>
      <point x="1540.6" y="1183.0" type="curve"/>
    </contour>
    <component base="u" xOffset="9.600000000000001"/>
  </outline>
</glyph>
<glyph name="Upsilon-latin" format="2">
  <advance height="2479.0" width="1605.4"/>
  <unicode hex="01B1"/>
  <outline>
    <contour>
      <point x="82.8" y="673.6" type="curve" smooth="yes"/>
      <point x="82.8" y="267.8"/>
      <point x="381.6" y="-20.0"/>
      <point x="803.2" y="-20.0" type="curve" smooth="yes"/>
      <point x="1224.0" y="-20.0"/>
      <point x="1523.4" y="267.8"/>
      <point x="1523.4" y="673.6" type="curve" smooth="yes"/>
      <point x="1523.4" y="911.6"/>
      <point x="1420.4" y="1081.6"/>
      <point x="1256.4" y="1185.2" type="curve"/>
      <point x="1256.4" y="1197.0" type="line"/>
      <point x="1523.4" y="1197.0" type="line"/>
      <point x="1523.4" y="1489.0" type="line"/>
      <point x="912.0" y="1489.0" type="line"/>
      <point x="912.0" y="1122.8" type="line"/>
      <point x="1057.6" y="1064.8"/>
      <point x="1158.2" y="901.4"/>
      <point x="1158.2" y="706.4" type="curve" smooth="yes"/>
      <point x="1158.2" y="469.8"/>
      <point x="1010.8" y="297.6"/>
      <point x="803.2" y="297.6" type="curve" smooth="yes"/>
      <point x="595.4" y="297.6"/>
      <point x="448.20000000000005" y="469.8"/>
      <point x="448.20000000000005" y="706.4" type="curve" smooth="yes"/>
      <point x="448.20000000000005" y="901.4"/>
      <point x="548.0" y="1064.8"/>
      <point x="693.6" y="1122.8" type="curve"/>
      <point x="693.6" y="1489.0" type="line"/>
      <point x="82.8" y="1489.0" type="line"/>
      <point x="82.8" y="1197.0" type="line"/>
      <point x="349.8" y="1197.0" type="line"/>
      <point x="349.8" y="1185.2" type="line"/>
      <point x="185.8" y="1081.0"/>
      <point x="82.8" y="911.6"/>
    </contour>
  </outline>
</glyph>
<glyph name="Vhook" format="2">
  <advance height="2479.0" width="1516.4"/>
  <unicode hex="01B2"/>
  <outline>
    <contour>
      <point x="714.2" y="-23.0" type="curve"/>
      <point x="1151.6" y="-23.2"/>
      <point x="1403.2" y="331.6"/>
      <point x="1403.4" y="822.6" type="curve" smooth="yes"/>
      <point x="1403.4" y="1255.8"/>
      <point x="1206.8" y="1508.8"/>
      <point x="942.0" y="1508.8" type="curve" smooth="yes"/>
      <point x="869.6" y="1508.8"/>
      <point x="786.6" y="1489.4"/>
      <point x="699.8" y="1460.0" type="curve"/>
      <point x="729.2" y="1172.4" type="line"/>
      <point x="762.6" y="1188.2"/>
      <point x="801.4" y="1196.0"/>
      <point x="828.2" y="1196.0" type="curve" smooth="yes"/>
      <point x="948.8" y="1196.0"/>
      <point x="1034.8" y="1049.6"/>
      <point x="1036.2" y="789.6" type="curve" smooth="yes"/>
      <point x="1036.0" y="504.2"/>
      <point x="931.6" y="292.6"/>
      <point x="730.2" y="292.20000000000005" type="curve" smooth="yes"/>
      <point x="583.8" y="292.20000000000005"/>
      <point x="472.2" y="403.2"/>
      <point x="472.2" y="559.6" type="curve" smooth="yes"/>
      <point x="472.2" y="1489.0" type="line"/>
      <point x="112.8" y="1489.0" type="line"/>
      <point x="112.8" y="528.6" type="line" smooth="yes"/>
      <point x="112.8" y="192.8"/>
      <point x="364.4" y="-23.0"/>
    </contour>
  </outline>
</glyph>
<glyph name="Yhook" format="2">
  <advance height="2479.0" width="1674.0"/>
  <unicode hex="01B3"/>
  <outline>
    <contour>
      <point x="806.0" y="831.0" type="line"/>
      <point x="841.0" y="831.0" type="line"/>
      <point x="841.0" y="866.0" type="line"/>
      <point x="806.0" y="866.0" type="line"/>
    </contour>
    <contour>
      <point x="52.6" y="1489.0" type="line"/>
      <point x="644.2" y="562.8" type="line"/>
      <point x="644.2" y="0.0" type="line"/>
      <point x="1002.0" y="0.0" type="line"/>
      <point x="1002.0" y="562.8" type="line"/>
      <point x="1358.4" y="1117.8" type="line" smooth="yes"/>
      <point x="1417.8" y="1209.4"/>
      <point x="1464.2" y="1235.4"/>
      <point x="1572.6" y="1204.0" type="curve"/>
      <point x="1647.4" y="1470.8" type="line"/>
      <point x="1450.2" y="1542.6"/>
      <point x="1224.4" y="1516.6"/>
      <point x="1089.2" y="1292.2" type="curve" smooth="yes"/>
      <point x="823.2" y="852.0" type="line"/>
      <point x="441.20000000000005" y="1489.0" type="line"/>
    </contour>
  </outline>
</glyph>
